<?xml version="1.0" standalone="no"?>
<!DOCTYPE svg PUBLIC "-//W3C//DTD SVG 1.1//EN" "http://www.w3.org/Graphics/SVG/1.1/DTD/svg11.dtd" >
<svg>
<metadata>
Created by FontForge 20110222 at Thu Apr 25 15:45:43 2013
 By Orthosie Webmaster
Copyright (c) 2009 by Floodfonts, designed by Felix Braden. All rights reserved.
</metadata>
<defs>
<font id="PolarisRegular" horiz-adv-x="730" >
  <font-face 
    font-family="PolarisRegular"
    font-weight="400"
    font-stretch="normal"
    units-per-em="1000"
    panose-1="2 0 5 3 3 0 0 2 0 4"
    ascent="750"
    descent="-250"
    x-height="539"
    cap-height="712"
    bbox="-50 -332 1148 979"
    underline-thickness="70"
    underline-position="-63"
    unicode-range="U+0020-FB02"
  />
<missing-glyph horiz-adv-x="200" 
 />
    <glyph glyph-name=".notdef" horiz-adv-x="200" 
 />
    <glyph glyph-name=".null" horiz-adv-x="0" 
 />
    <glyph glyph-name="nonmarkingreturn" horiz-adv-x="333" 
 />
    <glyph glyph-name="space" unicode=" " horiz-adv-x="200" 
 />
    <glyph glyph-name="exclam" unicode="!" horiz-adv-x="266" 
d="M183 672l-24 -501h-51q-25 462 -25 501q0 28 10 37.5t40 9.5t40 -9.5t10 -37.5zM196 49q0 -36 -12.5 -48t-50.5 -12t-50.5 12t-12.5 48q0 35 12.5 47t50.5 12t50.5 -12t12.5 -47z" />
    <glyph glyph-name="quotedbl" unicode="&#x22;" horiz-adv-x="374" 
d="M304 712l-13 -208h-67l-13 208h93zM164 712l-13 -208h-68l-13 208h94z" />
    <glyph glyph-name="numbersign" unicode="#" 
d="M402 0l26 179h-175l-26 -179h-79l26 179h-114l11 72h114l28 192h-114l11 72h114l27 177h79l-27 -177h175l27 177h79l-27 -177h113l-11 -72h-113l-28 -192h113l-11 -72h-113l-26 -179h-79zM292 443l-28 -192h175l28 192h-175z" />
    <glyph glyph-name="dollar" unicode="$" 
d="M396 -92l-71 1v75q-115 10 -165 74q-2 -16 -6 -29.5t-7.5 -20.5t-5.5 -7h-54v233h63q5 -87 41.5 -127.5t133.5 -45.5v250q-122 6 -172.5 57.5t-50.5 144.5q0 87 56.5 137t166.5 57v78h71v-79q100 -11 146 -72q3 16 7 29.5t8 20.5t6 7h52v-225h-58q-10 87 -47.5 123
t-113.5 41v-244q252 -13 252 -197q0 -87 -55 -142t-197 -63v-76zM562 189q0 58 -37 87t-129 33v-248q71 3 108 20t47.5 41t10.5 67zM181 513q0 -59 30 -89.5t114 -35.5v242q-144 -10 -144 -117z" />
    <glyph glyph-name="percent" unicode="%" horiz-adv-x="827" 
d="M342 496q0 -114 -29 -156t-122 -42t-122 42t-29 156t29 156.5t122 42.5t122 -42t29 -157zM288 496q0 97 -15 122.5t-82 25.5t-82 -26t-15 -122t15 -121.5t82 -25.5t82 25.5t15 121.5zM787 191q0 -114 -29 -156t-122 -42t-122 42t-29 156t29 156.5t122 42.5t122 -42
t29 -157zM733 191q0 97 -15 122.5t-82 25.5t-82 -26t-15 -122t15 -121.5t82 -25.5t82 25.5t15 121.5zM270 0h-59l347 689h62z" />
    <glyph glyph-name="ampersand" unicode="&#x26;" horiz-adv-x="712" 
d="M692 122q0 -66 -27.5 -99.5t-93.5 -33.5q-97 0 -108 83q-22 -42 -59.5 -62t-115.5 -20q-98 0 -168 58.5t-70 150.5q0 146 150 170q-66 10 -98 49.5t-32 96.5q0 93 64 144t169 51q106 0 165.5 -48t59.5 -145v-119h150v-66h-150v-212q0 -36 9 -48t38 -12t38 12t9 48v127h46
q3 0 8 -13.5t10.5 -44.5t5.5 -67zM297 68q72 0 112.5 34t40.5 97v129h-136q-105 0 -143 -31.5t-38 -97.5q0 -64 45 -97.5t119 -33.5zM150 512q0 -114 164 -114h136v114q0 120 -147 120q-74 0 -113.5 -33.5t-39.5 -86.5z" />
    <glyph glyph-name="quotesingle" unicode="'" horiz-adv-x="234" 
d="M164 712l-13 -208h-68l-13 208h94z" />
    <glyph glyph-name="parenleft" unicode="(" horiz-adv-x="329" 
d="M80 126v318q0 294 190 294l19 -2v-55q-29 -4 -49 -14t-41 -33.5t-31.5 -71t-10.5 -118.5v-318q0 -71 10.5 -118.5t31.5 -71t41 -33.5t49 -14v-55q-5 -2 -19 -2q-190 0 -190 294z" />
    <glyph glyph-name="parenright" unicode=")" horiz-adv-x="329" 
d="M249 444v-318q0 -294 -190 -294l-19 2v55q29 4 49 14t41 33.5t31.5 71t10.5 118.5v318q0 71 -10.5 118.5t-31.5 71t-41 33.5t-49 14v55q5 2 19 2q190 0 190 -294z" />
    <glyph glyph-name="asterisk" unicode="*" horiz-adv-x="512" 
d="M442 463l-43 -73l-115 84l14 -144h-85l15 144l-116 -84l-42 73l130 58l-130 59l44 73l115 -84l-15 143h85l-15 -143l117 84l41 -73l-131 -58z" />
    <glyph glyph-name="plus" unicode="+" horiz-adv-x="402" 
d="M362 286h-124v-128h-79v128h-119v67h119v127h79v-127h124v-67z" />
    <glyph glyph-name="comma" unicode="," horiz-adv-x="266" 
d="M193 54q0 -159 -112 -159v44q12 0 29 13.5t17 40.5v6q-31 0 -43 11.5t-12 43.5q0 33 11.5 43.5t48.5 10.5t49 -11t12 -43z" />
    <glyph glyph-name="hyphen" unicode="-" horiz-adv-x="293" 
d="M273 286h-253v67h253v-67z" />
    <glyph glyph-name="period" unicode="." horiz-adv-x="266" 
d="M196 49q0 -36 -12.5 -48t-50.5 -12t-50.5 12t-12.5 48q0 35 12.5 47t50.5 12t50.5 -12t12.5 -47z" />
    <glyph glyph-name="slash" unicode="/" horiz-adv-x="346" 
d="M90 0h-80l237 712h89z" />
    <glyph glyph-name="zero" unicode="0" 
d="M636 346q0 -104 -10 -166.5t-39 -108t-82 -63.5t-140 -18t-139.5 18t-82 63.5t-39.5 108t-10 166.5q0 83 6 137.5t23 99t47.5 69t77.5 37t117 12.5t117 -12.5t78 -37t47.5 -69t22.5 -99t6 -137.5zM553 346q0 40 -0.5 64.5t-2 53t-4 45t-8 35t-12 28.5t-17.5 20.5
t-24 15.5t-31.5 9t-39.5 5.5t-49 1.5q-35 0 -59.5 -2t-45 -9.5t-34 -15.5t-23 -26t-15 -35t-8.5 -49.5t-3.5 -62t-0.5 -78.5t0.5 -79t4 -62t8.5 -49.5t14.5 -35.5t23 -26t34 -15.5t45 -9.5t59.5 -2q28 0 49 1.5t39.5 5.5t31.5 9t24 16t17.5 20.5t12 28.5t8 35.5t4 45t2 53
t0.5 64.5z" />
    <glyph glyph-name="one" unicode="1" horiz-adv-x="422" 
d="M184 607l-103 -16l-6 42q-1 5 20.5 19.5t67.5 31.5t97 23v-640q24 0 45.5 -5t32 -10t10.5 -7v-45h-253v45q0 2 10.5 7t32 10t46.5 5v540z" />
    <glyph glyph-name="two" unicode="2" horiz-adv-x="709" 
d="M354 624q-96 0 -134 -35.5t-46 -95.5h-66q0 4 -0.5 10t-0.5 9q0 189 247 189q128 0 192.5 -56t64.5 -162q0 -97 -57 -148.5t-169 -75.5q-113 -25 -163 -61.5t-50 -115.5v-13h368q0 38 6 70t12 46t10 14h42v-199h-522v85q0 53 18.5 94t43.5 65t68.5 44t73 28.5t77.5 19.5
q90 22 126.5 53.5t36.5 93.5q0 141 -178 141z" />
    <glyph glyph-name="three" unicode="3" horiz-adv-x="702" 
d="M292 324v69h58q164 0 164 113q0 118 -179 118q-96 0 -133.5 -35t-45.5 -96h-66q0 4 -0.5 10.5t-0.5 9.5q0 188 246 188q128 0 193.5 -49t65.5 -143q0 -57 -32 -96t-98 -49q150 -23 150 -168q0 -95 -74 -150.5t-210 -55.5q-131 0 -191.5 51.5t-60.5 137.5q0 3 0.5 9
t0.5 10h66q8 -60 48.5 -95.5t136.5 -35.5q106 0 153.5 31.5t47.5 97.5q0 65 -38 96.5t-143 31.5h-58z" />
    <glyph glyph-name="four" unicode="4" horiz-adv-x="642" 
d="M44 180v88l322 427h102v-444h135v-71h-135v-113q23 0 44.5 -5t32 -10t10.5 -8v-44h-261v44q0 3 12.5 8t36 10t48.5 5v113h-347zM120 251h271v361z" />
    <glyph glyph-name="five" unicode="5" horiz-adv-x="691" 
d="M580 615h-396l-9 -219q43 58 169 58q148 0 208.5 -61t60.5 -171t-59 -171t-210 -61q-131 0 -193.5 52t-62.5 139q0 3 0.5 9t0.5 10h66q8 -61 49.5 -98.5t139.5 -37.5q109 0 147 36t38 122q0 87 -38 123.5t-147 36.5q-87 0 -131 -21t-56 -68h-60l16 398h467v-76z" />
    <glyph glyph-name="six" unicode="6" horiz-adv-x="707" 
d="M365 -8q-87 0 -140.5 18t-84.5 62.5t-41.5 107.5t-10.5 167t10 166t40.5 107t84.5 63t142 18q246 0 246 -188q0 -3 -0.5 -9.5t-0.5 -10.5h-66q-8 61 -46.5 98t-132.5 37q-129 0 -167 -56t-40 -236q28 51 75.5 72t131.5 21q148 0 203.5 -55.5t55.5 -164.5q0 -52 -10.5 -89
t-38 -67.5t-80 -45.5t-130.5 -15zM365 71q75 0 113 15.5t50 44.5t12 86q0 59 -12 88.5t-50 45t-113 15.5q-110 0 -147.5 -34t-37.5 -120q0 -76 38.5 -108.5t146.5 -32.5z" />
    <glyph glyph-name="seven" unicode="7" horiz-adv-x="630" 
d="M58 691h524v-68l-296 -622h-94l304 614h-367q0 -59 -6 -102t-12 -58t-10 -15h-43v251z" />
    <glyph glyph-name="eight" unicode="8" 
d="M350 393h30q163 0 163 113q0 118 -178 118t-178 -118q0 -113 163 -113zM365 67q106 0 153.5 31.5t47.5 97.5q0 65 -40 96.5t-146 31.5h-30q-106 0 -146 -31.5t-40 -96.5q0 -66 47.5 -97.5t153.5 -31.5zM365 -10q-135 0 -209 55.5t-74 150.5q0 144 154 168q-66 13 -98 52
t-32 93q0 94 65.5 143t193.5 49t193.5 -49t65.5 -143q0 -54 -32 -93t-98 -52q154 -24 154 -168q0 -95 -74 -150.5t-209 -55.5z" />
    <glyph glyph-name="nine" unicode="9" horiz-adv-x="707" 
d="M347 701q87 0 140.5 -17.5t84.5 -62.5t41.5 -107.5t10.5 -166.5t-10 -166t-40 -107.5t-84.5 -63.5t-142.5 -18q-246 0 -246 189q0 3 0.5 9t0.5 10h66q8 -61 46.5 -98t132.5 -37q45 0 76 5t55 19t37.5 34t22.5 55t12 76t4 104q-27 -51 -74.5 -72t-132.5 -21
q-148 0 -203.5 55.5t-55.5 163.5q0 52 10.5 89t38 67.5t80 45.5t130.5 15zM347 622q-109 0 -142 -30.5t-33 -115.5q0 -59 12 -88.5t50 -45t113 -15.5q110 0 147.5 34t37.5 120q0 77 -38.5 109t-146.5 32z" />
    <glyph glyph-name="colon" unicode=":" horiz-adv-x="266" 
d="M196 486q0 -36 -12.5 -48t-50.5 -12t-50.5 12t-12.5 48q0 35 12.5 47t50.5 12t50.5 -12t12.5 -47zM196 49q0 -36 -12.5 -48t-50.5 -12t-50.5 12t-12.5 48q0 35 12.5 47t50.5 12t50.5 -12t12.5 -47z" />
    <glyph glyph-name="semicolon" unicode=";" horiz-adv-x="266" 
d="M196 486q0 -36 -12.5 -48t-50.5 -12t-50.5 12t-12.5 48q0 35 12.5 47t50.5 12t50.5 -12t12.5 -47zM193 54q0 -159 -112 -159v44q13 0 31 15t15 45q-31 0 -43 11.5t-12 43.5q0 33 11.5 43.5t48.5 10.5t49 -11t12 -43z" />
    <glyph glyph-name="less" unicode="&#x3c;" horiz-adv-x="402" 
d="M281 119l-225 205l225 202l51 -54l-173 -149l173 -152z" />
    <glyph glyph-name="equal" unicode="=" horiz-adv-x="402" 
d="M362 210h-322v67h322v-67zM362 362h-322v67h322v-67z" />
    <glyph glyph-name="greater" unicode="&#x3e;" horiz-adv-x="402" 
d="M346 328l-225 -205l-51 52l173 152l-173 149l51 54z" />
    <glyph glyph-name="question" unicode="?" horiz-adv-x="536" 
d="M323 49q0 -36 -12.5 -48t-50.5 -12t-50.5 12t-12.5 48q0 35 12.5 47t50.5 12t50.5 -12t12.5 -47zM380 346q-15 -11 -27 -22.5t-20 -20.5t-15 -21.5t-10.5 -19.5t-7.5 -22t-5 -20.5t-4.5 -24t-4.5 -24.5h-51q-14 54 -14 93q0 33 20.5 61.5t49.5 50t58 43.5t49.5 52.5
t20.5 67.5q0 52 -33.5 83t-126.5 31q-42 0 -72 -8.5t-46 -21.5t-25 -35.5t-11 -41.5t-2 -49h-64q-53 232 220 232q71 0 122 -16.5t77 -44.5t37 -58t11 -65q0 -63 -29.5 -106t-96.5 -93z" />
    <glyph glyph-name="at" unicode="@" horiz-adv-x="833" 
d="M591 178h-76v51q-38 -55 -117 -55q-75 0 -104.5 23t-29.5 79q0 30 8 76q19 100 56 137.5t131 37.5q43 0 66 -10t32 -37q4 6 10 16.5t10 16.5l4 6h33l-54 -283h46q53 0 82.5 45.5t29.5 134.5q0 103 -65 173t-193 70q-131 0 -221 -92t-90 -233q0 -127 73.5 -204.5
t206.5 -77.5q78 0 151 21v-65q-63 -22 -161 -22q-162 0 -255 94t-93 247q0 171 115.5 283.5t278.5 112.5q154 0 242 -87.5t88 -215.5q0 -116 -56 -179t-148 -63zM518 352q9 46 9 69q0 25 -16 33t-60 8q-58 0 -77.5 -21t-34.5 -93q-9 -45 -9 -68q0 -26 15.5 -34t59.5 -8
q61 0 79.5 19.5t33.5 94.5z" />
    <glyph glyph-name="A" unicode="A" horiz-adv-x="720" 
d="M725 0h-259v46q0 2 10.5 7.5t32.5 10.5t47 5l-42 136h-309l-44 -136q25 0 47.5 -5t33 -10.5t10.5 -7.5v-46h-257v46q0 2 9.5 7t29 9.5t41.5 5.5l214 644h147l209 -644q22 0 41.5 -5t29 -10t9.5 -7v-46zM492 276l-115 363h-30l-119 -363h264z" />
    <glyph glyph-name="B" unicode="B" horiz-adv-x="716" 
d="M676 203q0 -203 -266 -203h-385v46q0 3 10.5 8t32.5 10t46 5v574q-24 0 -46 5t-32.5 10t-10.5 8v46h356q74 0 126.5 -16t78.5 -43.5t37 -55.5t11 -60q0 -63 -28 -102.5t-96 -55.5q97 -15 131.5 -58.5t34.5 -117.5zM549 528q0 56 -35.5 83t-134.5 27h-183v-231h172
q108 0 144.5 31.5t36.5 89.5zM590 203q0 33 -6.5 54.5t-25 40.5t-55 27.5t-93.5 8.5h-214v-259h214q75 0 115.5 16t52.5 41.5t12 70.5z" />
    <glyph glyph-name="C" unicode="C" horiz-adv-x="704" 
d="M598 195h55q1 -6 1 -19q0 -187 -289 -187q-80 0 -134.5 13t-90.5 38.5t-55.5 72t-27 103.5t-7.5 143q0 106 13 172.5t48.5 113t96 65.5t157.5 19q156 0 213 -74q2 16 6.5 30t8 20.5t5.5 6.5h52v-232h-60q-10 105 -54 138.5t-171 33.5q-53 0 -87.5 -4.5t-61.5 -18
t-41.5 -32t-24 -54.5t-12 -77.5t-2.5 -106.5q0 -67 2.5 -107.5t11.5 -77t23 -55t41 -32.5t62 -18t89 -4q70 0 116.5 10.5t69.5 30.5t33 40t14 49z" />
    <glyph glyph-name="D" unicode="D" horiz-adv-x="733" 
d="M683 359q0 -103 -12 -166t-46.5 -109t-97 -65t-163.5 -19h-339v46q0 3 10.5 8t32.5 10t46 5v574q-24 0 -46 5t-32.5 10t-10.5 8v46h339q101 0 163.5 -18.5t97 -64t46.5 -107.5t12 -163zM597 359q0 62 -2.5 101t-11.5 73t-24 52t-42 31.5t-63 17.5t-90 4h-168v-563h168
q66 0 105 7.5t66.5 23t40 51.5t17 80t4.5 122z" />
    <glyph glyph-name="E" unicode="E" horiz-adv-x="676" 
d="M636 0h-611v46q0 3 10.5 8t32.5 10t46 5v574q-24 0 -46 5t-32.5 10t-10.5 8v46h590v-220h-47q-4 0 -10 14.5t-12 50t-6 81.5h-344v-234h161q0 25 5 47t10 32.5t8 10.5h45v-255h-45q-3 0 -8 11t-10 33.5t-5 47.5h-161v-258h362q0 54 6.5 93.5t12.5 54t10 14.5h49v-235z
" />
    <glyph glyph-name="F" unicode="F" horiz-adv-x="657" 
d="M617 492h-47q-3 0 -9 14.5t-12 50t-6 81.5h-347v-295h180q0 25 5 47t10 32.5t8 10.5h46v-255h-46q-3 0 -8 10.5t-10 33t-5 48.5h-180v-201h32q24 0 46 -5t33 -10t11 -8v-46h-293v46q0 3 10.5 8t32.5 10t46 5v574q-24 0 -46 5t-32.5 10t-10.5 8v46h592v-220z" />
    <glyph glyph-name="G" unicode="G" horiz-adv-x="752" 
d="M722 313q0 -2 -17 -7.5t-35 -9.5l-17 -5v-291h-46q-3 0 -8 10.5t-9.5 32.5t-4.5 46v38q-32 -138 -220 -138q-80 0 -134.5 13t-90.5 38.5t-55.5 72t-27 103.5t-7.5 143t7.5 143t27 103.5t55.5 72t90.5 38.5t134.5 13q156 0 213 -74q2 16 6.5 30t8 20.5t5.5 6.5h52v-232
h-60q-10 105 -54 138.5t-171 33.5q-54 0 -89 -4t-62 -18t-41 -32.5t-23 -54.5t-11.5 -77t-2.5 -107q0 -67 2.5 -107.5t11.5 -77t23 -55t41 -32.5t62 -18t89 -4q55 0 93 11.5t58.5 27.5t32.5 49t15.5 60t6.5 78q-47 0 -80.5 5t-45.5 9.5t-12 7.5v46h289v-46z" />
    <glyph glyph-name="H" unicode="H" horiz-adv-x="771" 
d="M746 0h-261v46q0 3 10.5 8t32.5 10t46 5v262h-378v-262q24 0 46 -5t33 -10t11 -8v-46h-261v46q0 3 10.5 8t32.5 10t46 5v574q-24 0 -46 5t-32.5 10t-10.5 8v46h261v-46q0 -3 -11 -8t-33 -10t-46 -5v-239h378v239q-24 0 -46 5t-32.5 10t-10.5 8v46h261v-46q0 -3 -10.5 -8
t-32.5 -10t-46 -5v-574q24 0 46 -5t32.5 -10t10.5 -8v-46z" />
    <glyph glyph-name="I" unicode="I" horiz-adv-x="311" 
d="M286 0h-261v46q0 3 10.5 8t32.5 10t46 5v574q-24 0 -46 5t-32.5 10t-10.5 8v46h261v-46q0 -3 -11 -8t-33 -10t-46 -5v-574q24 0 46 -5t33 -10t11 -8v-46z" />
    <glyph glyph-name="J" unicode="J" horiz-adv-x="453" 
d="M433 666q0 -3 -10.5 -8t-32.5 -10t-46 -5v-443q0 -113 -35.5 -162t-134.5 -49q-92 0 -128 45.5t-36 122.5q0 69 33 108.5t84 39.5q19 0 33 -3.5t14 -7.5v-47q-51 0 -69 -21.5t-18 -68.5q0 -48 17 -70t70 -22q55 0 71.5 26t16.5 109v443h-32q-24 0 -46 5t-32.5 10t-10.5 8
v46h292v-46z" />
    <glyph glyph-name="K" unicode="K" horiz-adv-x="711" 
d="M700 0h-268v46q0 2 10 7t29 10t39 5l-194 275l-120 -131v-143q24 0 46 -5t33 -10t11 -8v-46h-261v46q0 3 10.5 8t32.5 10t46 5v574q-24 0 -46 5t-32.5 10t-10.5 8v46h261v-46q0 -3 -11 -8t-33 -10t-46 -5v-323l290 324q-19 1 -36 6t-25.5 9.5t-8.5 6.5v46h261v-46
q0 -3 -10.5 -8t-32.5 -10t-46 -5l-218 -240l239 -334q26 0 48.5 -5t32.5 -10t10 -8v-46z" />
    <glyph glyph-name="L" unicode="L" horiz-adv-x="611" 
d="M601 0h-576v46q0 3 10.5 8t32.5 10t46 5v574q-24 0 -46 5t-32.5 10t-10.5 8v46h293v-46q0 -3 -11 -8t-33 -10t-46 -5h-32v-570h327q0 61 6.5 105t12.5 59.5t10 15.5h49v-253z" />
    <glyph glyph-name="M" unicode="M" horiz-adv-x="900" 
d="M875 0h-262v46q0 3 10.5 8t32.5 10t46 5v570h-24l-186 -639h-87l-187 639h-23v-570q24 0 46 -5t33 -10t11 -8v-46h-260v46q0 3 10.5 8t32.5 10t46 5v574q-24 0 -46 5t-32.5 10t-10.5 8v46h255l169 -605l166 605h260v-46q0 -3 -11 -8t-33 -10t-46 -5v-574q24 0 46 -5
t33 -10t11 -8v-46z" />
    <glyph glyph-name="N" unicode="N" horiz-adv-x="767" 
d="M742 666q0 -3 -10.5 -8t-32.5 -10t-46 -5v-643h-152l-286 639h-23v-570q24 0 46 -5t33 -10t11 -8v-46h-257v46q0 3 10.5 8t32.5 10t46 5v574q-24 0 -46 5t-32.5 10t-10.5 8v46h244l283 -639h23v570q-24 0 -45 5t-30.5 10t-9.5 8v46h252v-46z" />
    <glyph glyph-name="O" unicode="O" horiz-adv-x="738" 
d="M688 359q0 -86 -7.5 -143t-27 -103.5t-56 -72t-91.5 -38.5t-137 -13q-101 0 -163.5 19t-97 66t-46.5 112t-12 173t12 173t46.5 112t97 66t163.5 19q82 0 137 -13t91.5 -38.5t56 -72t27 -103.5t7.5 -143zM604 359q0 66 -2.5 107t-11.5 77.5t-24 55t-42.5 32.5t-63.5 18
t-91 4t-90.5 -4t-63 -18t-42.5 -32.5t-24 -55t-11.5 -77.5t-2.5 -107t2.5 -107t11.5 -77.5t24 -55.5t42.5 -32.5t63 -18t90.5 -4.5t91 4.5t63.5 18t42.5 32.5t24 55.5t11.5 77.5t2.5 107z" />
    <glyph glyph-name="P" unicode="P" horiz-adv-x="685" 
d="M660 478q0 -113 -57.5 -173t-209.5 -60h-197v-176h32q24 0 46 -5t33 -10t11 -8v-46h-293v46q0 3 10.5 8t32.5 10t46 5v574q-24 0 -46 5t-32.5 10t-10.5 8v46h368q79 0 133 -16.5t82.5 -49.5t40 -73t11.5 -95zM574 478q0 61 -12 93t-52 49.5t-117 17.5h-197v-319h197
q59 0 94.5 8.5t54.5 29.5t25.5 48t6.5 73z" />
    <glyph glyph-name="Q" unicode="Q" horiz-adv-x="738" 
d="M716 -96q0 -3 -10.5 -8t-32.5 -10t-46 -5t-42 3t-42 13.5t-45.5 34.5t-39.5 62q-43 -5 -89 -5q-101 0 -163.5 19t-97 66t-46.5 112t-12 173t12 173t46.5 112t97 66t163.5 19q82 0 137 -13t91.5 -38.5t56 -72t27 -103.5t7.5 -143q0 -158 -30 -237t-116 -110q35 -62 96 -62
h78v-46zM604 359q0 66 -2.5 107t-11.5 77.5t-24 55t-42.5 32.5t-63.5 18t-91 4t-90.5 -4t-63 -18t-42.5 -32.5t-24 -55t-11.5 -77.5t-2.5 -107t2.5 -107t11.5 -77.5t24 -55.5t42.5 -32.5t63 -18t90.5 -4.5q22 0 56 2l-12 26q-7 15 -12 23t-22.5 16.5t-43.5 8.5h-45v46
q0 3 10 8t31 10t45 5q42 0 70 -23t54 -81l11 -24q58 21 75.5 80.5t17.5 197.5z" />
    <glyph glyph-name="R" unicode="R" horiz-adv-x="736" 
d="M726 102q0 -113 -110 -113q-69 0 -95.5 38.5t-26.5 121.5q0 80 -40.5 111t-156.5 31h-101v-222q24 0 46 -5t33 -10t11 -8v-46h-261v46q0 3 10.5 8t32.5 10t46 5v574q-24 0 -46 5t-32.5 10t-10.5 8v46h356q266 0 266 -210q0 -77 -38 -124.5t-140 -61.5q110 -39 110 -152
v-38q0 -36 7.5 -49t29.5 -13t29.5 13t7.5 49v82h47q3 0 9 -13.5t11.5 -39.5t5.5 -53zM561 502q0 34 -6.5 56t-24.5 41.5t-55 29t-94 9.5h-185v-274h185q108 0 144 34t36 104z" />
    <glyph glyph-name="S" unicode="S" horiz-adv-x="668" 
d="M618 194q0 -45 -12.5 -80t-44 -66.5t-92.5 -48.5t-149 -17q-145 0 -205 77q-2 -17 -6.5 -31t-8.5 -21t-6 -7h-54v241h63q7 -98 51.5 -139t165.5 -41q68 0 111 8t63.5 27t27.5 40.5t7 57.5q0 65 -46 95t-163 30q-145 0 -205 54t-60 155q0 97 67 149t198 52q70 0 118 -22
t71 -54q2 17 6.5 31t8.5 20.5t6 6.5h54v-231h-60q-11 99 -57.5 134.5t-146.5 35.5q-184 0 -184 -122q0 -65 38.5 -97.5t145.5 -32.5q298 0 298 -204z" />
    <glyph glyph-name="T" unicode="T" horiz-adv-x="642" 
d="M612 457l-48 1q-4 0 -10 15.5t-12.5 59.5t-6.5 105h-173v-569q33 0 60 -5t38 -10t11 -8v-46h-300v46q0 3 11 8t38 10t60 5v569h-173q0 -61 -6 -105t-12.5 -59.5t-10.5 -14.5h-48v252h582v-254z" />
    <glyph glyph-name="U" unicode="U" horiz-adv-x="794" 
d="M769 666q0 -3 -10.5 -8t-32.5 -10t-46 -5v-362q0 -72 -12 -122t-42 -90.5t-87 -60t-142 -19.5t-142 19.5t-87 60t-42 90.5t-12 122v362q-24 0 -46 5t-32.5 10t-10.5 8v46h282v-46q0 -3 -10.5 -8t-32.5 -10t-46 -5h-21v-362q0 -123 39.5 -169.5t161.5 -46.5t161.5 46.5
t39.5 169.5v362h-21q-24 0 -46 5t-32.5 10t-10.5 8v46h280v-46z" />
    <glyph glyph-name="V" unicode="V" horiz-adv-x="717" 
d="M722 666q0 -3 -9.5 -8t-29 -9.5t-41.5 -5.5l-213 -643h-139l-215 643q-22 1 -41.5 5.5t-29 9.5t-9.5 8v46h261v-46q0 -3 -10.5 -8t-32.5 -10t-47 -5l185 -570h18l183 570q-24 0 -46 5t-33 10t-11 8v46h260v-46z" />
    <glyph glyph-name="W" unicode="W" horiz-adv-x="1022" 
d="M1022 666q0 -3 -9.5 -8t-29 -9.5t-41.5 -5.5l-171 -643h-139l-114 480l-128 -480h-141l-169 643q-22 1 -41.5 5.5t-29 9.5t-9.5 8v46h260v-46q0 -3 -10.5 -8t-32.5 -10t-47 -5l141 -570h18l147 546l-6 24q-22 0 -42.5 5t-30.5 10t-10 8v46h251v-46q0 -3 -10 -8t-30.5 -10
t-43.5 -5l139 -570h18l140 570q-24 0 -46 5t-32.5 10t-10.5 8v46h260v-46z" />
    <glyph glyph-name="X" unicode="X" horiz-adv-x="684" 
d="M689 0h-262v46q0 2 9 7t27.5 9.5t39.5 5.5l-165 239l-165 -239q22 -1 41.5 -5.5t29.5 -9.5t10 -8v-45h-259v46q0 2 9.5 7t30 10t42.5 5l210 301l-192 274q-23 0 -43.5 5t-30.5 10t-10 8v46h258v-46q0 -3 -9 -7.5t-27 -9.5t-39 -6l149 -216l146 216q-21 1 -39 6t-27 9.5
t-9 7.5v45h256v-46q0 -2 -10 -7t-30.5 -10t-43.5 -5l-193 -276l211 -299q23 0 44 -5t31 -10t10 -7v-46z" />
    <glyph glyph-name="Y" unicode="Y" horiz-adv-x="717" 
d="M722 666q0 -3 -11 -8t-33 -10t-46 -5l-233 -397v-177q33 0 60 -5t38 -10t11 -8v-46h-300v46q0 3 11 8t38 10t60 5v181l-233 393q-24 0 -46 5t-32.5 10t-10.5 8v46h261v-46q0 -3 -9 -7.5t-27 -9t-38 -5.5l178 -310l177 309q-21 1 -39.5 6t-27.5 9.5t-9 7.5v46h261v-46z
" />
    <glyph glyph-name="Z" unicode="Z" horiz-adv-x="629" 
d="M599 0h-574v46l439 592h-341q0 -46 -6 -81.5t-12 -50t-10 -14.5h-47v220h538v-46l-439 -593h374q0 58 6 101.5t12.5 60t10.5 16.5h49v-251z" />
    <glyph glyph-name="bracketleft" unicode="[" horiz-adv-x="329" 
d="M279 -158h-168v887h168v-44q0 -3 -11 -8t-33 -10t-46 -5v-753q24 0 46 -5t33 -10t11 -8v-44z" />
    <glyph glyph-name="backslash" unicode="\" horiz-adv-x="346" 
d="M336 0h-80l-246 712h89z" />
    <glyph glyph-name="bracketright" unicode="]" horiz-adv-x="329" 
d="M218 -158h-168v44q0 3 11 8t33 10t46 5v753q-24 0 -46 5t-33 10t-11 8v44h168v-887z" />
    <glyph glyph-name="asciicircum" unicode="^" horiz-adv-x="548" 
d="M498 375h-91l-139 261l-133 -261h-85l184 332h72z" />
    <glyph glyph-name="underscore" unicode="_" horiz-adv-x="642" 
d="M647 -166h-652v67h652v-67z" />
    <glyph glyph-name="grave" unicode="`" horiz-adv-x="620" 
d="M299 621l-75 175h85l51 -175h-61z" />
    <glyph glyph-name="a" unicode="a" horiz-adv-x="627" 
d="M612 21q0 -3 -13.5 -8t-44.5 -10.5t-67 -5.5h-15l-3 68q-42 -76 -182 -76q-72 0 -120.5 13t-73 38t-34 53t-9.5 66q0 30 5 52t20 43.5t40.5 35t68.5 22t103 8.5h160q-2 99 -30 129.5t-122 30.5q-81 0 -108 -18.5t-33 -69.5h-65v147h57q4 -8 12 -35q32 49 137 49
q73 0 118 -14.5t70 -50.5t34 -86t9 -131v-204h86v-46zM450 159v96h-163q-96 0 -127.5 -23t-31.5 -73q0 -37 9.5 -55.5t44.5 -30t105 -11.5q73 0 109 11.5t45 30t9 55.5z" />
    <glyph glyph-name="b" unicode="b" horiz-adv-x="651" 
d="M586 271q0 -81 -9.5 -130.5t-36 -86t-75 -51t-126.5 -14.5q-79 0 -122.5 24t-63.5 78q-2 -27 -7 -49t-9.5 -32t-6.5 -10h-34v668h-86v46q0 3 13.5 8t44.5 10.5t67 5.5h38v-248q46 63 166 63q78 0 126.5 -14.5t75 -51t36 -86t9.5 -130.5zM508 271q0 48 -1.5 77t-8 55.5
t-17 39t-30.5 22t-46 12.5t-66 3q-48 0 -76.5 -5.5t-48.5 -16.5t-29 -37.5t-12 -59t-3 -90.5t3 -90.5t12 -59t29 -37.5t48.5 -16.5t76.5 -5.5q40 0 66 2.5t46 12.5t30.5 22.5t17 38.5t8 55t1.5 78z" />
    <glyph glyph-name="c" unicode="c" horiz-adv-x="609" 
d="M534 156q0 -24 -1 -37t-7 -36t-20 -37t-37 -28.5t-63 -21.5t-93 -7q-79 0 -127 14.5t-75 51t-36.5 86t-9.5 130.5q0 65 6 108t21 78.5t43.5 55.5t71.5 30t106 10q112 0 159 -51q6 28 12 37h50v-182h-55q-3 50 -14 73.5t-46 36.5t-106 13q-41 0 -67 -3t-46 -12.5
t-30.5 -22t-17 -39t-8 -55.5t-1.5 -77q0 -49 1.5 -78t8 -55t17 -38.5t30.5 -22.5t46 -12.5t67 -2.5q45 0 76 5t47.5 11.5t27 21t13.5 25t7 31.5h50z" />
    <glyph glyph-name="d" unicode="d" horiz-adv-x="656" 
d="M641 21q0 -3 -13.5 -8t-44 -10.5t-66.5 -5.5h-15l-4 94q-19 -54 -63 -78t-123 -24q-78 0 -126.5 14.5t-75 51t-36 86t-9.5 130.5t9.5 130.5t36 86t75 51t126.5 14.5q122 0 166 -63v178h-86v46q0 3 13.5 8t44 10.5t67.5 5.5h38v-671h86v-46zM481 271q0 58 -3 90.5t-12 59
t-29 37.5t-48.5 16.5t-76.5 5.5q-40 0 -66 -2.5t-46 -12.5t-30.5 -22.5t-17 -38.5t-8 -55t-1.5 -78t1.5 -78t8 -55t17 -38.5t30.5 -22.5t46 -12.5t66 -2.5q48 0 76.5 5.5t48.5 16.5t29 37.5t12 59t3 90.5z" />
    <glyph glyph-name="e" unicode="e" horiz-adv-x="612" 
d="M548 316l-2 -61h-407q0 -65 6 -100t26 -57.5t52.5 -29t92.5 -6.5q53 0 87 6.5t51.5 20.5t24.5 28.5t11 38.5h50q0 -27 -2 -44.5t-14.5 -43t-34.5 -41t-66.5 -27t-106.5 -11.5q-80 0 -129 14.5t-76 51t-36.5 85.5t-9.5 131q0 81 9.5 131t36 86t74 50.5t124.5 14.5
q138 0 188.5 -58t50.5 -179zM142 321h332q0 96 -34 128.5t-131 32.5q-101 0 -132 -30t-35 -131z" />
    <glyph glyph-name="f" unicode="f" horiz-adv-x="337" 
d="M116 573q0 42 7.5 73t22.5 49.5t30 30t37.5 16t36 5.5t35.5 1v-50q-47 -6 -69.5 -32t-22.5 -93v-34h124v-64h-124v-406q22 0 43 -5t32 -10t11 -8v-46h-249v46q0 3 11 8t32 10t43 5v406h-86v44q0 2 9 6.5t30 9.5t47 7v31z" />
    <glyph glyph-name="g" unicode="g" horiz-adv-x="651" 
d="M621 604q0 -68 -17 -110t-59 -65q8 -32 8 -81q0 -53 -9 -88t-34.5 -63t-73 -40.5t-121.5 -12.5q-106 0 -161 29q-16 -16 -16 -45q0 -11 4 -20t18 -19t38 -16.5t67 -11t102 -4.5q80 0 131.5 -8.5t76 -27t32.5 -39.5t8 -53q0 -26 -4.5 -43.5t-21 -36t-46 -29t-82.5 -17.5
t-128 -7q-91 0 -151 9.5t-87 28.5t-36 37.5t-9 45.5q0 22 3.5 36.5t14.5 30t36.5 24.5t65.5 11q-88 18 -88 104q0 21 11.5 43.5t25.5 32.5q-41 45 -41 149q0 53 9 88t34 63t72.5 41t121.5 13q165 0 211 -75q25 15 25 55v81h70v-10zM479 348q0 45 -4.5 68t-22 40.5t-49 23
t-88.5 5.5q-75 0 -109 -13t-44 -39t-10 -85q0 -44 4.5 -67t21.5 -40.5t48.5 -23t88.5 -5.5t88.5 5.5t49 23t22 40.5t4.5 67zM542 -76q0 26 -11.5 37.5t-57 18.5t-142.5 7t-142.5 -7t-57 -18.5t-11.5 -37.5t11.5 -37.5t57 -18.5t142.5 -7t142.5 7t57 18.5t11.5 37.5z" />
    <glyph glyph-name="h" unicode="h" horiz-adv-x="686" 
d="M671 0h-249v46q0 3 11 8t32 10t43 5v205q0 57 -3 89t-11.5 58t-27 37t-45.5 16.5t-72 5.5q-84 0 -122.5 -54t-38.5 -142v-215q22 0 43 -5t32 -10t11 -8v-46h-249v46q0 3 11 8t32 10t43 5v599h-86v46q0 3 13.5 8t44.5 10.5t67 5.5h38v-298q43 113 177 113q130 0 175.5 -63
t45.5 -216v-205q22 0 43 -5t31.5 -10t10.5 -8v-46z" />
    <glyph glyph-name="i" unicode="i" horiz-adv-x="299" 
d="M205 674q0 -32 -9 -40.5t-44 -8.5t-44 8.5t-9 40.5t9 41t44 9t44 -9t9 -41zM279 0h-249v46q0 3 11 8t32 10t43 5v404h-86v46q0 3 13.5 8.5t44.5 10.5t67 5h38v-474q22 0 43 -5t32 -10t11 -8v-46z" />
    <glyph glyph-name="j" unicode="j" horiz-adv-x="292" 
d="M201 674q0 -32 -9 -40.5t-44 -8.5t-44 8.5t-9 40.5t9 41t44 9t44 -9t9 -41zM190 -30q0 -49 -12.5 -84t-28 -52.5t-42.5 -26.5t-44 -10.5t-43 -1.5v50q47 7 69.5 33t22.5 92v503h-86v46q0 3 13.5 8.5t44.5 10.5t67 5h39v-573z" />
    <glyph glyph-name="k" unicode="k" horiz-adv-x="610" 
d="M605 0h-235v46q0 2 7.5 6t22 8.5t30.5 6.5l-155 191l-87 -81v-108q22 0 43 -5t32 -10t11 -8v-46h-249v46q0 3 11 8t32 10t43 5v599h-86v46q0 3 12 8t39 10.5t59 5.5h53v-474l202 207q-18 1 -33.5 6t-22.5 9.5t-7 6.5v46h240v-46q0 -3 -10.5 -8t-30 -10t-39.5 -5
l-159 -160l200 -242q20 -1 39 -5.5t28.5 -9.5t9.5 -7v-46z" />
    <glyph glyph-name="l" unicode="l" horiz-adv-x="294" 
d="M274 0h-249v46q0 3 11 8t32 10t43 5v599h-86v46q0 3 13.5 8t44.5 10.5t67 5.5h38v-669q22 0 43 -5t32 -10t11 -8v-46z" />
    <glyph glyph-name="m" unicode="m" horiz-adv-x="956" 
d="M941 0h-241v46q0 3 9 8t28 10t41 5v205q0 132 -22 169t-103 37t-106.5 -42t-25.5 -164v-205q22 0 43 -5t31.5 -10t10.5 -8v-46h-233v46q0 3 8.5 8t25.5 10t36 5v205q0 132 -22 169t-103 37q-75 0 -100 -36.5t-25 -148.5v-226q22 0 43 -5t32 -10t11 -8v-46h-249v46
q0 3 11 8t32 10t43 5v205l-6 199h-80v46q0 3 13.5 8.5t44.5 10.5t67 5h14l4 -100q33 110 145 110q75 0 117.5 -23.5t62.5 -74.5q42 98 155 98q120 0 161.5 -61.5t41.5 -217.5v-205q22 0 43 -5t31.5 -10t10.5 -8v-46z" />
    <glyph glyph-name="n" unicode="n" horiz-adv-x="684" 
d="M669 0h-241v46q0 3 8.5 8t27.5 10t41 5v205q0 71 -4 107t-21.5 61t-46 31.5t-83.5 6.5q-44 0 -70.5 -5.5t-45 -16.5t-27 -37t-11.5 -58t-3 -89v-205q22 0 43 -5t32 -10t11 -8v-46h-249v46q0 3 11 8t32 10t43 5v205q0 46 -2 95.5t-4 76.5l-1 27h-79v46q0 3 13.5 8.5
t44.5 10.5t67 5h14l4 -100q18 58 59.5 84t117.5 26q73 0 118.5 -14.5t71 -50.5t34.5 -85t9 -129v-205q22 0 43 -5t32 -10t11 -8v-46z" />
    <glyph glyph-name="o" unicode="o" horiz-adv-x="630" 
d="M565 271q0 -82 -9.5 -131t-36.5 -85.5t-76 -51t-128 -14.5t-128 14.5t-76 51t-36.5 85.5t-9.5 131t9.5 131t36.5 85.5t76 51t128 14.5t128 -14.5t76 -51t36.5 -85.5t9.5 -131zM488 271q0 49 -1.5 78t-8.5 55t-17.5 39t-31 22.5t-47 12.5t-67.5 3t-67.5 -3t-47 -12.5
t-31 -22.5t-17.5 -39t-8.5 -55t-1.5 -78t1.5 -78t8.5 -55.5t17.5 -39t31 -22.5t47 -12.5t67.5 -2.5t67.5 2.5t47 12.5t31 22.5t17.5 39t8.5 55.5t1.5 78z" />
    <glyph glyph-name="p" unicode="p" horiz-adv-x="661" 
d="M596 271q0 -81 -9.5 -130.5t-36 -86t-75 -51t-126.5 -14.5q-120 0 -166 62v-180q22 0 43 -5t32 -10t11 -8v-46h-249v46q0 3 11 8t32 10t43 5v403l-6 199h-80v46q0 3 13.5 8.5t44.5 10.5t67 5h15l3 -92q19 54 63 78t123 24q78 0 126.5 -14.5t75 -51t36 -86t9.5 -130.5z
M518 271q0 48 -1.5 77t-8 55.5t-17 39t-30.5 22t-46 12.5t-66 3q-48 0 -76.5 -5.5t-48.5 -16.5t-29 -37.5t-12 -59t-3 -90.5t3 -90.5t12 -59t29 -37.5t48.5 -16.5t76.5 -5.5q40 0 66 2.5t46 12.5t30.5 22.5t17 38.5t8 55t1.5 78z" />
    <glyph glyph-name="q" unicode="q" horiz-adv-x="656" 
d="M641 -196h-249v46q0 2 11 7t32 10t43 5v179q-45 -62 -166 -62q-78 0 -126.5 14.5t-75 51t-36 86t-9.5 130.5t9.5 130.5t36 86t75 51t126.5 14.5q79 0 123 -24t63 -79q2 27 7 48.5t9.5 31t6.5 9.5h34v-667q22 0 43.5 -5t32 -10t10.5 -7v-46zM481 271q0 58 -3 90.5t-12 59
t-29 37.5t-48.5 16.5t-76.5 5.5q-40 0 -66 -3t-46 -12.5t-30.5 -22t-17 -39t-8 -55.5t-1.5 -77q0 -49 1.5 -78t8 -55t17 -38.5t30.5 -22.5t46 -12.5t66 -2.5q48 0 76.5 5.5t48.5 16.5t29 37.5t12 59t3 90.5z" />
    <glyph glyph-name="r" unicode="r" horiz-adv-x="458" 
d="M433 413h-34q-6 32 -24.5 44.5t-54.5 12.5q-70 0 -98.5 -40.5t-28.5 -151.5v-209q27 0 52 -5t37.5 -10t12.5 -8v-46h-265v46q0 3 11 8t32 10t43 5v205q0 46 -2 95.5t-4 76.5l-1 27h-79v46q0 3 13.5 8.5t44.5 10.5t67 5h15l4 -119q26 120 172 120q39 0 87 -9v-122z" />
    <glyph glyph-name="s" unicode="s" horiz-adv-x="610" 
d="M545 151q0 -74 -50.5 -118t-186.5 -44q-128 0 -175 53q-7 -32 -15 -42h-48v185h55q3 -70 42 -97.5t141 -27.5q96 0 128.5 21.5t32.5 69.5q0 47 -32.5 68t-128.5 21q-70 0 -118.5 12.5t-72 36t-33 48.5t-9.5 58t9.5 59t33.5 49.5t72 36.5t118 13q101 0 148 -50q7 28 12 36
h50v-182h-55q-3 51 -12.5 74.5t-42.5 37t-100 13.5q-51 0 -83.5 -5.5t-48 -18.5t-20.5 -27t-5 -36q0 -45 29.5 -65t127.5 -20q71 0 120 -12.5t73.5 -36t34 -49.5t9.5 -61z" />
    <glyph glyph-name="t" unicode="t" horiz-adv-x="376" 
d="M341 122q0 -66 -27.5 -99.5t-93.5 -33.5q-68 0 -94.5 33.5t-26.5 99.5v353h-79v44q0 2 8.5 6t28 9t42.5 7v142h78v-144h158v-64h-158v-355q0 -36 9 -48t38 -12t38 12t9 48v127h46q3 0 8 -13.5t10.5 -44.5t5.5 -67z" />
    <glyph glyph-name="u" unicode="u" horiz-adv-x="666" 
d="M646 21q0 -3 -13.5 -8t-44 -10.5t-66.5 -5.5h-15l-4 100q-17 -57 -57.5 -82.5t-112.5 -25.5t-116 14t-69 49t-33.5 84.5t-8.5 131.5v205h-86v46q0 3 13.5 8.5t44.5 10.5t67 5h38v-275q0 -133 25.5 -169.5t124.5 -36.5t124.5 36.5t25.5 169.5v205h-90v46q0 3 13.5 8.5
t44 10.5t66.5 5h44v-476h85v-46z" />
    <glyph glyph-name="v" unicode="v" horiz-adv-x="578" 
d="M583 493q0 -3 -9 -7.5t-26 -9.5t-35 -6l-163 -470h-122l-163 470q-18 1 -35 6t-26 9.5t-9 7.5v46h219v-46q0 -3 -8 -8t-24.5 -9.5t-36.5 -5.5l136 -404h17l135 404q-20 1 -36.5 5.5t-24.5 9.5t-8 8v46h219v-46z" />
    <glyph glyph-name="w" unicode="w" horiz-adv-x="873" 
d="M878 492q0 -2 -9 -6.5t-26 -9.5t-34 -6l-141 -470h-125l-107 379l-107 -379h-124l-141 471q-17 1 -34 5.5t-26 9.5t-9 7v46h222v-46q0 -3 -8 -8t-25.5 -9.5t-37.5 -5.5l115 -404h16l132 474h53l134 -475h17l113 405q-20 0 -37 5t-25 10t-8 7v46h222v-46z" />
    <glyph glyph-name="x" unicode="x" horiz-adv-x="542" 
d="M542 0h-213v46q0 2 7.5 6.5t20.5 9t26 5.5l-115 155l-114 -155q13 -2 25.5 -6.5t19.5 -8.5t7 -6v-46h-206v46q0 2 10 7t26.5 9.5t31.5 5.5l162 207l-152 196q-16 1 -32 5.5t-25.5 9.5t-9.5 7v46h213v-46q0 -2 -7 -6t-20 -8.5t-26 -6.5l105 -141l107 141q-13 2 -26.5 6.5
t-21 8.5t-7.5 6v46h209l-3 -46q0 -2 -9.5 -7t-26 -9.5t-31.5 -5.5l-153 -195l160 -208q16 -1 32.5 -5.5t26 -9.5t9.5 -7v-46z" />
    <glyph glyph-name="y" unicode="y" horiz-adv-x="578" 
d="M583 493q0 -3 -9 -7.5t-26 -9.5t-35 -6l-206 -586q-7 -19 -12.5 -30t-19 -28.5t-37.5 -26.5t-57 -9q-64 0 -91.5 32t-27.5 92v11h50q6 -40 18.5 -53.5t44.5 -13.5t45 12t25 45l31 85h-48l-163 470q-18 1 -35 6t-26 9.5t-9 7.5v46h219v-46q0 -3 -8 -8t-24.5 -9.5
t-36.5 -5.5l136 -405h16l136 405q-20 1 -36.5 5.5t-24.5 9.5t-8 8v46h219v-46z" />
    <glyph glyph-name="z" unicode="z" horiz-adv-x="552" 
d="M502 0h-452v69l345 401h-264q-1 -32 -6.5 -59t-10.5 -39t-8 -12h-46v179h435v-69l-343 -401h280q1 32 6 59t10 39t8 12h46v-179z" />
    <glyph glyph-name="braceleft" unicode="{" horiz-adv-x="385" 
d="M213 444v-24q0 -113 -91 -125q45 -4 68 -37t23 -90v-42q0 -71 10.5 -118.5t31.5 -71t41 -33.5t49 -14v-55q-5 -2 -19 -2q-189 0 -189 297v41q0 50 -21.5 71t-75.5 23v60q55 3 75.5 22t20.5 71v27q0 294 190 294l19 -2v-55q-29 -4 -49 -14t-41 -33.5t-31.5 -71
t-10.5 -118.5z" />
    <glyph glyph-name="bar" unicode="|" horiz-adv-x="282" 
d="M182 -196h-82v1074h82v-1074z" />
    <glyph glyph-name="braceright" unicode="}" horiz-adv-x="385" 
d="M172 126v42q0 113 91 125q-45 4 -68 37t-23 90v24q0 71 -10.5 118.5t-31.5 71t-41 33.5t-49 14v55q5 2 19 2q189 0 189 -297v-23q0 -50 21.5 -71t75.5 -23v-60q-55 -3 -75.5 -22t-20.5 -71v-45q0 -294 -190 -294l-19 2v55q29 4 49 14t41 33.5t31.5 71t10.5 118.5z" />
    <glyph glyph-name="asciitilde" unicode="~" horiz-adv-x="548" 
d="M368 229q-42 0 -112 47q-49 35 -76 35q-15 0 -26.5 -6.5t-17.5 -13.5t-11 -21t-6.5 -20.5t-3.5 -19.5h-69q25 158 141 158q42 0 112 -47q49 -35 76 -35q15 0 26.5 6.5t17.5 13.5t11 21t6.5 20.5t3.5 19.5h69q-25 -158 -141 -158z" />
    <glyph glyph-name="uni00A0" unicode="&#xa0;" horiz-adv-x="200" 
 />
    <glyph glyph-name="exclamdown" unicode="&#xa1;" horiz-adv-x="266" 
d="M183 -132q0 -28 -10 -37.5t-40 -9.5t-40 9.5t-10 37.5l25 501h51q24 -464 24 -501zM196 491q0 -35 -12.5 -47t-50.5 -12t-50.5 12t-12.5 47q0 36 12.5 48t50.5 12t50.5 -12t12.5 -48z" />
    <glyph glyph-name="cent" unicode="&#xa2;" 
d="M411 -118h-72v108q-127 7 -168.5 68.5t-41.5 212.5t41.5 212.5t168.5 68.5v121h72v-121q85 -7 125 -50q6 28 12 37h50v-182h-55q-4 67 -28 92.5t-104 29.5v-417q43 2 70 9t40.5 22t18 27t8.5 36h50q0 -27 -1.5 -42.5t-11 -41t-28 -40t-55.5 -27t-91 -15.5v-108zM207 271
q0 -126 22.5 -165t109.5 -43v416q-87 -4 -109.5 -43t-22.5 -165z" />
    <glyph glyph-name="sterling" unicode="&#xa3;" 
d="M379 621q-48 0 -69 -23t-21 -72q0 -21 12 -141h136v-67h-127q5 -70 5 -91q0 -125 -84 -154h326q0 61 6.5 99.5t12 48t10.5 9.5h49v-230h-563v46q0 8 24.5 18t54 22t54 45.5t24.5 82.5q0 36 -6 104h-109v67h99q-1 22 -7.5 71t-6.5 72q0 172 176 172q41 0 74 -18.5
t50 -47.5q2 16 6.5 30t8 20.5t5.5 6.5h52v-213h-60q-12 86 -44 114.5t-88 28.5z" />
    <glyph glyph-name="currency" unicode="&#xa4;" 
d="M641 551l-76 -75q24 -47 24 -146t-24 -146l76 -75l-53 -53l-76 76q-48 -24 -148 -24q-102 0 -149 24l-76 -76l-53 53l76 75q-23 45 -23 146q0 100 23 145l-76 76l53 53l75 -76q50 25 150 25q99 0 148 -25l76 76zM509 330q0 34 -1.5 54.5t-7 38.5t-14.5 27t-26 16t-39.5 9
t-56.5 2q-41 0 -66 -4t-42 -11.5t-24.5 -26.5t-10.5 -41.5t-3 -63.5q0 -51 4 -76t20 -43t43 -22.5t79 -4.5q97 0 121 25.5t24 120.5z" />
    <glyph glyph-name="yen" unicode="&#xa5;" horiz-adv-x="717" 
d="M133 376v71h67l-94 177q-23 0 -44 5t-31.5 10t-10.5 7v45h253v-45q0 -2 -8.5 -6.5t-26 -9t-37.5 -5.5l148 -301l147 300q-21 1 -39 6t-26.5 9.5t-8.5 6.5v45h253v-45q0 -2 -10.5 -7t-32 -10t-44.5 -5l-93 -177h69v-71h-106l-27 -52h133v-71h-170l-7 -14v-172q32 0 58 -5
t37 -9.5t11 -7.5v-45h-291v45q0 3 11 7.5t37 9.5t58 5v176l-6 10h-169v71h132l-28 52h-104z" />
    <glyph glyph-name="brokenbar" unicode="&#xa6;" horiz-adv-x="282" 
d="M182 -196h-82v417h82v-417zM182 460h-82v417h82v-417z" />
    <glyph glyph-name="section" unicode="&#xa7;" 
d="M606 272q0 -103 -86 -149q66 -42 66 -127q0 -78 -56 -127.5t-175 -49.5q-77 0 -130 13t-91 51l42 49q57 -34 179 -34q75 0 112.5 25.5t37.5 70.5q0 41 -34.5 65.5t-123.5 30.5q-107 8 -165 42t-58 116q0 105 86 148q-66 42 -66 128q0 78 56 127.5t175 49.5
q74 0 119.5 -13t83.5 -51l-42 -49q-33 20 -68 27t-93 7q-75 0 -112.5 -25.5t-37.5 -70.5q0 -41 34.5 -65.5t123.5 -30.5q107 -8 165 -42t58 -116zM363 165q70 -5 112 -21q50 40 50 116q0 47 -33 67.5t-125 27.5q-67 5 -113 20q-49 -40 -49 -115q0 -47 33 -67.5t125 -27.5z
" />
    <glyph glyph-name="dieresis" unicode="&#xa8;" horiz-adv-x="620" 
d="M449 691q0 -32 -9 -40.5t-44 -8.5t-44 8.5t-9 40.5t9 41t44 9t44 -9t9 -41zM277 691q0 -32 -9 -40.5t-44 -8.5t-44 8.5t-9 40.5t9 41t44 9t44 -9t9 -41z" />
    <glyph glyph-name="copyright" unicode="&#xa9;" horiz-adv-x="812" 
d="M766 342q0 -102 -13 -163.5t-52 -107t-109.5 -63.5t-185.5 -18t-185.5 18t-109.5 63.5t-52 107t-13 163.5q0 104 13 166.5t52 109t109.5 65t185.5 18.5q77 0 133 -8.5t96.5 -28t65.5 -46t39.5 -69t20 -91t5.5 -116.5zM687 342q0 70 -2.5 111t-13.5 77.5t-27.5 52.5
t-51 28.5t-76 15.5t-110.5 3t-111 -3t-77 -15t-51.5 -29t-28.5 -53t-14.5 -77t-2.5 -111q0 -66 3 -106t14 -76t28.5 -53.5t51 -31t77.5 -17.5t111 -4t110.5 4t76.5 17.5t50 31t28 54t13.5 76t2.5 105.5zM532 266h51q3 -10 3 -21q0 -110 -179 -110q-119 0 -158.5 44.5
t-39.5 162.5q0 116 41 161.5t157 45.5q75 0 118 -28q7 19 17 19h42v-145h-58q-4 53 -28 69t-91 16q-80 0 -101 -24t-21 -114q0 -91 20.5 -115t101.5 -24q70 0 95 16t30 47z" />
    <glyph glyph-name="ordfeminine" unicode="&#xaa;" horiz-adv-x="627" 
d="M355 458v-29q0 -2 -8 -6t-25.5 -8t-38.5 -4h-13l-2 28q-28 -33 -93 -33q-76 0 -104.5 26t-28.5 71q0 44 27 68t106 24h82q-2 49 -16 63t-62 14q-41 0 -55 -10t-18 -38h-43v88h41q2 -6 3 -13q20 22 72 22q78 0 104 -34.5t26 -122.5v-106h46zM258 503v47h-83
q-49 0 -65 -11.5t-16 -35.5q0 -27 15 -37.5t66 -10.5q53 0 68 10.5t15 37.5z" />
    <glyph glyph-name="guillemotleft" unicode="&#xab;" horiz-adv-x="433" 
d="M329 284l-124 131v76l208 -184v-45l-208 -184v77zM154 284l-124 131v76l208 -184v-45l-208 -184v77z" />
    <glyph glyph-name="logicalnot" unicode="&#xac;" horiz-adv-x="420" 
d="M362 353l1 -195h-79v128h-244v67h322z" />
    <glyph glyph-name="uni00AD" unicode="&#xad;" horiz-adv-x="293" 
d="M273 286h-253v67h253v-67z" />
    <glyph glyph-name="registered" unicode="&#xae;" horiz-adv-x="833" 
d="M766 342q0 -102 -13 -163.5t-52 -107t-109.5 -63.5t-185.5 -18t-185.5 18t-109.5 63.5t-52 107t-13 163.5q0 104 13 166.5t52 109t109.5 65t185.5 18.5q77 0 133 -8.5t96.5 -28t65.5 -46t39.5 -69t20 -91t5.5 -116.5zM687 342q0 70 -2.5 111t-13.5 77.5t-27.5 52.5
t-51 28.5t-76 15.5t-110.5 3t-111 -3t-77 -15t-51.5 -29t-28.5 -53t-14.5 -77t-2.5 -111q0 -66 3 -106t14 -76t28.5 -53.5t51 -31t77.5 -17.5t111 -4t110.5 4t76.5 17.5t50 31t28 54t13.5 76t2.5 105.5zM515 420q0 -30 -18 -45t-70 -15h-92v117h92q52 0 70 -14.5t18 -42.5z
M634 204h-58q-5 0 -5 20v19q0 31 -12 48.5t-47 28.5q82 18 82 100q0 122 -167 122h-220v-38q0 -3 5.5 -8t18 -10.5t27.5 -6.5v-274q-14 -2 -26.5 -7t-18.5 -9.5t-6 -6.5v-38h180v38q0 2 -6 6.5t-19 9.5t-27 7v90h43q61 0 86.5 -13t25.5 -47q0 -49 19 -73t67 -24
q18 0 32.5 6.5t20 13t5.5 9.5v37z" />
    <glyph glyph-name="macron" unicode="&#xaf;" horiz-adv-x="620" 
d="M444 662h-269v67h269v-67z" />
    <glyph glyph-name="degree" unicode="&#xb0;" horiz-adv-x="526" 
d="M426 544q0 -86 -32 -118.5t-131 -32.5q-100 0 -131.5 32.5t-31.5 118.5q0 87 32 120.5t131 33.5t131 -33.5t32 -120.5zM350 544q0 57 -14 70.5t-73 13.5q-60 0 -74.5 -13.5t-14.5 -70.5q0 -54 15 -69t74 -15t73 14.5t14 69.5z" />
    <glyph glyph-name="plusminus" unicode="&#xb1;" horiz-adv-x="402" 
d="M362 286h-124v-128h-79v128h-119v67h119v127h79v-127h124v-67zM362 0h-322v67h322v-67z" />
    <glyph glyph-name="twosuperior" unicode="&#xb2;" horiz-adv-x="422" 
d="M208 643q-50 0 -69 -19t-25 -52h-43l-1 5v9q0 108 138 108q71 0 107.5 -32t36.5 -91q0 -55 -32 -84t-94 -43q-59 -13 -85.5 -32t-26.5 -62h190q0 21 4.5 38t8.5 25t7 8h27v-117h-291v50q0 30 10.5 53t24 36.5t38 25t40 15.5t42.5 11q46 12 65.5 28.5t19.5 47.5
q0 72 -92 72z" />
    <glyph glyph-name="threesuperior" unicode="&#xb3;" horiz-adv-x="407" 
d="M165 479v47h36q83 0 83 56q0 61 -91 61q-50 0 -69 -19.5t-23 -52.5h-44q-2 9 -2 15q0 108 138 108q144 0 144 -110q0 -63 -54 -79q64 -21 64 -92q0 -54 -41 -85.5t-116 -31.5q-140 0 -140 108v15h45q8 -72 95 -72q55 0 79.5 16t24.5 50q0 33 -19.5 49.5t-73.5 16.5h-36z
" />
    <glyph glyph-name="acute" unicode="&#xb4;" horiz-adv-x="620" 
d="M398 796l-75 -175h-63l51 175h87z" />
    <glyph glyph-name="mu" unicode="&#xb5;" 
d="M124 -129l-1 602h-86v46q0 3 13.5 8.5t44.5 10.5t67 5h38v-272q0 -58 3 -90.5t12 -59t29 -37.5t48.5 -16.5t76.5 -5.5q99 0 124.5 36.5t25.5 169.5v205h-90v46q0 3 13.5 8.5t44 10.5t66.5 5h44v-476h85v-46q0 -3 -13.5 -8t-44 -10.5t-66.5 -5.5h-15l-4 100
q-17 -57 -57.5 -82.5t-112.5 -25.5q-120 0 -166 62v-180q22 0 43 -5t32 -10t11 -8v-46h-251v46q0 3 11 8t32 10t43 5z" />
    <glyph glyph-name="paragraph" unicode="&#xb6;" horiz-adv-x="712" 
d="M562 -198h-82v841h-85v-841h-82v493h-25q-136 0 -187 54t-51 154q0 102 51 155.5t187 53.5h364v-46q0 -3 -11 -8t-33 -10t-46 -5v-841z" />
    <glyph glyph-name="periodcentered" unicode="&#xb7;" horiz-adv-x="266" 
d="M196 335q0 -36 -12.5 -48t-50.5 -12t-50.5 12t-12.5 48q0 35 12.5 47t50.5 12t50.5 -12t12.5 -47z" />
    <glyph glyph-name="cedilla" unicode="&#xb8;" horiz-adv-x="620" 
d="M178 -176h59q2 -13 11.5 -17.5t45.5 -4.5q40 0 49 5.5t9 34.5t-9.5 35.5t-48.5 6.5h-70v46l57 75h67l-54 -67q78 0 102.5 -20.5t24.5 -75.5q0 -53 -24.5 -74t-102.5 -21q-41 0 -66.5 6.5t-35.5 20.5t-12 23.5t-2 26.5z" />
    <glyph glyph-name="onesuperior" unicode="&#xb9;" horiz-adv-x="257" 
d="M99 630l-54 -8l-4 27q0 2 4.5 6.5t14.5 10t22.5 11.5t30.5 11t37 7v-346q12 -1 23.5 -4.5t17.5 -7t6 -4.5v-29h-146v29q0 1 6 4.5t17.5 7t24.5 4.5v281z" />
    <glyph glyph-name="ordmasculine" unicode="&#xba;" horiz-adv-x="630" 
d="M328 561q0 -90 -27 -124t-112 -34t-112.5 34t-27.5 124q0 89 27.5 123t112.5 34t112 -34t27 -123zM278 561q0 70 -15 89.5t-74 19.5t-74 -19.5t-15 -89.5q0 -71 15 -90t74 -19t74 19t15 90z" />
    <glyph glyph-name="guillemotright" unicode="&#xbb;" horiz-adv-x="433" 
d="M228 415l-124 -131l124 -129v-77l-208 184v45l208 184v-76zM403 415l-124 -131l124 -129v-77l-208 184v45l208 184v-76z" />
    <glyph glyph-name="onequarter" unicode="&#xbc;" horiz-adv-x="679" 
d="M327 97v54l179 235h60v-242h73v-47h-73v-53q12 0 23.5 -3.5t17.5 -7.5t6 -6v-28h-146v28q0 2 6 6t17.5 7.5t24.5 3.5v53h-188zM382 144h133v177q-16 -21 -62 -82t-71 -95zM99 630l-54 -8l-4 27q0 2 4.5 6.5t14.5 10t22.5 11.5t30.5 11t37 7v-346q12 -1 23.5 -4.5t17.5 -7
t6 -4.5v-29h-146v29q0 1 6 4.5t17.5 7t24.5 4.5v281zM173 0h-59l347 689h62z" />
    <glyph glyph-name="onehalf" unicode="&#xbd;" horiz-adv-x="733" 
d="M99 630l-54 -8l-4 27q0 2 4.5 6.5t14.5 10t22.5 11.5t30.5 11t37 7v-346q12 -1 23.5 -4.5t17.5 -7t6 -4.5v-29h-146v29q0 1 6 4.5t17.5 7t24.5 4.5v281zM529 339q-50 0 -69 -19t-25 -52h-43v5q-1 5 -1 9q0 108 138 108q71 0 107.5 -32t36.5 -91q0 -55 -32 -84t-94 -43
q-59 -13 -85.5 -32t-26.5 -62h190q0 21 4.5 38t8.5 25t7 8h27v-117h-291v50q0 30 10.5 53t24 36.5t38 25t40 15.5t42.5 11q46 12 65.5 28.5t19.5 47.5q0 72 -92 72zM170 0h-59l347 689h62z" />
    <glyph glyph-name="threequarters" unicode="&#xbe;" horiz-adv-x="803" 
d="M451 97v54l179 235h60v-242h73v-47h-73v-53q12 0 23.5 -3.5t17.5 -7.5t6 -6v-28h-146v28q0 2 6 6t17.5 7.5t24.5 3.5v53h-188zM506 144h133v177q-16 -21 -62 -82t-71 -95zM175 479v47h36q83 0 83 56q0 61 -91 61q-50 0 -69 -19.5t-23 -52.5h-44q-2 9 -2 15q0 108 138 108
q144 0 144 -110q0 -63 -54 -79q64 -21 64 -92q0 -54 -41 -85.5t-116 -31.5q-140 0 -140 108v15h45q8 -72 95 -72q55 0 79.5 16t24.5 50q0 33 -19.5 49.5t-73.5 16.5h-36zM292 0h-59l347 689h62z" />
    <glyph glyph-name="questiondown" unicode="&#xbf;" horiz-adv-x="536" 
d="M213 492q0 36 12.5 48t50.5 12t50.5 -12t12.5 -48q0 -35 -12.5 -47t-50.5 -12t-50.5 12t-12.5 47zM156 195q15 11 27 22.5t20 20.5t15 21.5t10.5 19.5t7.5 22t5 20.5t4.5 24t4.5 24.5h51q14 -54 14 -93q0 -33 -20.5 -61.5t-49.5 -50t-58 -43.5t-49.5 -52.5t-20.5 -67.5
q0 -52 33.5 -83t126.5 -31q42 0 72 8.5t46 21.5t25 35.5t11 41.5t2 49h64q53 -232 -220 -232q-71 0 -122 16.5t-77 44.5t-37 58t-11 65q0 63 29.5 106t96.5 93z" />
    <glyph glyph-name="Agrave" unicode="&#xc0;" horiz-adv-x="720" 
d="M725 0h-259v46q0 2 10.5 7.5t32.5 10.5t47 5l-42 136h-309l-44 -136q25 0 47.5 -5t33 -10.5t10.5 -7.5v-46h-257v46q0 2 9.5 7t29 9.5t41.5 5.5l214 644h147l209 -644q22 0 41.5 -5t29 -10t9.5 -7v-46zM492 276l-115 363h-30l-119 -363h264zM333 794l-75 175h85l51 -175
h-61z" />
    <glyph glyph-name="Aacute" unicode="&#xc1;" horiz-adv-x="720" 
d="M725 0h-259v46q0 2 10.5 7.5t32.5 10.5t47 5l-42 136h-309l-44 -136q25 0 47.5 -5t33 -10.5t10.5 -7.5v-46h-257v46q0 2 9.5 7t29 9.5t41.5 5.5l214 644h147l209 -644q22 0 41.5 -5t29 -10t9.5 -7v-46zM492 276l-115 363h-30l-119 -363h264zM429 969l-75 -175h-63l51 175
h87z" />
    <glyph glyph-name="Acircumflex" unicode="&#xc2;" horiz-adv-x="720" 
d="M725 0h-259v46q0 2 10.5 7.5t32.5 10.5t47 5l-42 136h-309l-44 -136q25 0 47.5 -5t33 -10.5t10.5 -7.5v-46h-257v46q0 2 9.5 7t29 9.5t41.5 5.5l214 644h147l209 -644q22 0 41.5 -5t29 -10t9.5 -7v-46zM492 276l-115 363h-30l-119 -363h264zM416 794l-56 117l-56 -117
h-62l64 175h108l64 -175h-62z" />
    <glyph glyph-name="Atilde" unicode="&#xc3;" horiz-adv-x="720" 
d="M725 0h-259v46q0 2 10.5 7.5t32.5 10.5t47 5l-42 136h-309l-44 -136q25 0 47.5 -5t33 -10.5t10.5 -7.5v-46h-257v46q0 2 9.5 7t29 9.5t41.5 5.5l214 644h147l209 -644q22 0 41.5 -5t29 -10t9.5 -7v-46zM492 276l-115 363h-30l-119 -363h264zM296 930q28 0 71 -19t60 -19
q35 0 42 37h66q-9 -50 -38 -81.5t-69 -31.5q-29 0 -78 19t-64 19q-12 0 -23.5 -10.5t-16.5 -26.5h-61q17 113 111 113z" />
    <glyph glyph-name="Adieresis" unicode="&#xc4;" horiz-adv-x="720" 
d="M725 0h-259v46q0 2 10.5 7.5t32.5 10.5t47 5l-42 136h-309l-44 -136q25 0 47.5 -5t33 -10.5t10.5 -7.5v-46h-257v46q0 2 9.5 7t29 9.5t41.5 5.5l214 644h147l209 -644q22 0 41.5 -5t29 -10t9.5 -7v-46zM492 276l-115 363h-30l-119 -363h264zM499 864q0 -32 -9 -40.5
t-44 -8.5t-44 8.5t-9 40.5t9 41t44 9t44 -9t9 -41zM327 864q0 -32 -9 -40.5t-44 -8.5t-44 8.5t-9 40.5t9 41t44 9t44 -9t9 -41z" />
    <glyph glyph-name="Aring" unicode="&#xc5;" horiz-adv-x="720" 
d="M725 0h-259v46q0 2 10.5 7.5t32.5 10.5t47 5l-42 136h-309l-44 -136q25 0 47.5 -5t33 -10.5t10.5 -7.5v-46h-257v46q0 2 9.5 7t29 9.5t41.5 5.5l214 644h147l209 -644q22 0 41.5 -5t29 -10t9.5 -7v-46zM492 276l-115 363h-30l-119 -363h264zM467 876q0 -56 -21 -77.5
t-86 -21.5q-66 0 -86.5 21t-20.5 78q0 58 20.5 79.5t86.5 21.5q65 0 86 -22t21 -79zM399 876q0 26 -6.5 32t-32.5 6q-27 0 -34 -6.5t-7 -31.5q0 -24 7 -30.5t34 -6.5q26 0 32.5 6.5t6.5 30.5z" />
    <glyph glyph-name="AE" unicode="&#xc6;" horiz-adv-x="909" 
d="M869 0h-497v46q0 3 10.5 8t32.5 10t46 5v136h-256l-44 -136q25 0 47.5 -5t33 -10.5t10.5 -7.5v-46h-257v46q0 2 9.5 7t29 9.5t41.5 5.5l214 644h559v-220h-47q-4 0 -10 14.5t-12 50t-6 81.5h-230v-234h101q0 25 5 47t10 32.5t8 10.5h45v-255h-45q-3 0 -8 11t-10 33.5
t-5 47.5h-101v-258h248q0 54 6.5 93.5t12.5 54t10 14.5h49v-235zM347 639l-119 -363h233v363h-114z" />
    <glyph glyph-name="Ccedilla" unicode="&#xc7;" horiz-adv-x="704" 
d="M598 195h55q1 -6 1 -19q0 -187 -289 -187q-80 0 -134.5 13t-90.5 38.5t-55.5 72t-27 103.5t-7.5 143q0 106 13 172.5t48.5 113t96 65.5t157.5 19q156 0 213 -74q2 16 6.5 30t8 20.5t5.5 6.5h52v-232h-60q-10 105 -54 138.5t-171 33.5q-53 0 -87.5 -4.5t-61.5 -18
t-41.5 -32t-24 -54.5t-12 -77.5t-2.5 -106.5q0 -67 2.5 -107.5t11.5 -77t23 -55t41 -32.5t62 -18t89 -4q70 0 116.5 10.5t69.5 30.5t33 40t14 49zM235 -176h59q2 -13 11.5 -17.5t45.5 -4.5q40 0 49 5.5t9 34.5t-9.5 35.5t-48.5 6.5h-70v46l57 75h67l-54 -67
q78 0 102.5 -20.5t24.5 -75.5q0 -53 -24.5 -74t-102.5 -21q-41 0 -66.5 6.5t-35.5 20.5t-12 23.5t-2 26.5z" />
    <glyph glyph-name="Egrave" unicode="&#xc8;" horiz-adv-x="676" 
d="M636 0h-611v46q0 3 10.5 8t32.5 10t46 5v574q-24 0 -46 5t-32.5 10t-10.5 8v46h590v-220h-47q-4 0 -10 14.5t-12 50t-6 81.5h-344v-234h161q0 25 5 47t10 32.5t8 10.5h45v-255h-45q-3 0 -8 11t-10 33.5t-5 47.5h-161v-258h362q0 54 6.5 93.5t12.5 54t10 14.5h49v-235z
M342 794l-75 175h85l51 -175h-61z" />
    <glyph glyph-name="Eacute" unicode="&#xc9;" horiz-adv-x="676" 
d="M636 0h-611v46q0 3 10.5 8t32.5 10t46 5v574q-24 0 -46 5t-32.5 10t-10.5 8v46h590v-220h-47q-4 0 -10 14.5t-12 50t-6 81.5h-344v-234h161q0 25 5 47t10 32.5t8 10.5h45v-255h-45q-3 0 -8 11t-10 33.5t-5 47.5h-161v-258h362q0 54 6.5 93.5t12.5 54t10 14.5h49v-235z
M452 969l-75 -175h-63l51 175h87z" />
    <glyph glyph-name="Ecircumflex" unicode="&#xca;" horiz-adv-x="676" 
d="M636 0h-611v46q0 3 10.5 8t32.5 10t46 5v574q-24 0 -46 5t-32.5 10t-10.5 8v46h590v-220h-47q-4 0 -10 14.5t-12 50t-6 81.5h-344v-234h161q0 25 5 47t10 32.5t8 10.5h45v-255h-45q-3 0 -8 11t-10 33.5t-5 47.5h-161v-258h362q0 54 6.5 93.5t12.5 54t10 14.5h49v-235z
M391 794l-56 117l-56 -117h-62l64 175h108l64 -175h-62z" />
    <glyph glyph-name="Edieresis" unicode="&#xcb;" horiz-adv-x="676" 
d="M636 0h-611v46q0 3 10.5 8t32.5 10t46 5v574q-24 0 -46 5t-32.5 10t-10.5 8v46h590v-220h-47q-4 0 -10 14.5t-12 50t-6 81.5h-344v-234h161q0 25 5 47t10 32.5t8 10.5h45v-255h-45q-3 0 -8 11t-10 33.5t-5 47.5h-161v-258h362q0 54 6.5 93.5t12.5 54t10 14.5h49v-235z
M474 864q0 -32 -9 -40.5t-44 -8.5t-44 8.5t-9 40.5t9 41t44 9t44 -9t9 -41zM302 864q0 -32 -9 -40.5t-44 -8.5t-44 8.5t-9 40.5t9 41t44 9t44 -9t9 -41z" />
    <glyph glyph-name="Igrave" unicode="&#xcc;" horiz-adv-x="311" 
d="M286 0h-261v46q0 3 10.5 8t32.5 10t46 5v574q-24 0 -46 5t-32.5 10t-10.5 8v46h261v-46q0 -3 -11 -8t-33 -10t-46 -5v-574q24 0 46 -5t33 -10t11 -8v-46zM129 794l-75 175h85l51 -175h-61z" />
    <glyph glyph-name="Iacute" unicode="&#xcd;" horiz-adv-x="311" 
d="M286 0h-261v46q0 3 10.5 8t32.5 10t46 5v574q-24 0 -46 5t-32.5 10t-10.5 8v46h261v-46q0 -3 -11 -8t-33 -10t-46 -5v-574q24 0 46 -5t33 -10t11 -8v-46zM249 969l-75 -175h-63l51 175h87z" />
    <glyph glyph-name="Icircumflex" unicode="&#xce;" horiz-adv-x="311" 
d="M286 0h-261v46q0 3 10.5 8t32.5 10t46 5v574q-24 0 -46 5t-32.5 10t-10.5 8v46h261v-46q0 -3 -11 -8t-33 -10t-46 -5v-574q24 0 46 -5t33 -10t11 -8v-46zM212 794l-56 117l-56 -117h-62l64 175h108l64 -175h-62z" />
    <glyph glyph-name="Idieresis" unicode="&#xcf;" horiz-adv-x="311" 
d="M286 0h-261v46q0 3 10.5 8t32.5 10t46 5v574q-24 0 -46 5t-32.5 10t-10.5 8v46h261v-46q0 -3 -11 -8t-33 -10t-46 -5v-574q24 0 46 -5t33 -10t11 -8v-46zM295 864q0 -32 -9 -40.5t-44 -8.5t-44 8.5t-9 40.5t9 41t44 9t44 -9t9 -41zM123 864q0 -32 -9 -40.5t-44 -8.5
t-44 8.5t-9 40.5t9 41t44 9t44 -9t9 -41z" />
    <glyph glyph-name="Eth" unicode="&#xd0;" horiz-adv-x="733" 
d="M683 359q0 -103 -12 -166t-46.5 -109t-97 -65t-163.5 -19h-339v46q0 3 10.5 8t32.5 10t46 5v253h-85v67h85v254q-24 0 -46 5t-32.5 10t-10.5 8v46h339q101 0 163.5 -18.5t97 -64t46.5 -107.5t12 -163zM282 322h-86v-247h168q66 0 105 7.5t66.5 23t40 51.5t17 80t4.5 122
q0 62 -2.5 101t-11.5 73t-24 52t-42 31.5t-63 17.5t-90 4h-168v-249h86v-67z" />
    <glyph glyph-name="Ntilde" unicode="&#xd1;" horiz-adv-x="767" 
d="M742 666q0 -3 -10.5 -8t-32.5 -10t-46 -5v-643h-152l-286 639h-23v-570q24 0 46 -5t33 -10t11 -8v-46h-257v46q0 3 10.5 8t32.5 10t46 5v574q-24 0 -46 5t-32.5 10t-10.5 8v46h244l283 -639h23v570q-24 0 -45 5t-30.5 10t-9.5 8v46h252v-46zM319 930q28 0 71 -19t60 -19
q35 0 42 37h66q-9 -50 -38 -81.5t-69 -31.5q-29 0 -78 19t-64 19q-12 0 -23.5 -10.5t-16.5 -26.5h-61q17 113 111 113z" />
    <glyph glyph-name="Ograve" unicode="&#xd2;" horiz-adv-x="738" 
d="M688 359q0 -86 -7.5 -143t-27 -103.5t-56 -72t-91.5 -38.5t-137 -13q-101 0 -163.5 19t-97 66t-46.5 112t-12 173t12 173t46.5 112t97 66t163.5 19q82 0 137 -13t91.5 -38.5t56 -72t27 -103.5t7.5 -143zM604 359q0 66 -2.5 107t-11.5 77.5t-24 55t-42.5 32.5t-63.5 18
t-91 4t-90.5 -4t-63 -18t-42.5 -32.5t-24 -55t-11.5 -77.5t-2.5 -107t2.5 -107t11.5 -77.5t24 -55.5t42.5 -32.5t63 -18t90.5 -4.5t91 4.5t63.5 18t42.5 32.5t24 55.5t11.5 77.5t2.5 107zM350 794l-75 175h85l51 -175h-61z" />
    <glyph glyph-name="Oacute" unicode="&#xd3;" horiz-adv-x="738" 
d="M688 359q0 -86 -7.5 -143t-27 -103.5t-56 -72t-91.5 -38.5t-137 -13q-101 0 -163.5 19t-97 66t-46.5 112t-12 173t12 173t46.5 112t97 66t163.5 19q82 0 137 -13t91.5 -38.5t56 -72t27 -103.5t7.5 -143zM604 359q0 66 -2.5 107t-11.5 77.5t-24 55t-42.5 32.5t-63.5 18
t-91 4t-90.5 -4t-63 -18t-42.5 -32.5t-24 -55t-11.5 -77.5t-2.5 -107t2.5 -107t11.5 -77.5t24 -55.5t42.5 -32.5t63 -18t90.5 -4.5t91 4.5t63.5 18t42.5 32.5t24 55.5t11.5 77.5t2.5 107zM458 969l-75 -175h-63l51 175h87z" />
    <glyph glyph-name="Ocircumflex" unicode="&#xd4;" horiz-adv-x="738" 
d="M688 359q0 -86 -7.5 -143t-27 -103.5t-56 -72t-91.5 -38.5t-137 -13q-101 0 -163.5 19t-97 66t-46.5 112t-12 173t12 173t46.5 112t97 66t163.5 19q82 0 137 -13t91.5 -38.5t56 -72t27 -103.5t7.5 -143zM604 359q0 66 -2.5 107t-11.5 77.5t-24 55t-42.5 32.5t-63.5 18
t-91 4t-90.5 -4t-63 -18t-42.5 -32.5t-24 -55t-11.5 -77.5t-2.5 -107t2.5 -107t11.5 -77.5t24 -55.5t42.5 -32.5t63 -18t90.5 -4.5t91 4.5t63.5 18t42.5 32.5t24 55.5t11.5 77.5t2.5 107zM425 794l-56 117l-56 -117h-62l64 175h108l64 -175h-62z" />
    <glyph glyph-name="Otilde" unicode="&#xd5;" horiz-adv-x="738" 
d="M688 359q0 -86 -7.5 -143t-27 -103.5t-56 -72t-91.5 -38.5t-137 -13q-101 0 -163.5 19t-97 66t-46.5 112t-12 173t12 173t46.5 112t97 66t163.5 19q82 0 137 -13t91.5 -38.5t56 -72t27 -103.5t7.5 -143zM604 359q0 66 -2.5 107t-11.5 77.5t-24 55t-42.5 32.5t-63.5 18
t-91 4t-90.5 -4t-63 -18t-42.5 -32.5t-24 -55t-11.5 -77.5t-2.5 -107t2.5 -107t11.5 -77.5t24 -55.5t42.5 -32.5t63 -18t90.5 -4.5t91 4.5t63.5 18t42.5 32.5t24 55.5t11.5 77.5t2.5 107zM305 930q28 0 71 -19t60 -19q35 0 42 37h66q-9 -50 -38 -81.5t-69 -31.5
q-29 0 -78 19t-64 19q-12 0 -23.5 -10.5t-16.5 -26.5h-61q17 113 111 113z" />
    <glyph glyph-name="Odieresis" unicode="&#xd6;" horiz-adv-x="738" 
d="M688 359q0 -86 -7.5 -143t-27 -103.5t-56 -72t-91.5 -38.5t-137 -13q-101 0 -163.5 19t-97 66t-46.5 112t-12 173t12 173t46.5 112t97 66t163.5 19q82 0 137 -13t91.5 -38.5t56 -72t27 -103.5t7.5 -143zM604 359q0 66 -2.5 107t-11.5 77.5t-24 55t-42.5 32.5t-63.5 18
t-91 4t-90.5 -4t-63 -18t-42.5 -32.5t-24 -55t-11.5 -77.5t-2.5 -107t2.5 -107t11.5 -77.5t24 -55.5t42.5 -32.5t63 -18t90.5 -4.5t91 4.5t63.5 18t42.5 32.5t24 55.5t11.5 77.5t2.5 107zM508 864q0 -32 -9 -40.5t-44 -8.5t-44 8.5t-9 40.5t9 41t44 9t44 -9t9 -41zM336 864
q0 -32 -9 -40.5t-44 -8.5t-44 8.5t-9 40.5t9 41t44 9t44 -9t9 -41z" />
    <glyph glyph-name="multiply" unicode="&#xd7;" horiz-adv-x="402" 
d="M35 204l120 115l-120 115l53 52l120 -116l121 116l52 -50l-121 -116l122 -116l-53 -52l-122 117l-120 -115z" />
    <glyph glyph-name="Oslash" unicode="&#xd8;" horiz-adv-x="738" 
d="M137 -31l-49 35l36 52q-42 41 -58 112.5t-16 190.5q0 108 12 173t46.5 112t97 66t163.5 19q130 0 197 -33l31 45l49 -34l-31 -45q41 -41 57 -113t16 -190q0 -86 -7.5 -143t-27 -103.5t-56 -72t-91.5 -38.5t-137 -13q-128 0 -196 32zM135 359q0 -98 7 -151.5t28 -84.5
l352 509q-49 21 -153 21q-55 0 -90.5 -4t-63 -18t-42.5 -32.5t-24 -55t-11.5 -77.5t-2.5 -107zM604 359q0 96 -7.5 150t-28.5 85l-351 -509q46 -21 152 -21q55 0 91 4.5t63.5 18t42.5 32.5t24 55.5t11.5 77.5t2.5 107z" />
    <glyph glyph-name="Ugrave" unicode="&#xd9;" horiz-adv-x="794" 
d="M769 666q0 -3 -10.5 -8t-32.5 -10t-46 -5v-362q0 -72 -12 -122t-42 -90.5t-87 -60t-142 -19.5t-142 19.5t-87 60t-42 90.5t-12 122v362q-24 0 -46 5t-32.5 10t-10.5 8v46h282v-46q0 -3 -10.5 -8t-32.5 -10t-46 -5h-21v-362q0 -123 39.5 -169.5t161.5 -46.5t161.5 46.5
t39.5 169.5v362h-21q-24 0 -46 5t-32.5 10t-10.5 8v46h280v-46zM380 794l-75 175h85l51 -175h-61z" />
    <glyph glyph-name="Uacute" unicode="&#xda;" horiz-adv-x="794" 
d="M769 666q0 -3 -10.5 -8t-32.5 -10t-46 -5v-362q0 -72 -12 -122t-42 -90.5t-87 -60t-142 -19.5t-142 19.5t-87 60t-42 90.5t-12 122v362q-24 0 -46 5t-32.5 10t-10.5 8v46h282v-46q0 -3 -10.5 -8t-32.5 -10t-46 -5h-21v-362q0 -123 39.5 -169.5t161.5 -46.5t161.5 46.5
t39.5 169.5v362h-21q-24 0 -46 5t-32.5 10t-10.5 8v46h280v-46zM490 969l-75 -175h-63l51 175h87z" />
    <glyph glyph-name="Ucircumflex" unicode="&#xdb;" horiz-adv-x="794" 
d="M769 666q0 -3 -10.5 -8t-32.5 -10t-46 -5v-362q0 -72 -12 -122t-42 -90.5t-87 -60t-142 -19.5t-142 19.5t-87 60t-42 90.5t-12 122v362q-24 0 -46 5t-32.5 10t-10.5 8v46h282v-46q0 -3 -10.5 -8t-32.5 -10t-46 -5h-21v-362q0 -123 39.5 -169.5t161.5 -46.5t161.5 46.5
t39.5 169.5v362h-21q-24 0 -46 5t-32.5 10t-10.5 8v46h280v-46zM453 794l-56 117l-56 -117h-62l64 175h108l64 -175h-62z" />
    <glyph glyph-name="Udieresis" unicode="&#xdc;" horiz-adv-x="794" 
d="M769 666q0 -3 -10.5 -8t-32.5 -10t-46 -5v-362q0 -72 -12 -122t-42 -90.5t-87 -60t-142 -19.5t-142 19.5t-87 60t-42 90.5t-12 122v362q-24 0 -46 5t-32.5 10t-10.5 8v46h282v-46q0 -3 -10.5 -8t-32.5 -10t-46 -5h-21v-362q0 -123 39.5 -169.5t161.5 -46.5t161.5 46.5
t39.5 169.5v362h-21q-24 0 -46 5t-32.5 10t-10.5 8v46h280v-46zM536 864q0 -32 -9 -40.5t-44 -8.5t-44 8.5t-9 40.5t9 41t44 9t44 -9t9 -41zM364 864q0 -32 -9 -40.5t-44 -8.5t-44 8.5t-9 40.5t9 41t44 9t44 -9t9 -41z" />
    <glyph glyph-name="Yacute" unicode="&#xdd;" horiz-adv-x="717" 
d="M722 666q0 -3 -11 -8t-33 -10t-46 -5l-233 -397v-177q33 0 60 -5t38 -10t11 -8v-46h-300v46q0 3 11 8t38 10t60 5v181l-233 393q-24 0 -46 5t-32.5 10t-10.5 8v46h261v-46q0 -3 -9 -7.5t-27 -9t-38 -5.5l178 -310l177 309q-21 1 -39.5 6t-27.5 9.5t-9 7.5v46h261v-46z
M455 969l-75 -175h-63l51 175h87z" />
    <glyph glyph-name="Thorn" unicode="&#xde;" horiz-adv-x="685" 
d="M660 354q0 -113 -57.5 -173t-209.5 -60h-196v-121h-172v46q0 3 10.5 8t32.5 10t46 5l1 12v561q-24 0 -46 5t-32.5 10t-10.5 8v46h171v-123h196q79 0 133 -16.5t82.5 -49.5t40 -73t11.5 -95zM574 354q0 61 -12 93t-52 49.5t-117 17.5h-196v-319h196q59 0 94.5 8.5
t54.5 29.5t25.5 48t6.5 73z" />
    <glyph glyph-name="germandbls" unicode="&#xdf;" horiz-adv-x="745" 
d="M198 567h1l-1 -567h-163v46q0 3 11 8t32 10t43 5v498q0 70 8.5 113t34 74t70.5 43.5t118 12.5q121 0 171.5 -39.5t50.5 -128.5q0 -35 -9 -62t-20 -43t-35.5 -31t-39 -21.5t-47.5 -18.5q-27 -11 -36 -27.5t-9 -43.5q0 -40 22.5 -60.5t95.5 -24.5q108 -8 148.5 -50.5
t40.5 -108.5q0 -74 -50.5 -118t-186.5 -44q-112 0 -164 42v80q34 -51 164 -51q96 0 128.5 21.5t32.5 69.5q0 41 -23.5 62.5t-89.5 26.5q-110 7 -152 48.5t-42 106.5q0 105 97 140q4 2 18 7t19 7t16.5 7.5t16 9.5t12 12t10.5 16.5t5.5 21t2.5 26.5q0 58 -30 76.5t-117 18.5
q-37 0 -60.5 -2.5t-41.5 -10t-27.5 -18t-15.5 -32t-7.5 -45t-1.5 -62.5z" />
    <glyph glyph-name="agrave" unicode="&#xe0;" horiz-adv-x="627" 
d="M612 21q0 -3 -13.5 -8t-44.5 -10.5t-67 -5.5h-15l-3 68q-42 -76 -182 -76q-72 0 -120.5 13t-73 38t-34 53t-9.5 66q0 30 5 52t20 43.5t40.5 35t68.5 22t103 8.5h160q-2 99 -30 129.5t-122 30.5q-81 0 -108 -18.5t-33 -69.5h-65v147h57q4 -8 12 -35q32 49 137 49
q73 0 118 -14.5t70 -50.5t34 -86t9 -131v-204h86v-46zM450 159v96h-163q-96 0 -127.5 -23t-31.5 -73q0 -37 9.5 -55.5t44.5 -30t105 -11.5q73 0 109 11.5t45 30t9 55.5zM274 621l-75 175h85l51 -175h-61z" />
    <glyph glyph-name="aacute" unicode="&#xe1;" horiz-adv-x="627" 
d="M612 21q0 -3 -13.5 -8t-44.5 -10.5t-67 -5.5h-15l-3 68q-42 -76 -182 -76q-72 0 -120.5 13t-73 38t-34 53t-9.5 66q0 30 5 52t20 43.5t40.5 35t68.5 22t103 8.5h160q-2 99 -30 129.5t-122 30.5q-81 0 -108 -18.5t-33 -69.5h-65v147h57q4 -8 12 -35q32 49 137 49
q73 0 118 -14.5t70 -50.5t34 -86t9 -131v-204h86v-46zM450 159v96h-163q-96 0 -127.5 -23t-31.5 -73q0 -37 9.5 -55.5t44.5 -30t105 -11.5q73 0 109 11.5t45 30t9 55.5zM406 796l-75 -175h-63l51 175h87z" />
    <glyph glyph-name="acircumflex" unicode="&#xe2;" horiz-adv-x="627" 
d="M612 21q0 -3 -13.5 -8t-44.5 -10.5t-67 -5.5h-15l-3 68q-42 -76 -182 -76q-72 0 -120.5 13t-73 38t-34 53t-9.5 66q0 30 5 52t20 43.5t40.5 35t68.5 22t103 8.5h160q-2 99 -30 129.5t-122 30.5q-81 0 -108 -18.5t-33 -69.5h-65v147h57q4 -8 12 -35q32 49 137 49
q73 0 118 -14.5t70 -50.5t34 -86t9 -131v-204h86v-46zM450 159v96h-163q-96 0 -127.5 -23t-31.5 -73q0 -37 9.5 -55.5t44.5 -30t105 -11.5q73 0 109 11.5t45 30t9 55.5zM356 621l-56 117l-56 -117h-62l64 175h108l64 -175h-62z" />
    <glyph glyph-name="atilde" unicode="&#xe3;" horiz-adv-x="627" 
d="M612 21q0 -3 -13.5 -8t-44.5 -10.5t-67 -5.5h-15l-3 68q-42 -76 -182 -76q-72 0 -120.5 13t-73 38t-34 53t-9.5 66q0 30 5 52t20 43.5t40.5 35t68.5 22t103 8.5h160q-2 99 -30 129.5t-122 30.5q-81 0 -108 -18.5t-33 -69.5h-65v147h57q4 -8 12 -35q32 49 137 49
q73 0 118 -14.5t70 -50.5t34 -86t9 -131v-204h86v-46zM450 159v96h-163q-96 0 -127.5 -23t-31.5 -73q0 -37 9.5 -55.5t44.5 -30t105 -11.5q73 0 109 11.5t45 30t9 55.5zM249 758q28 0 71 -19t60 -19q35 0 42 37h66q-9 -50 -38 -81.5t-69 -31.5q-29 0 -78 19t-64 19
q-12 0 -23.5 -10.5t-16.5 -26.5h-61q17 113 111 113z" />
    <glyph glyph-name="adieresis" unicode="&#xe4;" horiz-adv-x="627" 
d="M612 21q0 -3 -13.5 -8t-44.5 -10.5t-67 -5.5h-15l-3 68q-42 -76 -182 -76q-72 0 -120.5 13t-73 38t-34 53t-9.5 66q0 30 5 52t20 43.5t40.5 35t68.5 22t103 8.5h160q-2 99 -30 129.5t-122 30.5q-81 0 -108 -18.5t-33 -69.5h-65v147h57q4 -8 12 -35q32 49 137 49
q73 0 118 -14.5t70 -50.5t34 -86t9 -131v-204h86v-46zM450 159v96h-163q-96 0 -127.5 -23t-31.5 -73q0 -37 9.5 -55.5t44.5 -30t105 -11.5q73 0 109 11.5t45 30t9 55.5zM447 691q0 -32 -9 -40.5t-44 -8.5t-44 8.5t-9 40.5t9 41t44 9t44 -9t9 -41zM275 691q0 -32 -9 -40.5
t-44 -8.5t-44 8.5t-9 40.5t9 41t44 9t44 -9t9 -41z" />
    <glyph glyph-name="aring" unicode="&#xe5;" horiz-adv-x="627" 
d="M612 21q0 -3 -13.5 -8t-44.5 -10.5t-67 -5.5h-15l-3 68q-42 -76 -182 -76q-72 0 -120.5 13t-73 38t-34 53t-9.5 66q0 30 5 52t20 43.5t40.5 35t68.5 22t103 8.5h160q-2 99 -30 129.5t-122 30.5q-81 0 -108 -18.5t-33 -69.5h-65v147h57q4 -8 12 -35q32 49 137 49
q73 0 118 -14.5t70 -50.5t34 -86t9 -131v-204h86v-46zM450 159v96h-163q-96 0 -127.5 -23t-31.5 -73q0 -37 9.5 -55.5t44.5 -30t105 -11.5q73 0 109 11.5t45 30t9 55.5zM415 703q0 -56 -21 -77.5t-86 -21.5q-66 0 -86.5 21t-20.5 78q0 58 20.5 79.5t86.5 21.5q65 0 86 -22
t21 -79zM347 703q0 26 -6.5 32t-32.5 6q-27 0 -34 -6.5t-7 -31.5q0 -24 7 -30.5t34 -6.5q26 0 32.5 6.5t6.5 30.5z" />
    <glyph glyph-name="ae" unicode="&#xe6;" horiz-adv-x="981" 
d="M917 271v-16h-390q0 -46 1.5 -72t8 -50.5t16 -36t29 -20.5t45 -11.5t65.5 -2.5q53 0 85.5 6t48 21.5t20 27.5t9.5 39h50v-7q0 -19 -0.5 -30.5t-5 -30.5t-12.5 -31t-23.5 -26t-37.5 -22.5t-56.5 -14t-77.5 -5.5q-91 0 -132.5 22t-66.5 74q-41 -96 -206 -96
q-72 0 -120.5 13t-73 38t-34 53t-9.5 66t9 64.5t32.5 50.5t72.5 36t123 12h160q-2 99 -30 128.5t-122 29.5q-81 0 -108 -18.5t-33 -69.5h-65v147h57q4 -8 12 -35q32 49 137 49q82 0 125 -19.5t70 -76.5q25 57 67 76.5t128 19.5q73 0 118.5 -14.5t70.5 -50.5t34 -86t9 -131z
M450 159v96h-163q-96 0 -127.5 -23t-31.5 -73q0 -37 9.5 -55.5t44.5 -30t105 -11.5q73 0 109 11.5t45 30t9 55.5zM841 321q-5 101 -33 131t-123 30q-53 0 -81 -5.5t-45.5 -25.5t-22.5 -47.5t-7 -82.5h312z" />
    <glyph glyph-name="ccedilla" unicode="&#xe7;" horiz-adv-x="609" 
d="M534 156q0 -24 -1 -37t-7 -36t-20 -37t-37 -28.5t-63 -21.5t-93 -7q-79 0 -127 14.5t-75 51t-36.5 86t-9.5 130.5q0 65 6 108t21 78.5t43.5 55.5t71.5 30t106 10q112 0 159 -51q6 28 12 37h50v-182h-55q-3 50 -14 73.5t-46 36.5t-106 13q-41 0 -67 -3t-46 -12.5
t-30.5 -22t-17 -39t-8 -55.5t-1.5 -77q0 -49 1.5 -78t8 -55t17 -38.5t30.5 -22.5t46 -12.5t67 -2.5q45 0 76 5t47.5 11.5t27 21t13.5 25t7 31.5h50zM181 -176h59q2 -13 11.5 -17.5t45.5 -4.5q40 0 49 5.5t9 34.5t-9.5 35.5t-48.5 6.5h-70v46l57 75h67l-54 -67
q78 0 102.5 -20.5t24.5 -75.5q0 -53 -24.5 -74t-102.5 -21q-41 0 -66.5 6.5t-35.5 20.5t-12 23.5t-2 26.5z" />
    <glyph glyph-name="egrave" unicode="&#xe8;" horiz-adv-x="612" 
d="M548 316l-2 -61h-407q0 -65 6 -100t26 -57.5t52.5 -29t92.5 -6.5q53 0 87 6.5t51.5 20.5t24.5 28.5t11 38.5h50q0 -27 -2 -44.5t-14.5 -43t-34.5 -41t-66.5 -27t-106.5 -11.5q-80 0 -129 14.5t-76 51t-36.5 85.5t-9.5 131q0 81 9.5 131t36 86t74 50.5t124.5 14.5
q138 0 188.5 -58t50.5 -179zM142 321h332q0 96 -34 128.5t-131 32.5q-101 0 -132 -30t-35 -131zM315 621l-75 175h85l51 -175h-61z" />
    <glyph glyph-name="eacute" unicode="&#xe9;" horiz-adv-x="612" 
d="M548 316l-2 -61h-407q0 -65 6 -100t26 -57.5t52.5 -29t92.5 -6.5q53 0 87 6.5t51.5 20.5t24.5 28.5t11 38.5h50q0 -27 -2 -44.5t-14.5 -43t-34.5 -41t-66.5 -27t-106.5 -11.5q-80 0 -129 14.5t-76 51t-36.5 85.5t-9.5 131q0 81 9.5 131t36 86t74 50.5t124.5 14.5
q138 0 188.5 -58t50.5 -179zM142 321h332q0 96 -34 128.5t-131 32.5q-101 0 -132 -30t-35 -131zM378 796l-75 -175h-63l51 175h87z" />
    <glyph glyph-name="ecircumflex" unicode="&#xea;" horiz-adv-x="612" 
d="M548 316l-2 -61h-407q0 -65 6 -100t26 -57.5t52.5 -29t92.5 -6.5q53 0 87 6.5t51.5 20.5t24.5 28.5t11 38.5h50q0 -27 -2 -44.5t-14.5 -43t-34.5 -41t-66.5 -27t-106.5 -11.5q-80 0 -129 14.5t-76 51t-36.5 85.5t-9.5 131q0 81 9.5 131t36 86t74 50.5t124.5 14.5
q138 0 188.5 -58t50.5 -179zM142 321h332q0 96 -34 128.5t-131 32.5q-101 0 -132 -30t-35 -131zM365 621l-56 117l-56 -117h-62l64 175h108l64 -175h-62z" />
    <glyph glyph-name="edieresis" unicode="&#xeb;" horiz-adv-x="612" 
d="M548 316l-2 -61h-407q0 -65 6 -100t26 -57.5t52.5 -29t92.5 -6.5q53 0 87 6.5t51.5 20.5t24.5 28.5t11 38.5h50q0 -27 -2 -44.5t-14.5 -43t-34.5 -41t-66.5 -27t-106.5 -11.5q-80 0 -129 14.5t-76 51t-36.5 85.5t-9.5 131q0 81 9.5 131t36 86t74 50.5t124.5 14.5
q138 0 188.5 -58t50.5 -179zM142 321h332q0 96 -34 128.5t-131 32.5q-101 0 -132 -30t-35 -131zM448 691q0 -32 -9 -40.5t-44 -8.5t-44 8.5t-9 40.5t9 41t44 9t44 -9t9 -41zM276 691q0 -32 -9 -40.5t-44 -8.5t-44 8.5t-9 40.5t9 41t44 9t44 -9t9 -41z" />
    <glyph glyph-name="igrave" unicode="&#xec;" horiz-adv-x="299" 
d="M279 0h-249v46q0 3 11 8t32 10t43 5v404h-86v46q0 3 13.5 8.5t44.5 10.5t67 5h38v-474q22 0 43 -5t32 -10t11 -8v-46zM130 621l-75 175h85l51 -175h-61z" />
    <glyph glyph-name="iacute" unicode="&#xed;" horiz-adv-x="299" 
d="M279 0h-249v46q0 3 11 8t32 10t43 5v404h-86v46q0 3 13.5 8.5t44.5 10.5t67 5h38v-474q22 0 43 -5t32 -10t11 -8v-46zM246 796l-75 -175h-63l51 175h87z" />
    <glyph glyph-name="icircumflex" unicode="&#xee;" horiz-adv-x="299" 
d="M279 0h-249v46q0 3 11 8t32 10t43 5v404h-86v46q0 3 13.5 8.5t44.5 10.5t67 5h38v-474q22 0 43 -5t32 -10t11 -8v-46zM208 621l-56 117l-56 -117h-62l64 175h108l64 -175h-62z" />
    <glyph glyph-name="idieresis" unicode="&#xef;" horiz-adv-x="299" 
d="M279 691q0 -31 -8.5 -39.5t-43.5 -8.5t-43.5 8.5t-8.5 39.5q0 32 8.5 41t43.5 9t43.5 -9t8.5 -41zM119 691q0 -31 -8.5 -39.5t-43.5 -8.5t-43.5 8.5t-8.5 39.5q0 32 8.5 41t43.5 9t43.5 -9t8.5 -41zM279 0h-249v46q0 3 11 8t32 10t43 5v404h-86v46q0 3 13.5 8.5
t44.5 10.5t67 5h38v-474q22 0 43 -5t32 -10t11 -8v-46z" />
    <glyph glyph-name="eth" unicode="&#xf0;" horiz-adv-x="631" 
d="M457 748l-45 -68q149 -119 149 -353q0 -98 -10 -158t-38.5 -102.5t-78.5 -59.5t-132 -17q-72 0 -122 19t-75 54t-35 74t-10 90q0 247 242 247q79 0 123.5 -20t70.5 -68q-26 154 -121 237l-42 -65l-52 32l44 69q-31 19 -93 48l24 51q62 -18 105 -44l42 65zM302 61
q99 0 138 43.5t39 123.5q0 87 -37.5 132.5t-139.5 45.5q-101 0 -134.5 -42.5t-33.5 -131.5q0 -87 34 -129t134 -42z" />
    <glyph glyph-name="ntilde" unicode="&#xf1;" horiz-adv-x="684" 
d="M669 0h-241v46q0 3 8.5 8t27.5 10t41 5v205q0 71 -4 107t-21.5 61t-46 31.5t-83.5 6.5q-44 0 -70.5 -5.5t-45 -16.5t-27 -37t-11.5 -58t-3 -89v-205q22 0 43 -5t32 -10t11 -8v-46h-249v46q0 3 11 8t32 10t43 5v205q0 46 -2 95.5t-4 76.5l-1 27h-79v46q0 3 13.5 8.5
t44.5 10.5t67 5h14l4 -100q18 58 59.5 84t117.5 26q73 0 118.5 -14.5t71 -50.5t34.5 -85t9 -129v-205q22 0 43 -5t32 -10t11 -8v-46zM278 758q28 0 71 -19t60 -19q35 0 42 37h66q-9 -50 -38 -81.5t-69 -31.5q-29 0 -78 19t-64 19q-12 0 -23.5 -10.5t-16.5 -26.5h-61
q17 113 111 113z" />
    <glyph glyph-name="ograve" unicode="&#xf2;" horiz-adv-x="630" 
d="M565 271q0 -82 -9.5 -131t-36.5 -85.5t-76 -51t-128 -14.5t-128 14.5t-76 51t-36.5 85.5t-9.5 131t9.5 131t36.5 85.5t76 51t128 14.5t128 -14.5t76 -51t36.5 -85.5t9.5 -131zM488 271q0 49 -1.5 78t-8.5 55t-17.5 39t-31 22.5t-47 12.5t-67.5 3t-67.5 -3t-47 -12.5
t-31 -22.5t-17.5 -39t-8.5 -55t-1.5 -78t1.5 -78t8.5 -55.5t17.5 -39t31 -22.5t47 -12.5t67.5 -2.5t67.5 2.5t47 12.5t31 22.5t17.5 39t8.5 55.5t1.5 78zM290 621l-75 175h85l51 -175h-61z" />
    <glyph glyph-name="oacute" unicode="&#xf3;" horiz-adv-x="630" 
d="M565 271q0 -82 -9.5 -131t-36.5 -85.5t-76 -51t-128 -14.5t-128 14.5t-76 51t-36.5 85.5t-9.5 131t9.5 131t36.5 85.5t76 51t128 14.5t128 -14.5t76 -51t36.5 -85.5t9.5 -131zM488 271q0 49 -1.5 78t-8.5 55t-17.5 39t-31 22.5t-47 12.5t-67.5 3t-67.5 -3t-47 -12.5
t-31 -22.5t-17.5 -39t-8.5 -55t-1.5 -78t1.5 -78t8.5 -55.5t17.5 -39t31 -22.5t47 -12.5t67.5 -2.5t67.5 2.5t47 12.5t31 22.5t17.5 39t8.5 55.5t1.5 78zM420 796l-75 -175h-63l51 175h87z" />
    <glyph glyph-name="ocircumflex" unicode="&#xf4;" horiz-adv-x="630" 
d="M565 271q0 -82 -9.5 -131t-36.5 -85.5t-76 -51t-128 -14.5t-128 14.5t-76 51t-36.5 85.5t-9.5 131t9.5 131t36.5 85.5t76 51t128 14.5t128 -14.5t76 -51t36.5 -85.5t9.5 -131zM488 271q0 49 -1.5 78t-8.5 55t-17.5 39t-31 22.5t-47 12.5t-67.5 3t-67.5 -3t-47 -12.5
t-31 -22.5t-17.5 -39t-8.5 -55t-1.5 -78t1.5 -78t8.5 -55.5t17.5 -39t31 -22.5t47 -12.5t67.5 -2.5t67.5 2.5t47 12.5t31 22.5t17.5 39t8.5 55.5t1.5 78zM371 621l-56 117l-56 -117h-62l64 175h108l64 -175h-62z" />
    <glyph glyph-name="otilde" unicode="&#xf5;" horiz-adv-x="630" 
d="M565 271q0 -82 -9.5 -131t-36.5 -85.5t-76 -51t-128 -14.5t-128 14.5t-76 51t-36.5 85.5t-9.5 131t9.5 131t36.5 85.5t76 51t128 14.5t128 -14.5t76 -51t36.5 -85.5t9.5 -131zM488 271q0 49 -1.5 78t-8.5 55t-17.5 39t-31 22.5t-47 12.5t-67.5 3t-67.5 -3t-47 -12.5
t-31 -22.5t-17.5 -39t-8.5 -55t-1.5 -78t1.5 -78t8.5 -55.5t17.5 -39t31 -22.5t47 -12.5t67.5 -2.5t67.5 2.5t47 12.5t31 22.5t17.5 39t8.5 55.5t1.5 78zM251 758q28 0 71 -19t60 -19q35 0 42 37h66q-9 -50 -38 -81.5t-69 -31.5q-29 0 -78 19t-64 19q-12 0 -23.5 -10.5
t-16.5 -26.5h-61q17 113 111 113z" />
    <glyph glyph-name="odieresis" unicode="&#xf6;" horiz-adv-x="630" 
d="M565 271q0 -82 -9.5 -131t-36.5 -85.5t-76 -51t-128 -14.5t-128 14.5t-76 51t-36.5 85.5t-9.5 131t9.5 131t36.5 85.5t76 51t128 14.5t128 -14.5t76 -51t36.5 -85.5t9.5 -131zM488 271q0 49 -1.5 78t-8.5 55t-17.5 39t-31 22.5t-47 12.5t-67.5 3t-67.5 -3t-47 -12.5
t-31 -22.5t-17.5 -39t-8.5 -55t-1.5 -78t1.5 -78t8.5 -55.5t17.5 -39t31 -22.5t47 -12.5t67.5 -2.5t67.5 2.5t47 12.5t31 22.5t17.5 39t8.5 55.5t1.5 78zM454 691q0 -32 -9 -40.5t-44 -8.5t-44 8.5t-9 40.5t9 41t44 9t44 -9t9 -41zM282 691q0 -32 -9 -40.5t-44 -8.5t-44 8.5
t-9 40.5t9 41t44 9t44 -9t9 -41z" />
    <glyph glyph-name="divide" unicode="&#xf7;" horiz-adv-x="402" 
d="M250 455q0 -29 -10 -38.5t-41 -9.5q-30 0 -40 9.5t-10 38.5q0 28 10 37.5t40 9.5q31 0 41 -9.5t10 -37.5zM250 185q0 -28 -10 -38t-41 -10q-30 0 -40 10t-10 38t10 37.5t40 9.5q31 0 41 -9.5t10 -37.5zM362 285h-322v67h322v-67z" />
    <glyph glyph-name="oslash" unicode="&#xf8;" horiz-adv-x="630" 
d="M141 -35l-49 35l29 42q-32 31 -44 85t-12 144q0 82 9.5 131t36.5 85.5t76 51t128 14.5q92 0 145 -22l27 39l49 -34l-26 -38q55 -56 55 -227q0 -82 -9.5 -131t-36.5 -85.5t-76 -51t-128 -14.5q-89 0 -143 20zM142 271q0 -130 23 -166l253 365q-34 11 -103 11
q-41 0 -67.5 -3t-47 -12.5t-31 -22.5t-17.5 -39t-8.5 -55t-1.5 -78zM488 271q0 125 -22 163l-252 -364q32 -9 101 -9q41 0 67.5 2.5t47 12.5t31 22.5t17.5 39t8.5 55.5t1.5 78z" />
    <glyph glyph-name="ugrave" unicode="&#xf9;" horiz-adv-x="666" 
d="M646 21q0 -3 -13.5 -8t-44 -10.5t-66.5 -5.5h-15l-4 100q-17 -57 -57.5 -82.5t-112.5 -25.5t-116 14t-69 49t-33.5 84.5t-8.5 131.5v205h-86v46q0 3 13.5 8.5t44.5 10.5t67 5h38v-275q0 -133 25.5 -169.5t124.5 -36.5t124.5 36.5t25.5 169.5v205h-90v46q0 3 13.5 8.5
t44 10.5t66.5 5h44v-476h85v-46zM289 621l-75 175h85l51 -175h-61z" />
    <glyph glyph-name="uacute" unicode="&#xfa;" horiz-adv-x="666" 
d="M646 21q0 -3 -13.5 -8t-44 -10.5t-66.5 -5.5h-15l-4 100q-17 -57 -57.5 -82.5t-112.5 -25.5t-116 14t-69 49t-33.5 84.5t-8.5 131.5v205h-86v46q0 3 13.5 8.5t44.5 10.5t67 5h38v-275q0 -133 25.5 -169.5t124.5 -36.5t124.5 36.5t25.5 169.5v205h-90v46q0 3 13.5 8.5
t44 10.5t66.5 5h44v-476h85v-46zM414 796l-75 -175h-63l51 175h87z" />
    <glyph glyph-name="ucircumflex" unicode="&#xfb;" horiz-adv-x="666" 
d="M646 21q0 -3 -13.5 -8t-44 -10.5t-66.5 -5.5h-15l-4 100q-17 -57 -57.5 -82.5t-112.5 -25.5t-116 14t-69 49t-33.5 84.5t-8.5 131.5v205h-86v46q0 3 13.5 8.5t44.5 10.5t67 5h38v-275q0 -133 25.5 -169.5t124.5 -36.5t124.5 36.5t25.5 169.5v205h-90v46q0 3 13.5 8.5
t44 10.5t66.5 5h44v-476h85v-46zM363 621l-56 117l-56 -117h-62l64 175h108l64 -175h-62z" />
    <glyph glyph-name="udieresis" unicode="&#xfc;" horiz-adv-x="666" 
d="M646 21q0 -3 -13.5 -8t-44 -10.5t-66.5 -5.5h-15l-4 100q-17 -57 -57.5 -82.5t-112.5 -25.5t-116 14t-69 49t-33.5 84.5t-8.5 131.5v205h-86v46q0 3 13.5 8.5t44.5 10.5t67 5h38v-275q0 -133 25.5 -169.5t124.5 -36.5t124.5 36.5t25.5 169.5v205h-90v46q0 3 13.5 8.5
t44 10.5t66.5 5h44v-476h85v-46zM450 691q0 -32 -9 -40.5t-44 -8.5t-44 8.5t-9 40.5t9 41t44 9t44 -9t9 -41zM278 691q0 -32 -9 -40.5t-44 -8.5t-44 8.5t-9 40.5t9 41t44 9t44 -9t9 -41z" />
    <glyph glyph-name="yacute" unicode="&#xfd;" horiz-adv-x="568" 
d="M578 493q0 -3 -9 -7.5t-26 -9.5t-35 -6l-206 -586q-7 -19 -12.5 -30t-19 -28.5t-37.5 -26.5t-57 -9q-64 0 -91.5 32t-27.5 92v11h50q6 -40 18.5 -53.5t44.5 -13.5t45 12t25 45l31 85h-48l-163 470q-18 1 -35 6t-26 9.5t-9 7.5v46h219v-46q0 -3 -8 -8t-24.5 -9.5
t-36.5 -5.5l136 -405h16l136 405q-20 1 -36.5 5.5t-24.5 9.5t-8 8v46h219v-46zM381 796l-75 -175h-63l51 175h87z" />
    <glyph glyph-name="thorn" unicode="&#xfe;" horiz-adv-x="651" 
d="M508 271q0 48 -1.5 77t-8 55.5t-17 39t-30.5 22t-46 12.5t-66 3q-48 0 -76.5 -5.5t-48.5 -16.5t-29 -37.5t-12 -59t-3 -90.5t3 -90.5t12 -59t29 -37.5t48.5 -16.5t76.5 -5.5q40 0 66 2.5t46 12.5t30.5 22.5t17 38.5t8 55t1.5 78zM96 668h-86v46q0 3 13.5 8t44.5 10.5
t67 5.5h38v-248q46 63 166 63q78 0 126.5 -14.5t75 -51t36 -86t9.5 -130.5t-9.5 -130.5t-36 -86t-75 -51t-126.5 -14.5q-120 0 -166 62v-180q22 0 43 -5t32 -10t11 -8v-46h-249v46q0 3 11 8t32 10t43 5v797z" />
    <glyph glyph-name="ydieresis" unicode="&#xff;" horiz-adv-x="578" 
d="M583 493q0 -3 -9 -7.5t-26 -9.5t-35 -6l-206 -586q-7 -19 -12.5 -30t-19 -28.5t-37.5 -26.5t-57 -9q-64 0 -91.5 32t-27.5 92v11h50q6 -40 18.5 -53.5t44.5 -13.5t45 12t25 45l31 85h-48l-163 470q-18 1 -35 6t-26 9.5t-9 7.5v46h219v-46q0 -3 -8 -8t-24.5 -9.5
t-36.5 -5.5l136 -405h16l136 405q-20 1 -36.5 5.5t-24.5 9.5t-8 8v46h219v-46zM428 691q0 -32 -9 -40.5t-44 -8.5t-44 8.5t-9 40.5t9 41t44 9t44 -9t9 -41zM256 691q0 -32 -9 -40.5t-44 -8.5t-44 8.5t-9 40.5t9 41t44 9t44 -9t9 -41z" />
    <glyph glyph-name="Amacron" unicode="&#x100;" horiz-adv-x="720" 
d="M725 0h-259v46q0 2 10.5 7.5t32.5 10.5t47 5l-42 136h-309l-44 -136q25 0 47.5 -5t33 -10.5t10.5 -7.5v-46h-257v46q0 2 9.5 7t29 9.5t41.5 5.5l214 644h147l209 -644q22 0 41.5 -5t29 -10t9.5 -7v-46zM492 276l-115 363h-30l-119 -363h264zM494 834h-269v67h269v-67z
" />
    <glyph glyph-name="amacron" unicode="&#x101;" horiz-adv-x="627" 
d="M612 21q0 -3 -13.5 -8t-44.5 -10.5t-67 -5.5h-15l-3 68q-42 -76 -182 -76q-72 0 -120.5 13t-73 38t-34 53t-9.5 66q0 30 5 52t20 43.5t40.5 35t68.5 22t103 8.5h160q-2 99 -30 129.5t-122 30.5q-81 0 -108 -18.5t-33 -69.5h-65v147h57q4 -8 12 -35q32 49 137 49
q73 0 118 -14.5t70 -50.5t34 -86t9 -131v-204h86v-46zM450 159v96h-163q-96 0 -127.5 -23t-31.5 -73q0 -37 9.5 -55.5t44.5 -30t105 -11.5q73 0 109 11.5t45 30t9 55.5zM448 662h-269v67h269v-67z" />
    <glyph glyph-name="Abreve" unicode="&#x102;" horiz-adv-x="720" 
d="M725 0h-259v46q0 2 10.5 7.5t32.5 10.5t47 5l-42 136h-309l-44 -136q25 0 47.5 -5t33 -10.5t10.5 -7.5v-46h-257v46q0 2 9.5 7t29 9.5t41.5 5.5l214 644h147l209 -644q22 0 41.5 -5t29 -10t9.5 -7v-46zM492 276l-115 363h-30l-119 -363h264zM360 797q-73 0 -110.5 24.5
t-37.5 81.5q0 27 6 51h57q0 -26 1.5 -38.5t9.5 -26t26 -18.5t48 -5q57 0 71 19.5t14 68.5h57q6 -30 6 -51q0 -57 -37.5 -81.5t-110.5 -24.5z" />
    <glyph glyph-name="abreve" unicode="&#x103;" horiz-adv-x="627" 
d="M612 21q0 -3 -13.5 -8t-44.5 -10.5t-67 -5.5h-15l-3 68q-42 -76 -182 -76q-72 0 -120.5 13t-73 38t-34 53t-9.5 66q0 30 5 52t20 43.5t40.5 35t68.5 22t103 8.5h160q-2 99 -30 129.5t-122 30.5q-81 0 -108 -18.5t-33 -69.5h-65v147h57q4 -8 12 -35q32 49 137 49
q73 0 118 -14.5t70 -50.5t34 -86t9 -131v-204h86v-46zM450 159v96h-163q-96 0 -127.5 -23t-31.5 -73q0 -37 9.5 -55.5t44.5 -30t105 -11.5q73 0 109 11.5t45 30t9 55.5zM313 625q-73 0 -110.5 24.5t-37.5 81.5q0 27 6 51h57q0 -26 1.5 -38.5t9.5 -26t26 -18.5t48 -5
q57 0 71 19.5t14 68.5h57q6 -30 6 -51q0 -57 -37.5 -81.5t-110.5 -24.5z" />
    <glyph glyph-name="Aogonek" unicode="&#x104;" horiz-adv-x="720" 
d="M725 0h-259v46q0 2 10.5 7.5t32.5 10.5t47 5l-42 136h-309l-44 -136q25 0 47.5 -5t33 -10.5t10.5 -7.5v-46h-257v46q0 2 9.5 7t29 9.5t41.5 5.5l214 644h147l209 -644q22 0 41.5 -5t29 -10t9.5 -7v-46zM492 276l-115 363h-30l-119 -363h264zM663 -190v-50
q-35 -11 -64 -11q-100 0 -100 95q0 68 63 161h59q-51 -104 -51 -149q0 -26 12.5 -38t41.5 -12q17 0 39 4z" />
    <glyph glyph-name="aogonek" unicode="&#x105;" horiz-adv-x="627" 
d="M612 21q0 -3 -13.5 -8t-44.5 -10.5t-67 -5.5h-15l-3 68q-42 -76 -182 -76q-72 0 -120.5 13t-73 38t-34 53t-9.5 66q0 30 5 52t20 43.5t40.5 35t68.5 22t103 8.5h160q-2 99 -30 129.5t-122 30.5q-81 0 -108 -18.5t-33 -69.5h-65v147h57q4 -8 12 -35q32 49 137 49
q73 0 118 -14.5t70 -50.5t34 -86t9 -131v-204h86v-46zM450 159v96h-163q-96 0 -127.5 -23t-31.5 -73q0 -37 9.5 -55.5t44.5 -30t105 -11.5q73 0 109 11.5t45 30t9 55.5zM575 -190v-50q-35 -11 -64 -11q-100 0 -100 95q0 68 63 161h59q-51 -104 -51 -149q0 -26 12.5 -38
t41.5 -12q17 0 39 4z" />
    <glyph glyph-name="Cacute" unicode="&#x106;" horiz-adv-x="704" 
d="M598 195h55q1 -6 1 -19q0 -187 -289 -187q-80 0 -134.5 13t-90.5 38.5t-55.5 72t-27 103.5t-7.5 143q0 106 13 172.5t48.5 113t96 65.5t157.5 19q156 0 213 -74q2 16 6.5 30t8 20.5t5.5 6.5h52v-232h-60q-10 105 -54 138.5t-171 33.5q-53 0 -87.5 -4.5t-61.5 -18
t-41.5 -32t-24 -54.5t-12 -77.5t-2.5 -106.5q0 -67 2.5 -107.5t11.5 -77t23 -55t41 -32.5t62 -18t89 -4q70 0 116.5 10.5t69.5 30.5t33 40t14 49zM473 968l-75 -175h-63l51 175h87z" />
    <glyph glyph-name="cacute" unicode="&#x107;" horiz-adv-x="609" 
d="M534 156q0 -24 -1 -37t-7 -36t-20 -37t-37 -28.5t-63 -21.5t-93 -7q-79 0 -127 14.5t-75 51t-36.5 86t-9.5 130.5q0 65 6 108t21 78.5t43.5 55.5t71.5 30t106 10q112 0 159 -51q6 28 12 37h50v-182h-55q-3 50 -14 73.5t-46 36.5t-106 13q-41 0 -67 -3t-46 -12.5
t-30.5 -22t-17 -39t-8 -55.5t-1.5 -77q0 -49 1.5 -78t8 -55t17 -38.5t30.5 -22.5t46 -12.5t67 -2.5q45 0 76 5t47.5 11.5t27 21t13.5 25t7 31.5h50zM416 796l-75 -175h-63l51 175h87z" />
    <glyph glyph-name="Ccircumflex" unicode="&#x108;" horiz-adv-x="704" 
d="M598 195h55q1 -6 1 -19q0 -187 -289 -187q-80 0 -134.5 13t-90.5 38.5t-55.5 72t-27 103.5t-7.5 143q0 106 13 172.5t48.5 113t96 65.5t157.5 19q156 0 213 -74q2 16 6.5 30t8 20.5t5.5 6.5h52v-232h-60q-10 105 -54 138.5t-171 33.5q-53 0 -87.5 -4.5t-61.5 -18
t-41.5 -32t-24 -54.5t-12 -77.5t-2.5 -106.5q0 -67 2.5 -107.5t11.5 -77t23 -55t41 -32.5t62 -18t89 -4q70 0 116.5 10.5t69.5 30.5t33 40t14 49zM429 793l-56 117l-56 -117h-62l64 175h108l64 -175h-62z" />
    <glyph glyph-name="ccircumflex" unicode="&#x109;" horiz-adv-x="609" 
d="M534 156q0 -24 -1 -37t-7 -36t-20 -37t-37 -28.5t-63 -21.5t-93 -7q-79 0 -127 14.5t-75 51t-36.5 86t-9.5 130.5q0 65 6 108t21 78.5t43.5 55.5t71.5 30t106 10q112 0 159 -51q6 28 12 37h50v-182h-55q-3 50 -14 73.5t-46 36.5t-106 13q-41 0 -67 -3t-46 -12.5
t-30.5 -22t-17 -39t-8 -55.5t-1.5 -77q0 -49 1.5 -78t8 -55t17 -38.5t30.5 -22.5t46 -12.5t67 -2.5q45 0 76 5t47.5 11.5t27 21t13.5 25t7 31.5h50zM361 621l-56 117l-56 -117h-62l64 175h108l64 -175h-62z" />
    <glyph glyph-name="Cdotaccent" unicode="&#x10a;" horiz-adv-x="704" 
d="M598 195h55q1 -6 1 -19q0 -187 -289 -187q-80 0 -134.5 13t-90.5 38.5t-55.5 72t-27 103.5t-7.5 143q0 106 13 172.5t48.5 113t96 65.5t157.5 19q156 0 213 -74q2 16 6.5 30t8 20.5t5.5 6.5h52v-232h-60q-10 105 -54 138.5t-171 33.5q-53 0 -87.5 -4.5t-61.5 -18
t-41.5 -32t-24 -54.5t-12 -77.5t-2.5 -106.5q0 -67 2.5 -107.5t11.5 -77t23 -55t41 -32.5t62 -18t89 -4q70 0 116.5 10.5t69.5 30.5t33 40t14 49zM417 867q0 -32 -9 -40.5t-44 -8.5t-44 8.5t-9 40.5t9 41t44 9t44 -9t9 -41z" />
    <glyph glyph-name="cdotaccent" unicode="&#x10b;" horiz-adv-x="609" 
d="M534 156q0 -24 -1 -37t-7 -36t-20 -37t-37 -28.5t-63 -21.5t-93 -7q-79 0 -127 14.5t-75 51t-36.5 86t-9.5 130.5q0 65 6 108t21 78.5t43.5 55.5t71.5 30t106 10q112 0 159 -51q6 28 12 37h50v-182h-55q-3 50 -14 73.5t-46 36.5t-106 13q-41 0 -67 -3t-46 -12.5
t-30.5 -22t-17 -39t-8 -55.5t-1.5 -77q0 -49 1.5 -78t8 -55t17 -38.5t30.5 -22.5t46 -12.5t67 -2.5q45 0 76 5t47.5 11.5t27 21t13.5 25t7 31.5h50zM358 695q0 -32 -9 -40.5t-44 -8.5t-44 8.5t-9 40.5t9 41t44 9t44 -9t9 -41z" />
    <glyph glyph-name="Ccaron" unicode="&#x10c;" horiz-adv-x="704" 
d="M598 195h55q1 -6 1 -19q0 -187 -289 -187q-80 0 -134.5 13t-90.5 38.5t-55.5 72t-27 103.5t-7.5 143q0 106 13 172.5t48.5 113t96 65.5t157.5 19q156 0 213 -74q2 16 6.5 30t8 20.5t5.5 6.5h52v-232h-60q-10 105 -54 138.5t-171 33.5q-53 0 -87.5 -4.5t-61.5 -18
t-41.5 -32t-24 -54.5t-12 -77.5t-2.5 -106.5q0 -67 2.5 -107.5t11.5 -77t23 -55t41 -32.5t62 -18t89 -4q70 0 116.5 10.5t69.5 30.5t33 40t14 49zM362 851l56 117h62l-64 -175h-108l-64 175h62z" />
    <glyph glyph-name="ccaron" unicode="&#x10d;" horiz-adv-x="609" 
d="M534 156q0 -24 -1 -37t-7 -36t-20 -37t-37 -28.5t-63 -21.5t-93 -7q-79 0 -127 14.5t-75 51t-36.5 86t-9.5 130.5q0 65 6 108t21 78.5t43.5 55.5t71.5 30t106 10q112 0 159 -51q6 28 12 37h50v-182h-55q-3 50 -14 73.5t-46 36.5t-106 13q-41 0 -67 -3t-46 -12.5
t-30.5 -22t-17 -39t-8 -55.5t-1.5 -77q0 -49 1.5 -78t8 -55t17 -38.5t30.5 -22.5t46 -12.5t67 -2.5q45 0 76 5t47.5 11.5t27 21t13.5 25t7 31.5h50zM305 679l56 117h62l-64 -175h-108l-64 175h62z" />
    <glyph glyph-name="Dcaron" unicode="&#x10e;" horiz-adv-x="733" 
d="M683 359q0 -103 -12 -166t-46.5 -109t-97 -65t-163.5 -19h-339v46q0 3 10.5 8t32.5 10t46 5v574q-24 0 -46 5t-32.5 10t-10.5 8v46h339q101 0 163.5 -18.5t97 -64t46.5 -107.5t12 -163zM597 359q0 62 -2.5 101t-11.5 73t-24 52t-42 31.5t-63 17.5t-90 4h-168v-563h168
q66 0 105 7.5t66.5 23t40 51.5t17 80t4.5 122zM329 851l56 117h62l-64 -175h-108l-64 175h62z" />
    <glyph glyph-name="dcaron" unicode="&#x10f;" horiz-adv-x="788" 
d="M641 21q0 -3 -13.5 -8t-44 -10.5t-66.5 -5.5h-15l-4 94q-19 -54 -63 -78t-123 -24q-78 0 -126.5 14.5t-75 51t-36 86t-9.5 130.5t9.5 130.5t36 86t75 51t126.5 14.5q122 0 166 -63v178h-86v46q0 3 13.5 8t44 10.5t67.5 5.5h38v-671h86v-46zM481 271q0 58 -3 90.5t-12 59
t-29 37.5t-48.5 16.5t-76.5 5.5q-40 0 -66 -2.5t-46 -12.5t-30.5 -22.5t-17 -38.5t-8 -55t-1.5 -78t1.5 -78t8 -55t17 -38.5t30.5 -22.5t46 -12.5t66 -2.5q48 0 76.5 5.5t48.5 16.5t29 37.5t12 59t3 90.5zM748 658q0 -159 -112 -159v44q13 0 29.5 14.5t16.5 45.5
q-32 0 -43.5 11t-11.5 44q0 32 11.5 43t48.5 11q36 0 48.5 -11t12.5 -43z" />
    <glyph glyph-name="Dcroat" unicode="&#x110;" horiz-adv-x="733" 
d="M683 359q0 -103 -12 -166t-46.5 -109t-97 -65t-163.5 -19h-339v46q0 3 10.5 8t32.5 10t46 5v253h-85v67h85v254q-24 0 -46 5t-32.5 10t-10.5 8v46h339q101 0 163.5 -18.5t97 -64t46.5 -107.5t12 -163zM282 322h-86v-247h168q66 0 105 7.5t66.5 23t40 51.5t17 80t4.5 122
q0 62 -2.5 101t-11.5 73t-24 52t-42 31.5t-63 17.5t-90 4h-168v-249h86v-67z" />
    <glyph glyph-name="dcroat" unicode="&#x111;" horiz-adv-x="656" 
d="M641 21q0 -3 -13.5 -8t-44 -10.5t-66.5 -5.5h-15l-4 94q-19 -54 -63 -78t-123 -24q-78 0 -126.5 14.5t-75 51t-36 86t-9.5 130.5t9.5 130.5t36 86t75 51t126.5 14.5q122 0 166 -63v248h77v-671h86v-46zM481 271q0 58 -3 90.5t-12 59t-29 37.5t-48.5 16.5t-76.5 5.5
q-40 0 -66 -2.5t-46 -12.5t-30.5 -22.5t-17 -38.5t-8 -55t-1.5 -78t1.5 -78t8 -55t17 -38.5t30.5 -22.5t46 -12.5t66 -2.5q48 0 76.5 5.5t48.5 16.5t29 37.5t12 59t3 90.5zM614 599h-253v67h253v-67z" />
    <glyph glyph-name="Emacron" unicode="&#x112;" horiz-adv-x="676" 
d="M636 0h-611v46q0 3 10.5 8t32.5 10t46 5v574q-24 0 -46 5t-32.5 10t-10.5 8v46h590v-220h-47q-4 0 -10 14.5t-12 50t-6 81.5h-344v-234h161q0 25 5 47t10 32.5t8 10.5h45v-255h-45q-3 0 -8 11t-10 33.5t-5 47.5h-161v-258h362q0 54 6.5 93.5t12.5 54t10 14.5h49v-235z
M472 834h-269v67h269v-67z" />
    <glyph glyph-name="emacron" unicode="&#x113;" horiz-adv-x="612" 
d="M548 316l-2 -61h-407q0 -65 6 -100t26 -57.5t52.5 -29t92.5 -6.5q53 0 87 6.5t51.5 20.5t24.5 28.5t11 38.5h50q0 -27 -2 -44.5t-14.5 -43t-34.5 -41t-66.5 -27t-106.5 -11.5q-80 0 -129 14.5t-76 51t-36.5 85.5t-9.5 131q0 81 9.5 131t36 86t74 50.5t124.5 14.5
q138 0 188.5 -58t50.5 -179zM142 321h332q0 96 -34 128.5t-131 32.5q-101 0 -132 -30t-35 -131zM441 662h-269v67h269v-67z" />
    <glyph glyph-name="Ebreve" unicode="&#x114;" horiz-adv-x="676" 
d="M636 0h-611v46q0 3 10.5 8t32.5 10t46 5v574q-24 0 -46 5t-32.5 10t-10.5 8v46h590v-220h-47q-4 0 -10 14.5t-12 50t-6 81.5h-344v-234h161q0 25 5 47t10 32.5t8 10.5h45v-255h-45q-3 0 -8 11t-10 33.5t-5 47.5h-161v-258h362q0 54 6.5 93.5t12.5 54t10 14.5h49v-235z
M338 797q-73 0 -110.5 24.5t-37.5 81.5q0 27 6 51h57q0 -26 1.5 -38.5t9.5 -26t26 -18.5t48 -5q57 0 71 19.5t14 68.5h57q6 -30 6 -51q0 -57 -37.5 -81.5t-110.5 -24.5z" />
    <glyph glyph-name="ebreve" unicode="&#x115;" horiz-adv-x="612" 
d="M548 316l-2 -61h-407q0 -65 6 -100t26 -57.5t52.5 -29t92.5 -6.5q53 0 87 6.5t51.5 20.5t24.5 28.5t11 38.5h50q0 -27 -2 -44.5t-14.5 -43t-34.5 -41t-66.5 -27t-106.5 -11.5q-80 0 -129 14.5t-76 51t-36.5 85.5t-9.5 131q0 81 9.5 131t36 86t74 50.5t124.5 14.5
q138 0 188.5 -58t50.5 -179zM142 321h332q0 96 -34 128.5t-131 32.5q-101 0 -132 -30t-35 -131zM306 625q-73 0 -110.5 24.5t-37.5 81.5q0 27 6 51h57q0 -26 1.5 -38.5t9.5 -26t26 -18.5t48 -5q57 0 71 19.5t14 68.5h57q6 -30 6 -51q0 -57 -37.5 -81.5t-110.5 -24.5z" />
    <glyph glyph-name="Edotaccent" unicode="&#x116;" horiz-adv-x="676" 
d="M636 0h-611v46q0 3 10.5 8t32.5 10t46 5v574q-24 0 -46 5t-32.5 10t-10.5 8v46h590v-220h-47q-4 0 -10 14.5t-12 50t-6 81.5h-344v-234h161q0 25 5 47t10 32.5t8 10.5h45v-255h-45q-3 0 -8 11t-10 33.5t-5 47.5h-161v-258h362q0 54 6.5 93.5t12.5 54t10 14.5h49v-235z
M391 867q0 -32 -9 -40.5t-44 -8.5t-44 8.5t-9 40.5t9 41t44 9t44 -9t9 -41z" />
    <glyph glyph-name="edotaccent" unicode="&#x117;" horiz-adv-x="612" 
d="M548 316l-2 -61h-407q0 -65 6 -100t26 -57.5t52.5 -29t92.5 -6.5q53 0 87 6.5t51.5 20.5t24.5 28.5t11 38.5h50q0 -27 -2 -44.5t-14.5 -43t-34.5 -41t-66.5 -27t-106.5 -11.5q-80 0 -129 14.5t-76 51t-36.5 85.5t-9.5 131q0 81 9.5 131t36 86t74 50.5t124.5 14.5
q138 0 188.5 -58t50.5 -179zM142 321h332q0 96 -34 128.5t-131 32.5q-101 0 -132 -30t-35 -131zM359 695q0 -32 -9 -40.5t-44 -8.5t-44 8.5t-9 40.5t9 41t44 9t44 -9t9 -41z" />
    <glyph glyph-name="Eogonek" unicode="&#x118;" horiz-adv-x="676" 
d="M636 0h-611v46q0 3 10.5 8t32.5 10t46 5v574q-24 0 -46 5t-32.5 10t-10.5 8v46h590v-220h-47q-4 0 -10 14.5t-12 50t-6 81.5h-344v-234h161q0 25 5 47t10 32.5t8 10.5h45v-255h-45q-3 0 -8 11t-10 33.5t-5 47.5h-161v-258h362q0 54 6.5 93.5t12.5 54t10 14.5h49v-235z
M636 -190v-50q-35 -11 -64 -11q-100 0 -100 95q0 68 63 161h59q-51 -104 -51 -149q0 -26 12.5 -38t41.5 -12q17 0 39 4z" />
    <glyph glyph-name="eogonek" unicode="&#x119;" horiz-adv-x="612" 
d="M548 316l-2 -61h-407q0 -65 6 -100t26 -57.5t52.5 -29t92.5 -6.5q53 0 87 6.5t51.5 20.5t24.5 28.5t11 38.5h50q0 -27 -2 -44.5t-14.5 -43t-34.5 -41t-66.5 -27t-106.5 -11.5q-80 0 -129 14.5t-76 51t-36.5 85.5t-9.5 131q0 81 9.5 131t36 86t74 50.5t124.5 14.5
q138 0 188.5 -58t50.5 -179zM142 321h332q0 96 -34 128.5t-131 32.5q-101 0 -132 -30t-35 -131zM472 -190v-50q-35 -11 -64 -11q-100 0 -100 95q0 68 63 161h59q-51 -104 -51 -149q0 -26 12.5 -38t41.5 -12q17 0 39 4z" />
    <glyph glyph-name="Ecaron" unicode="&#x11a;" horiz-adv-x="676" 
d="M636 0h-611v46q0 3 10.5 8t32.5 10t46 5v574q-24 0 -46 5t-32.5 10t-10.5 8v46h590v-220h-47q-4 0 -10 14.5t-12 50t-6 81.5h-344v-234h161q0 25 5 47t10 32.5t8 10.5h45v-255h-45q-3 0 -8 11t-10 33.5t-5 47.5h-161v-258h362q0 54 6.5 93.5t12.5 54t10 14.5h49v-235z
M338 851l56 117h62l-64 -175h-108l-64 175h62z" />
    <glyph glyph-name="ecaron" unicode="&#x11b;" horiz-adv-x="612" 
d="M548 316l-2 -61h-407q0 -65 6 -100t26 -57.5t52.5 -29t92.5 -6.5q53 0 87 6.5t51.5 20.5t24.5 28.5t11 38.5h50q0 -27 -2 -44.5t-14.5 -43t-34.5 -41t-66.5 -27t-106.5 -11.5q-80 0 -129 14.5t-76 51t-36.5 85.5t-9.5 131q0 81 9.5 131t36 86t74 50.5t124.5 14.5
q138 0 188.5 -58t50.5 -179zM142 321h332q0 96 -34 128.5t-131 32.5q-101 0 -132 -30t-35 -131zM306 679l56 117h62l-64 -175h-108l-64 175h62z" />
    <glyph glyph-name="Gcircumflex" unicode="&#x11c;" horiz-adv-x="752" 
d="M722 313q0 -2 -17 -7.5t-35 -9.5l-17 -5v-291h-46q-3 0 -8 10.5t-9.5 32.5t-4.5 46v38q-32 -138 -220 -138q-80 0 -134.5 13t-90.5 38.5t-55.5 72t-27 103.5t-7.5 143t7.5 143t27 103.5t55.5 72t90.5 38.5t134.5 13q156 0 213 -74q2 16 6.5 30t8 20.5t5.5 6.5h52v-232
h-60q-10 105 -54 138.5t-171 33.5q-54 0 -89 -4t-62 -18t-41 -32.5t-23 -54.5t-11.5 -77t-2.5 -107q0 -67 2.5 -107.5t11.5 -77t23 -55t41 -32.5t62 -18t89 -4q55 0 93 11.5t58.5 27.5t32.5 49t15.5 60t6.5 78q-47 0 -80.5 5t-45.5 9.5t-12 7.5v46h289v-46zM432 793l-56 117
l-56 -117h-62l64 175h108l64 -175h-62z" />
    <glyph glyph-name="gcircumflex" unicode="&#x11d;" horiz-adv-x="651" 
d="M621 604q0 -68 -17 -110t-59 -65q8 -32 8 -81q0 -53 -9 -88t-34.5 -63t-73 -40.5t-121.5 -12.5q-106 0 -161 29q-16 -16 -16 -45q0 -11 4 -20t18 -19t38 -16.5t67 -11t102 -4.5q80 0 131.5 -8.5t76 -27t32.5 -39.5t8 -53q0 -26 -4.5 -43.5t-21 -36t-46 -29t-82.5 -17.5
t-128 -7q-91 0 -151 9.5t-87 28.5t-36 37.5t-9 45.5q0 22 3.5 36.5t14.5 30t36.5 24.5t65.5 11q-88 18 -88 104q0 21 11.5 43.5t25.5 32.5q-41 45 -41 149q0 53 9 88t34 63t72.5 41t121.5 13q165 0 211 -75q25 15 25 55v81h70v-10zM479 348q0 45 -4.5 68t-22 40.5t-49 23
t-88.5 5.5q-75 0 -109 -13t-44 -39t-10 -85q0 -44 4.5 -67t21.5 -40.5t48.5 -23t88.5 -5.5t88.5 5.5t49 23t22 40.5t4.5 67zM542 -76q0 26 -11.5 37.5t-57 18.5t-142.5 7t-142.5 -7t-57 -18.5t-11.5 -37.5t11.5 -37.5t57 -18.5t142.5 -7t142.5 7t57 18.5t11.5 37.5zM381 621
l-56 117l-56 -117h-62l64 175h108l64 -175h-62z" />
    <glyph glyph-name="Gbreve" unicode="&#x11e;" horiz-adv-x="752" 
d="M722 313q0 -2 -17 -7.5t-35 -9.5l-17 -5v-291h-46q-3 0 -8 10.5t-9.5 32.5t-4.5 46v38q-32 -138 -220 -138q-80 0 -134.5 13t-90.5 38.5t-55.5 72t-27 103.5t-7.5 143t7.5 143t27 103.5t55.5 72t90.5 38.5t134.5 13q156 0 213 -74q2 16 6.5 30t8 20.5t5.5 6.5h52v-232
h-60q-10 105 -54 138.5t-171 33.5q-54 0 -89 -4t-62 -18t-41 -32.5t-23 -54.5t-11.5 -77t-2.5 -107q0 -67 2.5 -107.5t11.5 -77t23 -55t41 -32.5t62 -18t89 -4q55 0 93 11.5t58.5 27.5t32.5 49t15.5 60t6.5 78q-47 0 -80.5 5t-45.5 9.5t-12 7.5v46h289v-46zM376 797
q-73 0 -110.5 24.5t-37.5 81.5q0 27 6 51h57q0 -26 1.5 -38.5t9.5 -26t26 -18.5t48 -5q57 0 71 19.5t14 68.5h57q6 -30 6 -51q0 -57 -37.5 -81.5t-110.5 -24.5z" />
    <glyph glyph-name="gbreve" unicode="&#x11f;" horiz-adv-x="651" 
d="M621 604q0 -68 -17 -110t-59 -65q8 -32 8 -81q0 -53 -9 -88t-34.5 -63t-73 -40.5t-121.5 -12.5q-106 0 -161 29q-16 -16 -16 -45q0 -11 4 -20t18 -19t38 -16.5t67 -11t102 -4.5q80 0 131.5 -8.5t76 -27t32.5 -39.5t8 -53q0 -26 -4.5 -43.5t-21 -36t-46 -29t-82.5 -17.5
t-128 -7q-91 0 -151 9.5t-87 28.5t-36 37.5t-9 45.5q0 22 3.5 36.5t14.5 30t36.5 24.5t65.5 11q-88 18 -88 104q0 21 11.5 43.5t25.5 32.5q-41 45 -41 149q0 53 9 88t34 63t72.5 41t121.5 13q165 0 211 -75q25 15 25 55v81h70v-10zM479 348q0 45 -4.5 68t-22 40.5t-49 23
t-88.5 5.5q-75 0 -109 -13t-44 -39t-10 -85q0 -44 4.5 -67t21.5 -40.5t48.5 -23t88.5 -5.5t88.5 5.5t49 23t22 40.5t4.5 67zM542 -76q0 26 -11.5 37.5t-57 18.5t-142.5 7t-142.5 -7t-57 -18.5t-11.5 -37.5t11.5 -37.5t57 -18.5t142.5 -7t142.5 7t57 18.5t11.5 37.5zM325 625
q-73 0 -110.5 24.5t-37.5 81.5q0 27 6 51h57q0 -26 1.5 -38.5t9.5 -26t26 -18.5t48 -5q57 0 71 19.5t14 68.5h57q6 -30 6 -51q0 -57 -37.5 -81.5t-110.5 -24.5z" />
    <glyph glyph-name="Gdotaccent" unicode="&#x120;" horiz-adv-x="752" 
d="M722 313q0 -2 -17 -7.5t-35 -9.5l-17 -5v-291h-46q-3 0 -8 10.5t-9.5 32.5t-4.5 46v38q-32 -138 -220 -138q-80 0 -134.5 13t-90.5 38.5t-55.5 72t-27 103.5t-7.5 143t7.5 143t27 103.5t55.5 72t90.5 38.5t134.5 13q156 0 213 -74q2 16 6.5 30t8 20.5t5.5 6.5h52v-232
h-60q-10 105 -54 138.5t-171 33.5q-54 0 -89 -4t-62 -18t-41 -32.5t-23 -54.5t-11.5 -77t-2.5 -107q0 -67 2.5 -107.5t11.5 -77t23 -55t41 -32.5t62 -18t89 -4q55 0 93 11.5t58.5 27.5t32.5 49t15.5 60t6.5 78q-47 0 -80.5 5t-45.5 9.5t-12 7.5v46h289v-46zM429 867
q0 -32 -9 -40.5t-44 -8.5t-44 8.5t-9 40.5t9 41t44 9t44 -9t9 -41z" />
    <glyph glyph-name="gdotaccent" unicode="&#x121;" horiz-adv-x="651" 
d="M621 604q0 -68 -17 -110t-59 -65q8 -32 8 -81q0 -53 -9 -88t-34.5 -63t-73 -40.5t-121.5 -12.5q-106 0 -161 29q-16 -16 -16 -45q0 -11 4 -20t18 -19t38 -16.5t67 -11t102 -4.5q80 0 131.5 -8.5t76 -27t32.5 -39.5t8 -53q0 -26 -4.5 -43.5t-21 -36t-46 -29t-82.5 -17.5
t-128 -7q-91 0 -151 9.5t-87 28.5t-36 37.5t-9 45.5q0 22 3.5 36.5t14.5 30t36.5 24.5t65.5 11q-88 18 -88 104q0 21 11.5 43.5t25.5 32.5q-41 45 -41 149q0 53 9 88t34 63t72.5 41t121.5 13q165 0 211 -75q25 15 25 55v81h70v-10zM479 348q0 45 -4.5 68t-22 40.5t-49 23
t-88.5 5.5q-75 0 -109 -13t-44 -39t-10 -85q0 -44 4.5 -67t21.5 -40.5t48.5 -23t88.5 -5.5t88.5 5.5t49 23t22 40.5t4.5 67zM542 -76q0 26 -11.5 37.5t-57 18.5t-142.5 7t-142.5 -7t-57 -18.5t-11.5 -37.5t11.5 -37.5t57 -18.5t142.5 -7t142.5 7t57 18.5t11.5 37.5zM378 695
q0 -32 -9 -40.5t-44 -8.5t-44 8.5t-9 40.5t9 41t44 9t44 -9t9 -41z" />
    <glyph glyph-name="Gcommaaccent" unicode="&#x122;" horiz-adv-x="752" 
d="M401 -104q0 -143 -101 -143v39q11 0 26.5 12.5t15.5 36.5v5q-28 0 -39 10.5t-11 39.5t10.5 38.5t43.5 9.5t44 -9.5t11 -38.5zM722 313q0 -2 -17 -7.5t-35 -9.5l-17 -5v-291h-46q-3 0 -8 10.5t-9.5 32.5t-4.5 46v38q-32 -138 -220 -138q-80 0 -134.5 13t-90.5 38.5
t-55.5 72t-27 103.5t-7.5 143t7.5 143t27 103.5t55.5 72t90.5 38.5t134.5 13q156 0 213 -74q2 16 6.5 30t8 20.5t5.5 6.5h52v-232h-60q-10 105 -54 138.5t-171 33.5q-54 0 -89 -4t-62 -18t-41 -32.5t-23 -54.5t-11.5 -77t-2.5 -107q0 -67 2.5 -107.5t11.5 -77t23 -55
t41 -32.5t62 -18t89 -4q55 0 93 11.5t58.5 27.5t32.5 49t15.5 60t6.5 78q-47 0 -80.5 5t-45.5 9.5t-12 7.5v46h289v-46z" />
    <glyph glyph-name="gcommaaccent" unicode="&#x123;" horiz-adv-x="651" 
d="M266 693q0 143 101 143v-39q-11 0 -26.5 -12.5t-15.5 -36.5v-5q28 0 39 -10.5t11 -39.5t-10.5 -38.5t-43.5 -9.5t-44 9.5t-11 38.5zM621 604q0 -68 -17 -110t-59 -65q8 -32 8 -81q0 -53 -9 -88t-34.5 -63t-73 -40.5t-121.5 -12.5q-106 0 -161 29q-16 -16 -16 -45
q0 -11 4 -20t18 -19t38 -16.5t67 -11t102 -4.5q80 0 131.5 -8.5t76 -27t32.5 -39.5t8 -53q0 -26 -4.5 -43.5t-21 -36t-46 -29t-82.5 -17.5t-128 -7q-91 0 -151 9.5t-87 28.5t-36 37.5t-9 45.5q0 22 3.5 36.5t14.5 30t36.5 24.5t65.5 11q-88 18 -88 104q0 21 11.5 43.5
t25.5 32.5q-41 45 -41 149q0 53 9 88t34 63t72.5 41t121.5 13q165 0 211 -75q25 15 25 55v81h70v-10zM479 348q0 45 -4.5 68t-22 40.5t-49 23t-88.5 5.5q-75 0 -109 -13t-44 -39t-10 -85q0 -44 4.5 -67t21.5 -40.5t48.5 -23t88.5 -5.5t88.5 5.5t49 23t22 40.5t4.5 67z
M542 -76q0 26 -11.5 37.5t-57 18.5t-142.5 7t-142.5 -7t-57 -18.5t-11.5 -37.5t11.5 -37.5t57 -18.5t142.5 -7t142.5 7t57 18.5t11.5 37.5z" />
    <glyph glyph-name="Hcircumflex" unicode="&#x124;" horiz-adv-x="771" 
d="M746 0h-261v46q0 3 10.5 8t32.5 10t46 5v262h-378v-262q24 0 46 -5t33 -10t11 -8v-46h-261v46q0 3 10.5 8t32.5 10t46 5v574q-24 0 -46 5t-32.5 10t-10.5 8v46h261v-46q0 -3 -11 -8t-33 -10t-46 -5v-239h378v239q-24 0 -46 5t-32.5 10t-10.5 8v46h261v-46q0 -3 -10.5 -8
t-32.5 -10t-46 -5v-574q24 0 46 -5t32.5 -10t10.5 -8v-46zM441 793l-56 117l-56 -117h-62l64 175h108l64 -175h-62z" />
    <glyph glyph-name="hcircumflex" unicode="&#x125;" horiz-adv-x="686" 
d="M671 0h-249v46q0 3 11 8t32 10t43 5v205q0 57 -3 89t-11.5 58t-27 37t-45.5 16.5t-72 5.5q-84 0 -122.5 -54t-38.5 -142v-215q22 0 43 -5t32 -10t11 -8v-46h-249v46q0 3 11 8t32 10t43 5v599h-86v46q0 3 13.5 8t44.5 10.5t67 5.5h38v-298q43 113 177 113q130 0 175.5 -63
t45.5 -216v-205q22 0 43 -5t31.5 -10t10.5 -8v-46zM200 776l-56 117l-56 -117h-62l64 175h108l64 -175h-62z" />
    <glyph glyph-name="Hbar" unicode="&#x126;" horiz-adv-x="771" 
d="M718 496h-661v70h661v-70zM746 0h-261v46q0 3 10.5 8t32.5 10t46 5v262h-378v-262q24 0 46 -5t33 -10t11 -8v-46h-261v46q0 3 10.5 8t32.5 10t46 5v574q-24 0 -46 5t-32.5 10t-10.5 8v46h261v-46q0 -3 -11 -8t-33 -10t-46 -5v-239h378v239q-24 0 -46 5t-32.5 10t-10.5 8
v46h261v-46q0 -3 -10.5 -8t-32.5 -10t-46 -5v-574q24 0 46 -5t32.5 -10t10.5 -8v-46z" />
    <glyph glyph-name="hbar" unicode="&#x127;" horiz-adv-x="686" 
d="M671 0h-249v46q0 3 11 8t32 10t43 5v205q0 57 -3 89t-11.5 58t-27 37t-45.5 16.5t-72 5.5q-84 0 -122.5 -54t-38.5 -142v-215q22 0 43 -5t32 -10t11 -8v-46h-249v46q0 3 11 8t32 10t43 5v669h77v-298q43 113 177 113q130 0 175.5 -63t45.5 -216v-205q22 0 43 -5t31.5 -10
t10.5 -8v-46zM321 600h-269v67h269v-67z" />
    <glyph glyph-name="Itilde" unicode="&#x128;" horiz-adv-x="311" 
d="M286 0h-261v46q0 3 10.5 8t32.5 10t46 5v574q-24 0 -46 5t-32.5 10t-10.5 8v46h261v-46q0 -3 -11 -8t-33 -10t-46 -5v-574q24 0 46 -5t33 -10t11 -8v-46zM92 930q28 0 71 -19t60 -19q35 0 42 37h66q-9 -50 -38 -81.5t-69 -31.5q-29 0 -78 19t-64 19q-12 0 -23.5 -10.5
t-16.5 -26.5h-61q17 113 111 113z" />
    <glyph glyph-name="itilde" unicode="&#x129;" horiz-adv-x="299" 
d="M279 0h-249v46q0 3 11 8t32 10t43 5v404h-86v46q0 3 13.5 8.5t44.5 10.5t67 5h38v-474q22 0 43 -5t32 -10t11 -8v-46zM86 758q28 0 71 -19t60 -19q35 0 42 37h66q-9 -50 -38 -81.5t-69 -31.5q-29 0 -78 19t-64 19q-12 0 -23.5 -10.5t-16.5 -26.5h-61q17 113 111 113z" />
    <glyph glyph-name="Imacron" unicode="&#x12a;" horiz-adv-x="311" 
d="M286 0h-261v46q0 3 10.5 8t32.5 10t46 5v574q-24 0 -46 5t-32.5 10t-10.5 8v46h261v-46q0 -3 -11 -8t-33 -10t-46 -5v-574q24 0 46 -5t33 -10t11 -8v-46zM290 834h-269v67h269v-67z" />
    <glyph glyph-name="imacron" unicode="&#x12b;" horiz-adv-x="299" 
d="M279 0h-249v46q0 3 11 8t32 10t43 5v404h-86v46q0 3 13.5 8.5t44.5 10.5t67 5h38v-474q22 0 43 -5t32 -10t11 -8v-46zM284 662h-269v67h269v-67z" />
    <glyph glyph-name="Ibreve" unicode="&#x12c;" horiz-adv-x="311" 
d="M286 0h-261v46q0 3 10.5 8t32.5 10t46 5v574q-24 0 -46 5t-32.5 10t-10.5 8v46h261v-46q0 -3 -11 -8t-33 -10t-46 -5v-574q24 0 46 -5t33 -10t11 -8v-46zM156 797q-73 0 -110.5 24.5t-37.5 81.5q0 27 6 51h57q0 -26 1.5 -38.5t9.5 -26t26 -18.5t48 -5q57 0 71 19.5
t14 68.5h57q6 -30 6 -51q0 -57 -37.5 -81.5t-110.5 -24.5z" />
    <glyph glyph-name="ibreve" unicode="&#x12d;" horiz-adv-x="299" 
d="M279 0h-249v46q0 3 11 8t32 10t43 5v404h-86v46q0 3 13.5 8.5t44.5 10.5t67 5h38v-474q22 0 43 -5t32 -10t11 -8v-46zM150 625q-73 0 -110.5 24.5t-37.5 81.5q0 27 6 51h57q0 -26 1.5 -38.5t9.5 -26t26 -18.5t48 -5q57 0 71 19.5t14 68.5h57q6 -30 6 -51
q0 -57 -37.5 -81.5t-110.5 -24.5z" />
    <glyph glyph-name="Iogonek" unicode="&#x12e;" horiz-adv-x="311" 
d="M286 0h-261v46q0 3 10.5 8t32.5 10t46 5v574q-24 0 -46 5t-32.5 10t-10.5 8v46h261v-46q0 -3 -11 -8t-33 -10t-46 -5v-574q24 0 46 -5t33 -10t11 -8v-46zM223 -190v-50q-35 -11 -64 -11q-100 0 -100 95q0 68 63 161h59q-51 -104 -51 -149q0 -26 12.5 -38t41.5 -12
q17 0 39 4z" />
    <glyph glyph-name="iogonek" unicode="&#x12f;" horiz-adv-x="299" 
d="M205 674q0 -32 -9 -40.5t-44 -8.5t-44 8.5t-9 40.5t9 41t44 9t44 -9t9 -41zM279 0h-249v46q0 3 11 8t32 10t43 5v404h-86v46q0 3 13.5 8.5t44.5 10.5t67 5h38v-474q22 0 43 -5t32 -10t11 -8v-46zM232 -190v-50q-35 -11 -64 -11q-100 0 -100 95q0 68 63 161h59
q-51 -104 -51 -149q0 -26 12.5 -38t41.5 -12q17 0 39 4z" />
    <glyph glyph-name="Idotaccent" unicode="&#x130;" horiz-adv-x="311" 
d="M286 0h-261v46q0 3 10.5 8t32.5 10t46 5v574q-24 0 -46 5t-32.5 10t-10.5 8v46h261v-46q0 -3 -11 -8t-33 -10t-46 -5v-574q24 0 46 -5t33 -10t11 -8v-46zM209 867q0 -32 -9 -40.5t-44 -8.5t-44 8.5t-9 40.5t9 41t44 9t44 -9t9 -41z" />
    <glyph glyph-name="dotlessi" unicode="&#x131;" horiz-adv-x="299" 
d="M279 0h-249v46q0 3 11 8t32 10t43 5v404h-86v46q0 3 13.5 8.5t44.5 10.5t67 5h38v-474q22 0 43 -5t32 -10t11 -8v-46z" />
    <glyph glyph-name="IJ" unicode="&#x132;" horiz-adv-x="764" 
d="M286 0h-261v46q0 3 10.5 8t32.5 10t46 5v574q-24 0 -46 5t-32.5 10t-10.5 8v46h261v-46q0 -3 -11 -8t-33 -10t-46 -5v-574q24 0 46 -5t33 -10t11 -8v-46zM744 666q0 -3 -10.5 -8t-32.5 -10t-46 -5v-443q0 -113 -35.5 -162t-134.5 -49q-92 0 -128 45.5t-36 122.5
q0 69 33 108.5t84 39.5q19 0 33 -3.5t14 -7.5v-47q-51 0 -69 -21.5t-18 -68.5q0 -48 17 -70t70 -22q55 0 71.5 26t16.5 109v443h-32q-24 0 -46 5t-32.5 10t-10.5 8v46h292v-46z" />
    <glyph glyph-name="ij" unicode="&#x133;" horiz-adv-x="591" 
d="M205 674q0 -32 -9 -40.5t-44 -8.5t-44 8.5t-9 40.5t9 41t44 9t44 -9t9 -41zM279 0h-249v46q0 3 11 8t32 10t43 5v404h-86v46q0 3 13.5 8.5t44.5 10.5t67 5h38v-474q22 0 43 -5t32 -10t11 -8v-46zM500 674q0 -32 -9 -40.5t-44 -8.5t-44 8.5t-9 40.5t9 41t44 9t44 -9t9 -41
zM489 -30q0 -49 -12.5 -84t-28 -52.5t-42.5 -26.5t-44 -10.5t-43 -1.5v50q47 7 69.5 33t22.5 92v503h-86v46q0 3 13.5 8.5t44.5 10.5t67 5h39v-573z" />
    <glyph glyph-name="Jcircumflex" unicode="&#x134;" horiz-adv-x="453" 
d="M433 666q0 -3 -10.5 -8t-32.5 -10t-46 -5v-443q0 -113 -35.5 -162t-134.5 -49q-92 0 -128 45.5t-36 122.5q0 69 33 108.5t84 39.5q19 0 33 -3.5t14 -7.5v-47q-51 0 -69 -21.5t-18 -68.5q0 -48 17 -70t70 -22q55 0 71.5 26t16.5 109v443h-32q-24 0 -46 5t-32.5 10t-10.5 8
v46h292v-46zM339 793l-56 117l-56 -117h-62l64 175h108l64 -175h-62z" />
    <glyph glyph-name="jcircumflex" unicode="&#x135;" horiz-adv-x="292" 
d="M190 -30q0 -49 -12.5 -84t-28 -52.5t-42.5 -26.5t-44 -10.5t-43 -1.5v50q47 7 69.5 33t22.5 92v503h-86v46q0 3 13.5 8.5t44.5 10.5t67 5h39v-573zM202 621l-56 117l-56 -117h-62l64 175h108l64 -175h-62z" />
    <glyph glyph-name="Kcommaaccent" unicode="&#x136;" horiz-adv-x="711" 
d="M401 -104q0 -143 -101 -143v39q11 0 26.5 12.5t15.5 36.5v5q-28 0 -39 10.5t-11 39.5t10.5 38.5t43.5 9.5t44 -9.5t11 -38.5zM700 0h-268v46q0 2 10 7t29 10t39 5l-194 275l-120 -131v-143q24 0 46 -5t33 -10t11 -8v-46h-261v46q0 3 10.5 8t32.5 10t46 5v574q-24 0 -46 5
t-32.5 10t-10.5 8v46h261v-46q0 -3 -11 -8t-33 -10t-46 -5v-323l290 324q-19 1 -36 6t-25.5 9.5t-8.5 6.5v46h261v-46q0 -3 -10.5 -8t-32.5 -10t-46 -5l-218 -240l239 -334q26 0 48.5 -5t32.5 -10t10 -8v-46z" />
    <glyph glyph-name="kcommaaccent" unicode="&#x137;" horiz-adv-x="610" 
d="M375 -104q0 -143 -101 -143v39q11 0 26.5 12.5t15.5 36.5v5q-28 0 -39 10.5t-11 39.5t10.5 38.5t43.5 9.5t44 -9.5t11 -38.5zM605 0h-235v46q0 2 7.5 6t22 8.5t30.5 6.5l-155 191l-87 -81v-108q22 0 43 -5t32 -10t11 -8v-46h-249v46q0 3 11 8t32 10t43 5v599h-86v46
q0 3 12 8t39 10.5t59 5.5h53v-474l202 207q-18 1 -33.5 6t-22.5 9.5t-7 6.5v46h240v-46q0 -3 -10.5 -8t-30 -10t-39.5 -5l-159 -160l200 -242q20 -1 39 -5.5t28.5 -9.5t9.5 -7v-46z" />
    <glyph glyph-name="kgreenlandic" unicode="&#x138;" horiz-adv-x="610" 
d="M605 0h-235v46q0 2 7.5 6t22 8.5t30.5 6.5l-155 191l-87 -81v-108q22 0 43 -5t32 -10t11 -8v-46h-249v46q0 3 11 8t32 10t43 5v401h-86v46q0 3 12 8t39 10.5t59 5.5h53v-276l202 207q-18 1 -33.5 6t-22.5 9.5t-7 6.5v46h240v-46q0 -3 -10.5 -8t-30 -10t-39.5 -5
l-159 -160l200 -242q20 -1 39 -5.5t28.5 -9.5t9.5 -7v-46z" />
    <glyph glyph-name="Lacute" unicode="&#x139;" horiz-adv-x="611" 
d="M601 0h-576v46q0 3 10.5 8t32.5 10t46 5v574q-24 0 -46 5t-32.5 10t-10.5 8v46h293v-46q0 -3 -11 -8t-33 -10t-46 -5h-32v-570h327q0 61 6.5 105t12.5 59.5t10 15.5h49v-253zM262 968l-75 -175h-63l51 175h87z" />
    <glyph glyph-name="lacute" unicode="&#x13a;" horiz-adv-x="294" 
d="M274 0h-249v46q0 3 11 8t32 10t43 5v599h-86v46q0 3 13.5 8t44.5 10.5t67 5.5h38v-669q22 0 43 -5t32 -10t11 -8v-46zM250 968l-75 -175h-63l51 175h87z" />
    <glyph glyph-name="Lcommaaccent" unicode="&#x13b;" horiz-adv-x="611" 
d="M368 -104q0 -143 -101 -143v39q11 0 26.5 12.5t15.5 36.5v5q-28 0 -39 10.5t-11 39.5t10.5 38.5t43.5 9.5t44 -9.5t11 -38.5zM601 0h-576v46q0 3 10.5 8t32.5 10t46 5v574q-24 0 -46 5t-32.5 10t-10.5 8v46h293v-46q0 -3 -11 -8t-33 -10t-46 -5h-32v-570h327
q0 61 6.5 105t12.5 59.5t10 15.5h49v-253z" />
    <glyph glyph-name="lcommaaccent" unicode="&#x13c;" horiz-adv-x="294" 
d="M203 -104q0 -143 -101 -143v39q11 0 26.5 12.5t15.5 36.5v5q-28 0 -39 10.5t-11 39.5t10.5 38.5t43.5 9.5t44 -9.5t11 -38.5zM274 0h-249v46q0 3 11 8t32 10t43 5v599h-86v46q0 3 13.5 8t44.5 10.5t67 5.5h38v-669q22 0 43 -5t32 -10t11 -8v-46z" />
    <glyph glyph-name="Lcaron" unicode="&#x13d;" horiz-adv-x="611" 
d="M601 0h-576v46q0 3 10.5 8t32.5 10t46 5v574q-24 0 -46 5t-32.5 10t-10.5 8v46h293v-46q0 -3 -11 -8t-33 -10t-46 -5h-32v-570h327q0 61 6.5 105t12.5 59.5t10 15.5h49v-253zM551 663q0 -159 -112 -159v44q13 0 29.5 14.5t16.5 45.5q-32 0 -43.5 11t-11.5 44
q0 32 11.5 43t48.5 11q36 0 48.5 -11t12.5 -43z" />
    <glyph glyph-name="lcaron" unicode="&#x13e;" horiz-adv-x="423" 
d="M274 0h-249v46q0 3 11 8t32 10t43 5v599h-86v46q0 3 13.5 8t44.5 10.5t67 5.5h38v-669q22 0 43 -5t32 -10t11 -8v-46zM383 658q0 -159 -112 -159v44q13 0 29.5 14.5t16.5 45.5q-32 0 -43.5 11t-11.5 44q0 32 11.5 43t48.5 11q36 0 48.5 -11t12.5 -43z" />
    <glyph glyph-name="Ldot" unicode="&#x13f;" horiz-adv-x="611" 
d="M601 0h-576v46q0 3 10.5 8t32.5 10t46 5v574q-24 0 -46 5t-32.5 10t-10.5 8v46h293v-46q0 -3 -11 -8t-33 -10t-46 -5h-32v-570h327q0 61 6.5 105t12.5 59.5t10 15.5h49v-253zM516 420q0 -36 -12.5 -48t-50.5 -12t-50.5 12t-12.5 48q0 35 12.5 47t50.5 12t50.5 -12
t12.5 -47z" />
    <glyph glyph-name="ldot" unicode="&#x140;" horiz-adv-x="349" 
d="M274 0h-249v46q0 3 11 8t32 10t43 5v599h-86v46q0 3 13.5 8t44.5 10.5t67 5.5h38v-669q22 0 43 -5t32 -10t11 -8v-46zM384 367q0 -36 -12.5 -48t-50.5 -12t-50.5 12t-12.5 48q0 35 12.5 47t50.5 12t50.5 -12t12.5 -47z" />
    <glyph glyph-name="Lslash" unicode="&#x141;" horiz-adv-x="611" 
d="M338 354l-142 -49v-232h327q0 61 6.5 105t12.5 59.5t10 15.5h49v-253h-576v46q0 3 10.5 8t32.5 10t46 5v208l-58 -20l-22 63l80 27v296q-24 0 -46 5t-32.5 10t-10.5 8v46h293v-46q0 -3 -11 -8t-33 -10t-46 -5h-32v-268l120 42z" />
    <glyph glyph-name="lslash" unicode="&#x142;" horiz-adv-x="294" 
d="M279 396l-91 -31v-296q22 0 43 -5t32 -10t11 -8v-46h-249v46q0 3 11 8t32 10t43 5v269l-72 -24l-22 58l94 32v264h-86v46q0 3 13.5 8t44.5 10.5t67 5.5h38v-308l69 24z" />
    <glyph glyph-name="Nacute" unicode="&#x143;" horiz-adv-x="767" 
d="M742 666q0 -3 -10.5 -8t-32.5 -10t-46 -5v-643h-152l-286 639h-23v-570q24 0 46 -5t33 -10t11 -8v-46h-257v46q0 3 10.5 8t32.5 10t46 5v574q-24 0 -46 5t-32.5 10t-10.5 8v46h244l283 -639h23v570q-24 0 -45 5t-30.5 10t-9.5 8v46h252v-46zM474 968l-75 -175h-63l51 175
h87z" />
    <glyph glyph-name="nacute" unicode="&#x144;" horiz-adv-x="684" 
d="M669 0h-241v46q0 3 8.5 8t27.5 10t41 5v205q0 71 -4 107t-21.5 61t-46 31.5t-83.5 6.5q-44 0 -70.5 -5.5t-45 -16.5t-27 -37t-11.5 -58t-3 -89v-205q22 0 43 -5t32 -10t11 -8v-46h-249v46q0 3 11 8t32 10t43 5v205q0 46 -2 95.5t-4 76.5l-1 27h-79v46q0 3 13.5 8.5
t44.5 10.5t67 5h14l4 -100q18 58 59.5 84t117.5 26q73 0 118.5 -14.5t71 -50.5t34.5 -85t9 -129v-205q22 0 43 -5t32 -10t11 -8v-46zM456 796l-75 -175h-63l51 175h87z" />
    <glyph glyph-name="Ncommaaccent" unicode="&#x145;" horiz-adv-x="767" 
d="M439 -104q0 -143 -101 -143v39q11 0 26.5 12.5t15.5 36.5v5q-28 0 -39 10.5t-11 39.5t10.5 38.5t43.5 9.5t44 -9.5t11 -38.5zM742 666q0 -3 -10.5 -8t-32.5 -10t-46 -5v-643h-152l-286 639h-23v-570q24 0 46 -5t33 -10t11 -8v-46h-257v46q0 3 10.5 8t32.5 10t46 5v574
q-24 0 -46 5t-32.5 10t-10.5 8v46h244l283 -639h23v570q-24 0 -45 5t-30.5 10t-9.5 8v46h252v-46z" />
    <glyph glyph-name="ncommaaccent" unicode="&#x146;" horiz-adv-x="684" 
d="M406 -104q0 -143 -101 -143v39q11 0 26.5 12.5t15.5 36.5v5q-28 0 -39 10.5t-11 39.5t10.5 38.5t43.5 9.5t44 -9.5t11 -38.5zM669 0h-241v46q0 3 8.5 8t27.5 10t41 5v205q0 71 -4 107t-21.5 61t-46 31.5t-83.5 6.5q-44 0 -70.5 -5.5t-45 -16.5t-27 -37t-11.5 -58t-3 -89
v-205q22 0 43 -5t32 -10t11 -8v-46h-249v46q0 3 11 8t32 10t43 5v205q0 46 -2 95.5t-4 76.5l-1 27h-79v46q0 3 13.5 8.5t44.5 10.5t67 5h14l4 -100q18 58 59.5 84t117.5 26q73 0 118.5 -14.5t71 -50.5t34.5 -85t9 -129v-205q22 0 43 -5t32 -10t11 -8v-46z" />
    <glyph glyph-name="Ncaron" unicode="&#x147;" horiz-adv-x="767" 
d="M742 666q0 -3 -10.5 -8t-32.5 -10t-46 -5v-643h-152l-286 639h-23v-570q24 0 46 -5t33 -10t11 -8v-46h-257v46q0 3 10.5 8t32.5 10t46 5v574q-24 0 -46 5t-32.5 10t-10.5 8v46h244l283 -639h23v570q-24 0 -45 5t-30.5 10t-9.5 8v46h252v-46zM364 851l56 117h62l-64 -175
h-108l-64 175h62z" />
    <glyph glyph-name="ncaron" unicode="&#x148;" horiz-adv-x="684" 
d="M669 0h-241v46q0 3 8.5 8t27.5 10t41 5v205q0 71 -4 107t-21.5 61t-46 31.5t-83.5 6.5q-44 0 -70.5 -5.5t-45 -16.5t-27 -37t-11.5 -58t-3 -89v-205q22 0 43 -5t32 -10t11 -8v-46h-249v46q0 3 11 8t32 10t43 5v205q0 46 -2 95.5t-4 76.5l-1 27h-79v46q0 3 13.5 8.5
t44.5 10.5t67 5h14l4 -100q18 58 59.5 84t117.5 26q73 0 118.5 -14.5t71 -50.5t34.5 -85t9 -129v-205q22 0 43 -5t32 -10t11 -8v-46zM342 679l56 117h62l-64 -175h-108l-64 175h62z" />
    <glyph glyph-name="napostrophe" unicode="&#x149;" horiz-adv-x="746" 
d="M731 0h-241v46q0 3 8.5 8t27.5 10t41 5v205q0 71 -4 107t-21.5 61t-46 31.5t-83.5 6.5q-44 0 -70.5 -5.5t-45 -16.5t-27 -37t-11.5 -58t-3 -89v-205q22 0 43 -5t32 -10t11 -8v-46h-249v46q0 3 11 8t32 10t43 5v205q0 46 -2 95.5t-4 76.5l-1 27h-79v46q0 3 13.5 8.5
t44.5 10.5t67 5h14l4 -100q18 58 59.5 84t117.5 26q73 0 118.5 -14.5t71 -50.5t34.5 -85t9 -129v-205q22 0 43 -5t32 -10t11 -8v-46zM71 658q0 -159 -112 -159v44q13 0 29.5 14.5t16.5 45.5q-32 0 -43.5 11t-11.5 44q0 32 11.5 43t48.5 11q36 0 48.5 -11t12.5 -43z" />
    <glyph glyph-name="Eng" unicode="&#x14a;" horiz-adv-x="767" 
d="M742 666q0 -3 -10.5 -8t-32.5 -10t-46 -5v-764q0 -113 -35 -162t-134 -49q-93 0 -128.5 41t-35.5 117q0 68 32.5 103t84.5 35q19 0 33 -3.5t14 -7.5v-47q-52 0 -69.5 -17.5t-17.5 -62.5q0 -46 16.5 -64t70.5 -18q56 0 73.5 26.5t17.5 108.5v121h-74l-286 639h-23v-570
q24 0 46 -5t33 -10t11 -8v-46h-257v46q0 3 10.5 8t32.5 10t46 5v574q-24 0 -46 5t-32.5 10t-10.5 8v46h244l283 -639h23v570q-24 0 -45 5t-30.5 10t-9.5 8v46h252v-46z" />
    <glyph glyph-name="eng" unicode="&#x14b;" horiz-adv-x="684" 
d="M583 274v-304q0 -49 -12.5 -84t-28 -52.5t-42.5 -26.5t-44 -10.5t-43 -1.5v50q47 7 69.5 33t22.5 92v304q0 71 -4 107t-21.5 61t-46 31.5t-83.5 6.5q-44 0 -70.5 -5.5t-45 -16.5t-27 -37t-11.5 -58t-3 -89v-205q22 0 43 -5t32 -10t11 -8v-46h-249v46q0 3 11 8t32 10t43 5
v205q0 46 -2 95.5t-4 76.5l-1 27h-79v46q0 3 13.5 8.5t44.5 10.5t67 5h14l4 -100q18 58 59.5 84t117.5 26q73 0 118.5 -14.5t71 -50.5t34.5 -85t9 -129z" />
    <glyph glyph-name="Omacron" unicode="&#x14c;" horiz-adv-x="738" 
d="M688 359q0 -86 -7.5 -143t-27 -103.5t-56 -72t-91.5 -38.5t-137 -13q-101 0 -163.5 19t-97 66t-46.5 112t-12 173t12 173t46.5 112t97 66t163.5 19q82 0 137 -13t91.5 -38.5t56 -72t27 -103.5t7.5 -143zM604 359q0 66 -2.5 107t-11.5 77.5t-24 55t-42.5 32.5t-63.5 18
t-91 4t-90.5 -4t-63 -18t-42.5 -32.5t-24 -55t-11.5 -77.5t-2.5 -107t2.5 -107t11.5 -77.5t24 -55.5t42.5 -32.5t63 -18t90.5 -4.5t91 4.5t63.5 18t42.5 32.5t24 55.5t11.5 77.5t2.5 107zM503 834h-269v67h269v-67z" />
    <glyph glyph-name="omacron" unicode="&#x14d;" horiz-adv-x="630" 
d="M565 271q0 -82 -9.5 -131t-36.5 -85.5t-76 -51t-128 -14.5t-128 14.5t-76 51t-36.5 85.5t-9.5 131t9.5 131t36.5 85.5t76 51t128 14.5t128 -14.5t76 -51t36.5 -85.5t9.5 -131zM488 271q0 49 -1.5 78t-8.5 55t-17.5 39t-31 22.5t-47 12.5t-67.5 3t-67.5 -3t-47 -12.5
t-31 -22.5t-17.5 -39t-8.5 -55t-1.5 -78t1.5 -78t8.5 -55.5t17.5 -39t31 -22.5t47 -12.5t67.5 -2.5t67.5 2.5t47 12.5t31 22.5t17.5 39t8.5 55.5t1.5 78zM449 662h-269v67h269v-67z" />
    <glyph glyph-name="Obreve" unicode="&#x14e;" horiz-adv-x="738" 
d="M688 359q0 -86 -7.5 -143t-27 -103.5t-56 -72t-91.5 -38.5t-137 -13q-101 0 -163.5 19t-97 66t-46.5 112t-12 173t12 173t46.5 112t97 66t163.5 19q82 0 137 -13t91.5 -38.5t56 -72t27 -103.5t7.5 -143zM604 359q0 66 -2.5 107t-11.5 77.5t-24 55t-42.5 32.5t-63.5 18
t-91 4t-90.5 -4t-63 -18t-42.5 -32.5t-24 -55t-11.5 -77.5t-2.5 -107t2.5 -107t11.5 -77.5t24 -55.5t42.5 -32.5t63 -18t90.5 -4.5t91 4.5t63.5 18t42.5 32.5t24 55.5t11.5 77.5t2.5 107zM369 797q-73 0 -110.5 24.5t-37.5 81.5q0 27 6 51h57q0 -26 1.5 -38.5t9.5 -26
t26 -18.5t48 -5q57 0 71 19.5t14 68.5h57q6 -30 6 -51q0 -57 -37.5 -81.5t-110.5 -24.5z" />
    <glyph glyph-name="obreve" unicode="&#x14f;" horiz-adv-x="630" 
d="M565 271q0 -82 -9.5 -131t-36.5 -85.5t-76 -51t-128 -14.5t-128 14.5t-76 51t-36.5 85.5t-9.5 131t9.5 131t36.5 85.5t76 51t128 14.5t128 -14.5t76 -51t36.5 -85.5t9.5 -131zM488 271q0 49 -1.5 78t-8.5 55t-17.5 39t-31 22.5t-47 12.5t-67.5 3t-67.5 -3t-47 -12.5
t-31 -22.5t-17.5 -39t-8.5 -55t-1.5 -78t1.5 -78t8.5 -55.5t17.5 -39t31 -22.5t47 -12.5t67.5 -2.5t67.5 2.5t47 12.5t31 22.5t17.5 39t8.5 55.5t1.5 78zM315 625q-73 0 -110.5 24.5t-37.5 81.5q0 27 6 51h57q0 -26 1.5 -38.5t9.5 -26t26 -18.5t48 -5q57 0 71 19.5t14 68.5
h57q6 -30 6 -51q0 -57 -37.5 -81.5t-110.5 -24.5z" />
    <glyph glyph-name="Ohungarumlaut" unicode="&#x150;" horiz-adv-x="738" 
d="M688 359q0 -86 -7.5 -143t-27 -103.5t-56 -72t-91.5 -38.5t-137 -13q-101 0 -163.5 19t-97 66t-46.5 112t-12 173t12 173t46.5 112t97 66t163.5 19q82 0 137 -13t91.5 -38.5t56 -72t27 -103.5t7.5 -143zM604 359q0 66 -2.5 107t-11.5 77.5t-24 55t-42.5 32.5t-63.5 18
t-91 4t-90.5 -4t-63 -18t-42.5 -32.5t-24 -55t-11.5 -77.5t-2.5 -107t2.5 -107t11.5 -77.5t24 -55.5t42.5 -32.5t63 -18t90.5 -4.5t91 4.5t63.5 18t42.5 32.5t24 55.5t11.5 77.5t2.5 107zM387 968l-75 -175h-63l51 175h87zM543 968l-75 -175h-63l51 175h87z" />
    <glyph glyph-name="ohungarumlaut" unicode="&#x151;" horiz-adv-x="630" 
d="M565 271q0 -82 -9.5 -131t-36.5 -85.5t-76 -51t-128 -14.5t-128 14.5t-76 51t-36.5 85.5t-9.5 131t9.5 131t36.5 85.5t76 51t128 14.5t128 -14.5t76 -51t36.5 -85.5t9.5 -131zM488 271q0 49 -1.5 78t-8.5 55t-17.5 39t-31 22.5t-47 12.5t-67.5 3t-67.5 -3t-47 -12.5
t-31 -22.5t-17.5 -39t-8.5 -55t-1.5 -78t1.5 -78t8.5 -55.5t17.5 -39t31 -22.5t47 -12.5t67.5 -2.5t67.5 2.5t47 12.5t31 22.5t17.5 39t8.5 55.5t1.5 78zM343 796l-75 -175h-63l51 175h87zM499 796l-75 -175h-63l51 175h87z" />
    <glyph glyph-name="OE" unicode="&#x152;" horiz-adv-x="1186" 
d="M1126 0h-517v49q-69 -60 -240 -60q-101 0 -163.5 19t-97 66t-46.5 112t-12 173t12 173t46.5 112t97 66t163.5 19q170 0 240 -61v44h496v-220h-47q-4 0 -10 14.5t-12 50t-6 81.5h-344v-234h161q0 25 5 47t10 32.5t8 10.5h45v-255h-45q-3 0 -8 11t-10 33.5t-5 47.5h-161
v-258h362q0 54 6.5 93.5t12.5 54t10 14.5h49v-235zM604 359q0 66 -2.5 107t-11.5 77.5t-24 55t-42.5 32.5t-63.5 18t-91 4t-90.5 -4t-63 -18t-42.5 -32.5t-24 -55t-11.5 -77.5t-2.5 -107t2.5 -107t11.5 -77.5t24 -55.5t42.5 -32.5t63 -18t90.5 -4.5t91 4.5t63.5 18
t42.5 32.5t24 55.5t11.5 77.5t2.5 107z" />
    <glyph glyph-name="oe" unicode="&#x153;" horiz-adv-x="1040" 
d="M976 271v-16h-412q0 -66 5.5 -100t25.5 -57t52.5 -29.5t92.5 -6.5q53 0 87 6.5t51.5 20.5t24.5 28.5t11 38.5h50q0 -27 -2 -44.5t-14.5 -43t-34.5 -41t-66.5 -27t-106.5 -11.5q-98 0 -146.5 23t-66.5 77q-19 -54 -67 -77t-145 -23q-79 0 -128 14.5t-76 51t-36.5 85.5
t-9.5 131t9.5 131t36.5 85.5t76 51t128 14.5q96 0 144.5 -23.5t67.5 -76.5q18 53 65 76.5t141 23.5q142 0 192.5 -62t50.5 -220zM488 271q0 49 -1.5 78t-8.5 55t-17.5 39t-31 22.5t-47 12.5t-67.5 3t-67.5 -3t-47 -12.5t-31 -22.5t-17.5 -39t-8.5 -55t-1.5 -78t1.5 -78
t8.5 -55.5t17.5 -39t31 -22.5t47 -12.5t67.5 -2.5t67.5 2.5t47 12.5t31 22.5t17.5 39t8.5 55.5t1.5 78zM900 321q-4 99 -37 130t-130 31q-101 0 -132 -30t-35 -131h334z" />
    <glyph glyph-name="Racute" unicode="&#x154;" horiz-adv-x="736" 
d="M726 102q0 -113 -110 -113q-69 0 -95.5 38.5t-26.5 121.5q0 80 -40.5 111t-156.5 31h-101v-222q24 0 46 -5t33 -10t11 -8v-46h-261v46q0 3 10.5 8t32.5 10t46 5v574q-24 0 -46 5t-32.5 10t-10.5 8v46h356q266 0 266 -210q0 -77 -38 -124.5t-140 -61.5q110 -39 110 -152
v-38q0 -36 7.5 -49t29.5 -13t29.5 13t7.5 49v82h47q3 0 9 -13.5t11.5 -39.5t5.5 -53zM561 502q0 34 -6.5 56t-24.5 41.5t-55 29t-94 9.5h-185v-274h185q108 0 144 34t36 104zM437 968l-75 -175h-63l51 175h87z" />
    <glyph glyph-name="racute" unicode="&#x155;" horiz-adv-x="458" 
d="M433 413h-34q-6 32 -24.5 44.5t-54.5 12.5q-70 0 -98.5 -40.5t-28.5 -151.5v-209q27 0 52 -5t37.5 -10t12.5 -8v-46h-265v46q0 3 11 8t32 10t43 5v205q0 46 -2 95.5t-4 76.5l-1 27h-79v46q0 3 13.5 8.5t44.5 10.5t67 5h15l4 -119q26 120 172 120q39 0 87 -9v-122z
M339 796l-75 -175h-63l51 175h87z" />
    <glyph glyph-name="Rcommaaccent" unicode="&#x156;" horiz-adv-x="736" 
d="M439 -104q0 -143 -101 -143v39q11 0 26.5 12.5t15.5 36.5v5q-28 0 -39 10.5t-11 39.5t10.5 38.5t43.5 9.5t44 -9.5t11 -38.5zM726 102q0 -113 -110 -113q-69 0 -95.5 38.5t-26.5 121.5q0 80 -40.5 111t-156.5 31h-101v-222q24 0 46 -5t33 -10t11 -8v-46h-261v46
q0 3 10.5 8t32.5 10t46 5v574q-24 0 -46 5t-32.5 10t-10.5 8v46h356q266 0 266 -210q0 -77 -38 -124.5t-140 -61.5q110 -39 110 -152v-38q0 -36 7.5 -49t29.5 -13t29.5 13t7.5 49v82h47q3 0 9 -13.5t11.5 -39.5t5.5 -53zM561 502q0 34 -6.5 56t-24.5 41.5t-55 29t-94 9.5
h-185v-274h185q108 0 144 34t36 104z" />
    <glyph glyph-name="rcommaaccent" unicode="&#x157;" horiz-adv-x="458" 
d="M210 -104q0 -143 -101 -143v39q11 0 26.5 12.5t15.5 36.5v5q-28 0 -39 10.5t-11 39.5t10.5 38.5t43.5 9.5t44 -9.5t11 -38.5zM433 413h-34q-6 32 -24.5 44.5t-54.5 12.5q-70 0 -98.5 -40.5t-28.5 -151.5v-209q27 0 52 -5t37.5 -10t12.5 -8v-46h-265v46q0 3 11 8t32 10
t43 5v205q0 46 -2 95.5t-4 76.5l-1 27h-79v46q0 3 13.5 8.5t44.5 10.5t67 5h15l4 -119q26 120 172 120q39 0 87 -9v-122z" />
    <glyph glyph-name="Rcaron" unicode="&#x158;" horiz-adv-x="736" 
d="M726 102q0 -113 -110 -113q-69 0 -95.5 38.5t-26.5 121.5q0 80 -40.5 111t-156.5 31h-101v-222q24 0 46 -5t33 -10t11 -8v-46h-261v46q0 3 10.5 8t32.5 10t46 5v574q-24 0 -46 5t-32.5 10t-10.5 8v46h356q266 0 266 -210q0 -77 -38 -124.5t-140 -61.5q110 -39 110 -152
v-38q0 -36 7.5 -49t29.5 -13t29.5 13t7.5 49v82h47q3 0 9 -13.5t11.5 -39.5t5.5 -53zM561 502q0 34 -6.5 56t-24.5 41.5t-55 29t-94 9.5h-185v-274h185q108 0 144 34t36 104zM319 851l56 117h62l-64 -175h-108l-64 175h62z" />
    <glyph glyph-name="rcaron" unicode="&#x159;" horiz-adv-x="458" 
d="M433 413h-34q-6 32 -24.5 44.5t-54.5 12.5q-70 0 -98.5 -40.5t-28.5 -151.5v-209q27 0 52 -5t37.5 -10t12.5 -8v-46h-265v46q0 3 11 8t32 10t43 5v205q0 46 -2 95.5t-4 76.5l-1 27h-79v46q0 3 13.5 8.5t44.5 10.5t67 5h15l4 -119q26 120 172 120q39 0 87 -9v-122z
M255 679l56 117h62l-64 -175h-108l-64 175h62z" />
    <glyph glyph-name="Sacute" unicode="&#x15a;" horiz-adv-x="668" 
d="M618 194q0 -45 -12.5 -80t-44 -66.5t-92.5 -48.5t-149 -17q-145 0 -205 77q-2 -17 -6.5 -31t-8.5 -21t-6 -7h-54v241h63q7 -98 51.5 -139t165.5 -41q68 0 111 8t63.5 27t27.5 40.5t7 57.5q0 65 -46 95t-163 30q-145 0 -205 54t-60 155q0 97 67 149t198 52q70 0 118 -22
t71 -54q2 17 6.5 31t8.5 20.5t6 6.5h54v-231h-60q-11 99 -57.5 134.5t-146.5 35.5q-184 0 -184 -122q0 -65 38.5 -97.5t145.5 -32.5q298 0 298 -204zM426 968l-75 -175h-63l51 175h87z" />
    <glyph glyph-name="sacute" unicode="&#x15b;" horiz-adv-x="610" 
d="M545 151q0 -74 -50.5 -118t-186.5 -44q-128 0 -175 53q-7 -32 -15 -42h-48v185h55q3 -70 42 -97.5t141 -27.5q96 0 128.5 21.5t32.5 69.5q0 47 -32.5 68t-128.5 21q-70 0 -118.5 12.5t-72 36t-33 48.5t-9.5 58t9.5 59t33.5 49.5t72 36.5t118 13q101 0 148 -50q7 28 12 36
h50v-182h-55q-3 51 -12.5 74.5t-42.5 37t-100 13.5q-51 0 -83.5 -5.5t-48 -18.5t-20.5 -27t-5 -36q0 -45 29.5 -65t127.5 -20q71 0 120 -12.5t73.5 -36t34 -49.5t9.5 -61zM399 796l-75 -175h-63l51 175h87z" />
    <glyph glyph-name="Scircumflex" unicode="&#x15c;" horiz-adv-x="668" 
d="M618 194q0 -45 -12.5 -80t-44 -66.5t-92.5 -48.5t-149 -17q-145 0 -205 77q-2 -17 -6.5 -31t-8.5 -21t-6 -7h-54v241h63q7 -98 51.5 -139t165.5 -41q68 0 111 8t63.5 27t27.5 40.5t7 57.5q0 65 -46 95t-163 30q-145 0 -205 54t-60 155q0 97 67 149t198 52q70 0 118 -22
t71 -54q2 17 6.5 31t8.5 20.5t6 6.5h54v-231h-60q-11 99 -57.5 134.5t-146.5 35.5q-184 0 -184 -122q0 -65 38.5 -97.5t145.5 -32.5q298 0 298 -204zM390 793l-56 117l-56 -117h-62l64 175h108l64 -175h-62z" />
    <glyph glyph-name="scircumflex" unicode="&#x15d;" horiz-adv-x="610" 
d="M545 151q0 -74 -50.5 -118t-186.5 -44q-128 0 -175 53q-7 -32 -15 -42h-48v185h55q3 -70 42 -97.5t141 -27.5q96 0 128.5 21.5t32.5 69.5q0 47 -32.5 68t-128.5 21q-70 0 -118.5 12.5t-72 36t-33 48.5t-9.5 58t9.5 59t33.5 49.5t72 36.5t118 13q101 0 148 -50q7 28 12 36
h50v-182h-55q-3 51 -12.5 74.5t-42.5 37t-100 13.5q-51 0 -83.5 -5.5t-48 -18.5t-20.5 -27t-5 -36q0 -45 29.5 -65t127.5 -20q71 0 120 -12.5t73.5 -36t34 -49.5t9.5 -61zM361 621l-56 117l-56 -117h-62l64 175h108l64 -175h-62z" />
    <glyph glyph-name="Scedilla" unicode="&#x15e;" horiz-adv-x="668" 
d="M618 194q0 -45 -12.5 -80t-44 -66.5t-92.5 -48.5t-149 -17q-145 0 -205 77q-2 -17 -6.5 -31t-8.5 -21t-6 -7h-54v241h63q7 -98 51.5 -139t165.5 -41q68 0 111 8t63.5 27t27.5 40.5t7 57.5q0 65 -46 95t-163 30q-145 0 -205 54t-60 155q0 97 67 149t198 52q70 0 118 -22
t71 -54q2 17 6.5 31t8.5 20.5t6 6.5h54v-231h-60q-11 99 -57.5 134.5t-146.5 35.5q-184 0 -184 -122q0 -65 38.5 -97.5t145.5 -32.5q298 0 298 -204zM212 -176h59q2 -13 11.5 -17.5t45.5 -4.5q40 0 49 5.5t9 34.5t-9.5 35.5t-48.5 6.5h-70v46l57 75h67l-54 -67
q78 0 102.5 -20.5t24.5 -75.5q0 -53 -24.5 -74t-102.5 -21q-41 0 -66.5 6.5t-35.5 20.5t-12 23.5t-2 26.5z" />
    <glyph glyph-name="scedilla" unicode="&#x15f;" horiz-adv-x="610" 
d="M545 151q0 -74 -50.5 -118t-186.5 -44q-128 0 -175 53q-7 -32 -15 -42h-48v185h55q3 -70 42 -97.5t141 -27.5q96 0 128.5 21.5t32.5 69.5q0 47 -32.5 68t-128.5 21q-70 0 -118.5 12.5t-72 36t-33 48.5t-9.5 58t9.5 59t33.5 49.5t72 36.5t118 13q101 0 148 -50q7 28 12 36
h50v-182h-55q-3 51 -12.5 74.5t-42.5 37t-100 13.5q-51 0 -83.5 -5.5t-48 -18.5t-20.5 -27t-5 -36q0 -45 29.5 -65t127.5 -20q71 0 120 -12.5t73.5 -36t34 -49.5t9.5 -61zM183 -176h59q2 -13 11.5 -17.5t45.5 -4.5q40 0 49 5.5t9 34.5t-9.5 35.5t-48.5 6.5h-70v46l57 75h67
l-54 -67q78 0 102.5 -20.5t24.5 -75.5q0 -53 -24.5 -74t-102.5 -21q-41 0 -66.5 6.5t-35.5 20.5t-12 23.5t-2 26.5z" />
    <glyph glyph-name="Scaron" unicode="&#x160;" horiz-adv-x="668" 
d="M618 194q0 -45 -12.5 -80t-44 -66.5t-92.5 -48.5t-149 -17q-145 0 -205 77q-2 -17 -6.5 -31t-8.5 -21t-6 -7h-54v241h63q7 -98 51.5 -139t165.5 -41q68 0 111 8t63.5 27t27.5 40.5t7 57.5q0 65 -46 95t-163 30q-145 0 -205 54t-60 155q0 97 67 149t198 52q70 0 118 -22
t71 -54q2 17 6.5 31t8.5 20.5t6 6.5h54v-231h-60q-11 99 -57.5 134.5t-146.5 35.5q-184 0 -184 -122q0 -65 38.5 -97.5t145.5 -32.5q298 0 298 -204zM323 852l56 117h62l-64 -175h-108l-64 175h62z" />
    <glyph glyph-name="scaron" unicode="&#x161;" horiz-adv-x="610" 
d="M545 151q0 -74 -50.5 -118t-186.5 -44q-128 0 -175 53q-7 -32 -15 -42h-48v185h55q3 -70 42 -97.5t141 -27.5q96 0 128.5 21.5t32.5 69.5q0 47 -32.5 68t-128.5 21q-70 0 -118.5 12.5t-72 36t-33 48.5t-9.5 58t9.5 59t33.5 49.5t72 36.5t118 13q101 0 148 -50q7 28 12 36
h50v-182h-55q-3 51 -12.5 74.5t-42.5 37t-100 13.5q-51 0 -83.5 -5.5t-48 -18.5t-20.5 -27t-5 -36q0 -45 29.5 -65t127.5 -20q71 0 120 -12.5t73.5 -36t34 -49.5t9.5 -61zM300 679l56 117h62l-64 -175h-108l-64 175h62z" />
    <glyph glyph-name="Tcommaaccent" unicode="&#x162;" horiz-adv-x="642" 
d="M373 -104q0 -143 -101 -143v39q11 0 26.5 12.5t15.5 36.5v5q-28 0 -39 10.5t-11 39.5t10.5 38.5t43.5 9.5t44 -9.5t11 -38.5zM612 457l-48 1q-4 0 -10 15.5t-12.5 59.5t-6.5 105h-173v-569q33 0 60 -5t38 -10t11 -8v-46h-300v46q0 3 11 8t38 10t60 5v569h-173
q0 -61 -6 -105t-12.5 -59.5t-10.5 -14.5h-48v252h582v-254z" />
    <glyph glyph-name="tcommaaccent" unicode="&#x163;" horiz-adv-x="376" 
d="M270 -104q0 -143 -101 -143v39q11 0 26.5 12.5t15.5 36.5v5q-28 0 -39 10.5t-11 39.5t10.5 38.5t43.5 9.5t44 -9.5t11 -38.5zM341 122q0 -66 -27.5 -99.5t-93.5 -33.5q-68 0 -94.5 33.5t-26.5 99.5v353h-79v44q0 2 8.5 6t28 9t42.5 7v142h78v-144h158v-64h-158v-355
q0 -36 9 -48t38 -12t38 12t9 48v127h46q3 0 8 -13.5t10.5 -44.5t5.5 -67z" />
    <glyph glyph-name="Tcaron" unicode="&#x164;" horiz-adv-x="642" 
d="M612 457l-48 1q-4 0 -10 15.5t-12.5 59.5t-6.5 105h-173v-569q33 0 60 -5t38 -10t11 -8v-46h-300v46q0 3 11 8t38 10t60 5v569h-173q0 -61 -6 -105t-12.5 -59.5t-10.5 -14.5h-48v252h582v-254zM321 851l56 117h62l-64 -175h-108l-64 175h62z" />
    <glyph glyph-name="tcaron" unicode="&#x165;" horiz-adv-x="449" 
d="M341 122q0 -66 -27.5 -99.5t-93.5 -33.5q-68 0 -94.5 33.5t-26.5 99.5v353h-79v44q0 2 8.5 6t28 9t42.5 7v142h78v-144h99v-64h-99v-355q0 -36 9 -48t38 -12t38 12t9 48v127h46q3 0 8 -13.5t10.5 -44.5t5.5 -67zM431 658q0 -159 -112 -159v44q13 0 29.5 14.5t16.5 45.5
q-32 0 -43.5 11t-11.5 44q0 32 11.5 43t48.5 11q36 0 48.5 -11t12.5 -43z" />
    <glyph glyph-name="Tbar" unicode="&#x166;" horiz-adv-x="642" 
d="M612 457l-48 1q-4 0 -10 15.5t-12.5 59.5t-6.5 105h-173v-569q33 0 60 -5t38 -10t11 -8v-46h-300v46q0 3 11 8t38 10t60 5v569h-173q0 -61 -6 -105t-12.5 -59.5t-10.5 -14.5h-48v252h582v-254zM459 303h-269v67h269v-67z" />
    <glyph glyph-name="tbar" unicode="&#x167;" horiz-adv-x="376" 
d="M341 104q0 -115 -121 -115q-68 0 -94.5 33.5t-26.5 99.5v353h-79v44q0 2 8.5 6t28 9t42.5 7v142h78v-144h158v-64h-158v-355q0 -36 9 -48t38 -12t38 12t9 48v90h46q2 0 7.5 -13.5t11 -39.5t5.5 -53zM314 307h-269v67h269v-67z" />
    <glyph glyph-name="Utilde" unicode="&#x168;" horiz-adv-x="794" 
d="M769 666q0 -3 -10.5 -8t-32.5 -10t-46 -5v-362q0 -72 -12 -122t-42 -90.5t-87 -60t-142 -19.5t-142 19.5t-87 60t-42 90.5t-12 122v362q-24 0 -46 5t-32.5 10t-10.5 8v46h282v-46q0 -3 -10.5 -8t-32.5 -10t-46 -5h-21v-362q0 -123 39.5 -169.5t161.5 -46.5t161.5 46.5
t39.5 169.5v362h-21q-24 0 -46 5t-32.5 10t-10.5 8v46h280v-46zM333 930q28 0 71 -19t60 -19q35 0 42 37h66q-9 -50 -38 -81.5t-69 -31.5q-29 0 -78 19t-64 19q-12 0 -23.5 -10.5t-16.5 -26.5h-61q17 113 111 113z" />
    <glyph glyph-name="utilde" unicode="&#x169;" horiz-adv-x="666" 
d="M646 21q0 -3 -13.5 -8t-44 -10.5t-66.5 -5.5h-15l-4 100q-17 -57 -57.5 -82.5t-112.5 -25.5t-116 14t-69 49t-33.5 84.5t-8.5 131.5v205h-86v46q0 3 13.5 8.5t44.5 10.5t67 5h38v-275q0 -133 25.5 -169.5t124.5 -36.5t124.5 36.5t25.5 169.5v205h-90v46q0 3 13.5 8.5
t44 10.5t66.5 5h44v-476h85v-46zM254 758q28 0 71 -19t60 -19q35 0 42 37h66q-9 -50 -38 -81.5t-69 -31.5q-29 0 -78 19t-64 19q-12 0 -23.5 -10.5t-16.5 -26.5h-61q17 113 111 113z" />
    <glyph glyph-name="Umacron" unicode="&#x16a;" horiz-adv-x="794" 
d="M769 666q0 -3 -10.5 -8t-32.5 -10t-46 -5v-362q0 -72 -12 -122t-42 -90.5t-87 -60t-142 -19.5t-142 19.5t-87 60t-42 90.5t-12 122v362q-24 0 -46 5t-32.5 10t-10.5 8v46h282v-46q0 -3 -10.5 -8t-32.5 -10t-46 -5h-21v-362q0 -123 39.5 -169.5t161.5 -46.5t161.5 46.5
t39.5 169.5v362h-21q-24 0 -46 5t-32.5 10t-10.5 8v46h280v-46zM531 834h-269v67h269v-67z" />
    <glyph glyph-name="umacron" unicode="&#x16b;" horiz-adv-x="666" 
d="M646 21q0 -3 -13.5 -8t-44 -10.5t-66.5 -5.5h-15l-4 100q-17 -57 -57.5 -82.5t-112.5 -25.5t-116 14t-69 49t-33.5 84.5t-8.5 131.5v205h-86v46q0 3 13.5 8.5t44.5 10.5t67 5h38v-275q0 -133 25.5 -169.5t124.5 -36.5t124.5 36.5t25.5 169.5v205h-90v46q0 3 13.5 8.5
t44 10.5t66.5 5h44v-476h85v-46zM450 662h-269v67h269v-67z" />
    <glyph glyph-name="Ubreve" unicode="&#x16c;" horiz-adv-x="794" 
d="M769 666q0 -3 -10.5 -8t-32.5 -10t-46 -5v-362q0 -72 -12 -122t-42 -90.5t-87 -60t-142 -19.5t-142 19.5t-87 60t-42 90.5t-12 122v362q-24 0 -46 5t-32.5 10t-10.5 8v46h282v-46q0 -3 -10.5 -8t-32.5 -10t-46 -5h-21v-362q0 -123 39.5 -169.5t161.5 -46.5t161.5 46.5
t39.5 169.5v362h-21q-24 0 -46 5t-32.5 10t-10.5 8v46h280v-46zM397 797q-73 0 -110.5 24.5t-37.5 81.5q0 27 6 51h57q0 -26 1.5 -38.5t9.5 -26t26 -18.5t48 -5q57 0 71 19.5t14 68.5h57q6 -30 6 -51q0 -57 -37.5 -81.5t-110.5 -24.5z" />
    <glyph glyph-name="ubreve" unicode="&#x16d;" horiz-adv-x="666" 
d="M646 21q0 -3 -13.5 -8t-44 -10.5t-66.5 -5.5h-15l-4 100q-17 -57 -57.5 -82.5t-112.5 -25.5t-116 14t-69 49t-33.5 84.5t-8.5 131.5v205h-86v46q0 3 13.5 8.5t44.5 10.5t67 5h38v-275q0 -133 25.5 -169.5t124.5 -36.5t124.5 36.5t25.5 169.5v205h-90v46q0 3 13.5 8.5
t44 10.5t66.5 5h44v-476h85v-46zM317 625q-73 0 -110.5 24.5t-37.5 81.5q0 27 6 51h57q0 -26 1.5 -38.5t9.5 -26t26 -18.5t48 -5q57 0 71 19.5t14 68.5h57q6 -30 6 -51q0 -57 -37.5 -81.5t-110.5 -24.5z" />
    <glyph glyph-name="Uring" unicode="&#x16e;" horiz-adv-x="794" 
d="M769 666q0 -3 -10.5 -8t-32.5 -10t-46 -5v-362q0 -72 -12 -122t-42 -90.5t-87 -60t-142 -19.5t-142 19.5t-87 60t-42 90.5t-12 122v362q-24 0 -46 5t-32.5 10t-10.5 8v46h282v-46q0 -3 -10.5 -8t-32.5 -10t-46 -5h-21v-362q0 -123 39.5 -169.5t161.5 -46.5t161.5 46.5
t39.5 169.5v362h-21q-24 0 -46 5t-32.5 10t-10.5 8v46h280v-46zM504 875q0 -56 -21 -77.5t-86 -21.5q-66 0 -86.5 21t-20.5 78q0 58 20.5 79.5t86.5 21.5q65 0 86 -22t21 -79zM436 875q0 26 -6.5 32t-32.5 6q-27 0 -34 -6.5t-7 -31.5q0 -24 7 -30.5t34 -6.5q26 0 32.5 6.5
t6.5 30.5z" />
    <glyph glyph-name="uring" unicode="&#x16f;" horiz-adv-x="666" 
d="M646 21q0 -3 -13.5 -8t-44 -10.5t-66.5 -5.5h-15l-4 100q-17 -57 -57.5 -82.5t-112.5 -25.5t-116 14t-69 49t-33.5 84.5t-8.5 131.5v205h-86v46q0 3 13.5 8.5t44.5 10.5t67 5h38v-275q0 -133 25.5 -169.5t124.5 -36.5t124.5 36.5t25.5 169.5v205h-90v46q0 3 13.5 8.5
t44 10.5t66.5 5h44v-476h85v-46zM425 703q0 -56 -21 -77.5t-86 -21.5q-66 0 -86.5 21t-20.5 78q0 58 20.5 79.5t86.5 21.5q65 0 86 -22t21 -79zM357 703q0 26 -6.5 32t-32.5 6q-27 0 -34 -6.5t-7 -31.5q0 -24 7 -30.5t34 -6.5q26 0 32.5 6.5t6.5 30.5z" />
    <glyph glyph-name="Uhungarumlaut" unicode="&#x170;" horiz-adv-x="794" 
d="M769 666q0 -3 -10.5 -8t-32.5 -10t-46 -5v-362q0 -72 -12 -122t-42 -90.5t-87 -60t-142 -19.5t-142 19.5t-87 60t-42 90.5t-12 122v362q-24 0 -46 5t-32.5 10t-10.5 8v46h282v-46q0 -3 -10.5 -8t-32.5 -10t-46 -5h-21v-362q0 -123 39.5 -169.5t161.5 -46.5t161.5 46.5
t39.5 169.5v362h-21q-24 0 -46 5t-32.5 10t-10.5 8v46h280v-46zM422 968l-75 -175h-63l51 175h87zM578 968l-75 -175h-63l51 175h87z" />
    <glyph glyph-name="uhungarumlaut" unicode="&#x171;" horiz-adv-x="666" 
d="M646 21q0 -3 -13.5 -8t-44 -10.5t-66.5 -5.5h-15l-4 100q-17 -57 -57.5 -82.5t-112.5 -25.5t-116 14t-69 49t-33.5 84.5t-8.5 131.5v205h-86v46q0 3 13.5 8.5t44.5 10.5t67 5h38v-275q0 -133 25.5 -169.5t124.5 -36.5t124.5 36.5t25.5 169.5v205h-90v46q0 3 13.5 8.5
t44 10.5t66.5 5h44v-476h85v-46zM324 796l-75 -175h-63l51 175h87zM480 796l-75 -175h-63l51 175h87z" />
    <glyph glyph-name="Uogonek" unicode="&#x172;" horiz-adv-x="794" 
d="M769 666q0 -3 -10.5 -8t-32.5 -10t-46 -5v-362q0 -72 -12 -122t-42 -90.5t-87 -60t-142 -19.5t-142 19.5t-87 60t-42 90.5t-12 122v362q-24 0 -46 5t-32.5 10t-10.5 8v46h282v-46q0 -3 -10.5 -8t-32.5 -10t-46 -5h-21v-362q0 -123 39.5 -169.5t161.5 -46.5t161.5 46.5
t39.5 169.5v362h-21q-24 0 -46 5t-32.5 10t-10.5 8v46h280v-46zM477 -190v-50q-35 -11 -64 -11q-100 0 -100 95q0 68 63 161h59q-51 -104 -51 -149q0 -26 12.5 -38t41.5 -12q17 0 39 4z" />
    <glyph glyph-name="uogonek" unicode="&#x173;" horiz-adv-x="666" 
d="M646 21q0 -3 -13.5 -8t-44 -10.5t-66.5 -5.5h-15l-4 100q-17 -57 -57.5 -82.5t-112.5 -25.5t-116 14t-69 49t-33.5 84.5t-8.5 131.5v205h-86v46q0 3 13.5 8.5t44.5 10.5t67 5h38v-275q0 -133 25.5 -169.5t124.5 -36.5t124.5 36.5t25.5 169.5v205h-90v46q0 3 13.5 8.5
t44 10.5t66.5 5h44v-476h85v-46zM610 -190v-50q-35 -11 -64 -11q-100 0 -100 95q0 68 63 161h59q-51 -104 -51 -149q0 -26 12.5 -38t41.5 -12q17 0 39 4z" />
    <glyph glyph-name="Wcircumflex" unicode="&#x174;" horiz-adv-x="1022" 
d="M1022 666q0 -3 -9.5 -8t-29 -9.5t-41.5 -5.5l-171 -643h-139l-114 480l-128 -480h-141l-169 643q-22 1 -41.5 5.5t-29 9.5t-9.5 8v46h260v-46q0 -3 -10.5 -8t-32.5 -10t-47 -5l141 -570h18l147 546l-6 24q-22 0 -42.5 5t-30.5 10t-10 8v46h251v-46q0 -3 -10 -8t-30.5 -10
t-43.5 -5l139 -570h18l140 570q-24 0 -46 5t-32.5 10t-10.5 8v46h260v-46zM567 793l-56 117l-56 -117h-62l64 175h108l64 -175h-62z" />
    <glyph glyph-name="wcircumflex" unicode="&#x175;" horiz-adv-x="873" 
d="M878 492q0 -2 -9 -6.5t-26 -9.5t-34 -6l-141 -470h-125l-107 379l-107 -379h-124l-141 471q-17 1 -34 5.5t-26 9.5t-9 7v46h222v-46q0 -3 -8 -8t-25.5 -9.5t-37.5 -5.5l115 -404h16l132 474h53l134 -475h17l113 405q-20 0 -37 5t-25 10t-8 7v46h222v-46zM492 621l-56 117
l-56 -117h-62l64 175h108l64 -175h-62z" />
    <glyph glyph-name="Ycircumflex" unicode="&#x176;" horiz-adv-x="717" 
d="M722 666q0 -3 -11 -8t-33 -10t-46 -5l-233 -397v-177q33 0 60 -5t38 -10t11 -8v-46h-300v46q0 3 11 8t38 10t60 5v181l-233 393q-24 0 -46 5t-32.5 10t-10.5 8v46h261v-46q0 -3 -9 -7.5t-27 -9t-38 -5.5l178 -310l177 309q-21 1 -39.5 6t-27.5 9.5t-9 7.5v46h261v-46z
M414 793l-56 117l-56 -117h-62l64 175h108l64 -175h-62z" />
    <glyph glyph-name="ycircumflex" unicode="&#x177;" horiz-adv-x="578" 
d="M583 493q0 -3 -9 -7.5t-26 -9.5t-35 -6l-206 -586q-7 -19 -12.5 -30t-19 -28.5t-37.5 -26.5t-57 -9q-64 0 -91.5 32t-27.5 92v11h50q6 -40 18.5 -53.5t44.5 -13.5t45 12t25 45l31 85h-48l-163 470q-18 1 -35 6t-26 9.5t-9 7.5v46h219v-46q0 -3 -8 -8t-24.5 -9.5
t-36.5 -5.5l136 -405h16l136 405q-20 1 -36.5 5.5t-24.5 9.5t-8 8v46h219v-46zM345 621l-56 117l-56 -117h-62l64 175h108l64 -175h-62z" />
    <glyph glyph-name="Ydieresis" unicode="&#x178;" horiz-adv-x="717" 
d="M722 666q0 -3 -11 -8t-33 -10t-46 -5l-233 -397v-177q33 0 60 -5t38 -10t11 -8v-46h-300v46q0 3 11 8t38 10t60 5v181l-233 393q-24 0 -46 5t-32.5 10t-10.5 8v46h261v-46q0 -3 -9 -7.5t-27 -9t-38 -5.5l178 -310l177 309q-21 1 -39.5 6t-27.5 9.5t-9 7.5v46h261v-46z
M497 864q0 -32 -9 -40.5t-44 -8.5t-44 8.5t-9 40.5t9 41t44 9t44 -9t9 -41zM325 864q0 -32 -9 -40.5t-44 -8.5t-44 8.5t-9 40.5t9 41t44 9t44 -9t9 -41z" />
    <glyph glyph-name="Zacute" unicode="&#x179;" horiz-adv-x="629" 
d="M599 0h-574v46l439 592h-341q0 -46 -6 -81.5t-12 -50t-10 -14.5h-47v220h538v-46l-439 -593h374q0 58 6 101.5t12.5 60t10.5 16.5h49v-251zM418 968l-75 -175h-63l51 175h87z" />
    <glyph glyph-name="zacute" unicode="&#x17a;" horiz-adv-x="552" 
d="M502 0h-452v69l345 401h-264q-1 -32 -6.5 -59t-10.5 -39t-8 -12h-46v179h435v-69l-343 -401h280q1 32 6 59t10 39t8 12h46v-179zM385 796l-75 -175h-63l51 175h87z" />
    <glyph glyph-name="Zdotaccent" unicode="&#x17b;" horiz-adv-x="629" 
d="M599 0h-574v46l439 592h-341q0 -46 -6 -81.5t-12 -50t-10 -14.5h-47v220h538v-46l-439 -593h374q0 58 6 101.5t12.5 60t10.5 16.5h49v-251zM367 867q0 -32 -9 -40.5t-44 -8.5t-44 8.5t-9 40.5t9 41t44 9t44 -9t9 -41z" />
    <glyph glyph-name="zdotaccent" unicode="&#x17c;" horiz-adv-x="552" 
d="M502 0h-452v69l345 401h-264q-1 -32 -6.5 -59t-10.5 -39t-8 -12h-46v179h435v-69l-343 -401h280q1 32 6 59t10 39t8 12h46v-179zM339 695q0 -32 -9 -40.5t-44 -8.5t-44 8.5t-9 40.5t9 41t44 9t44 -9t9 -41z" />
    <glyph glyph-name="Zcaron" unicode="&#x17d;" horiz-adv-x="629" 
d="M599 0h-574v46l439 592h-341q0 -46 -6 -81.5t-12 -50t-10 -14.5h-47v220h538v-46l-439 -593h374q0 58 6 101.5t12.5 60t10.5 16.5h49v-251zM316 852l56 117h62l-64 -175h-108l-64 175h62z" />
    <glyph glyph-name="zcaron" unicode="&#x17e;" horiz-adv-x="552" 
d="M502 0h-452v69l345 401h-264q-1 -32 -6.5 -59t-10.5 -39t-8 -12h-46v179h435v-69l-343 -401h280q1 32 6 59t10 39t8 12h46v-179zM276 679l56 117h62l-64 -175h-108l-64 175h62z" />
    <glyph glyph-name="longs" unicode="&#x17f;" horiz-adv-x="337" 
d="M116 573q0 42 7.5 73t22.5 49.5t30 30t37.5 16t36 5.5t35.5 1v-50q-47 -6 -69.5 -32t-22.5 -93v-504q22 0 43 -5t32 -10t11 -8v-46h-249v46q0 3 11 8t32 10t43 5v406h-86v44q0 2 9 6.5t30 9.5t47 7v31z" />
    <glyph glyph-name="uni018F" unicode="&#x18f;" horiz-adv-x="833" 
d="M50 359v45h523q-2 156 -43.5 202.5t-184.5 46.5q-70 0 -116.5 -10.5t-69.5 -30.5t-33 -40t-14 -49h-55q-1 6 -1 19q0 187 289 187q80 0 134.5 -13t90.5 -38.5t55.5 -72t27 -103.5t7.5 -143q0 -108 -11.5 -173t-44.5 -112.5t-92 -66t-155 -18.5q-68 0 -116.5 8t-83 28.5
t-55.5 47t-32.5 71t-15.5 93.5t-4 122zM357 66q50 0 83.5 4t58.5 16.5t38.5 29t22 49.5t11 69.5t3.5 96.5h-440q0 -61 2.5 -97t11 -69.5t22 -49.5t39.5 -29t60.5 -16.5t87.5 -3.5z" />
    <glyph glyph-name="florin" unicode="&#x192;" 
d="M396 396l-33 -403q-5 -65 -34.5 -99t-97.5 -34q-60 0 -86 27.5t-26 80.5q0 22 9.5 55.5t20.5 33.5h47q-5 -60 -5 -87q0 -23 8.5 -31t32.5 -8q28 0 37.5 12.5t12.5 47.5l33 405h-105l4 44q0 2 14.5 6.5t40 9.5t51.5 7l4 54q5 59 25 97t51.5 53.5t55.5 20t56 4.5l-5 -50
q-45 -6 -71 -34t-31 -91l-4 -57h170l-5 -64h-170z" />
    <glyph glyph-name="Aringacute" unicode="&#x1fa;" horiz-adv-x="720" 
d="M492 276l-115 363h-30l-119 -363h264zM399 749q0 26 -6.5 32t-32.5 6q-27 0 -34 -6.5t-7 -31.5q0 -24 7 -30.5t34 -6.5q26 0 32.5 6.5t6.5 30.5zM445 979l-48 -101h-63l24 101h87zM467 749q0 -56 -19 -76l197 -605q22 0 41.5 -5t29 -10t9.5 -7v-46h-259v46q0 2 10.5 7.5
t32.5 10.5t47 5l-42 136h-309l-44 -136q25 0 47.5 -5t33 -10.5t10.5 -7.5v-46h-257v46q0 2 9.5 7t29 9.5t41.5 5.5l200 602q-22 18 -22 79q0 58 20.5 79.5t86.5 21.5q65 0 86 -22t21 -79z" />
    <glyph glyph-name="aringacute" unicode="&#x1fb;" horiz-adv-x="627" 
d="M450 159v96h-163q-96 0 -127.5 -23t-31.5 -73q0 -37 9.5 -55.5t44.5 -30t105 -11.5q73 0 109 11.5t45 30t9 55.5zM352 592q0 26 -6.5 32t-32.5 6q-27 0 -34 -6.5t-7 -31.5q0 -24 7 -30.5t34 -6.5q26 0 32.5 6.5t6.5 30.5zM393 838l-48 -101h-63l24 101h87zM420 592
q0 -35 -7 -55q65 -23 89 -84.5t24 -181.5v-204h86v-46q0 -3 -13.5 -8t-44.5 -10.5t-67 -5.5h-15l-3 68q-42 -76 -182 -76q-72 0 -120.5 13t-73 38t-34 53t-9.5 66q0 30 5 52t20 43.5t40.5 35t68.5 22t103 8.5h160q-2 99 -30 129.5t-122 30.5q-81 0 -108 -18.5t-33 -69.5h-65
v147h57q4 -8 12 -35q15 24 53 37q-5 16 -5 51q0 58 20.5 79.5t86.5 21.5q65 0 86 -22t21 -79z" />
    <glyph glyph-name="AEacute" unicode="&#x1fc;" horiz-adv-x="909" 
d="M869 0h-497v46q0 3 10.5 8t32.5 10t46 5v136h-256l-44 -136q25 0 47.5 -5t33 -10.5t10.5 -7.5v-46h-257v46q0 2 9.5 7t29 9.5t41.5 5.5l214 644h559v-220h-47q-4 0 -10 14.5t-12 50t-6 81.5h-230v-234h101q0 25 5 47t10 32.5t8 10.5h45v-255h-45q-3 0 -8 11t-10 33.5
t-5 47.5h-101v-258h248q0 54 6.5 93.5t12.5 54t10 14.5h49v-235zM347 639l-119 -363h233v363h-114zM606 968l-75 -175h-63l51 175h87z" />
    <glyph glyph-name="aeacute" unicode="&#x1fd;" horiz-adv-x="981" 
d="M917 271v-16h-390q0 -46 1.5 -72t8 -50.5t16 -36t29 -20.5t45 -11.5t65.5 -2.5q53 0 85.5 6t48 21.5t20 27.5t9.5 39h50v-7q0 -19 -0.5 -30.5t-5 -30.5t-12.5 -31t-23.5 -26t-37.5 -22.5t-56.5 -14t-77.5 -5.5q-91 0 -132.5 22t-66.5 74q-41 -96 -206 -96
q-72 0 -120.5 13t-73 38t-34 53t-9.5 66t9 64.5t32.5 50.5t72.5 36t123 12h160q-2 99 -30 128.5t-122 29.5q-81 0 -108 -18.5t-33 -69.5h-65v147h57q4 -8 12 -35q32 49 137 49q82 0 125 -19.5t70 -76.5q25 57 67 76.5t128 19.5q73 0 118.5 -14.5t70.5 -50.5t34 -86t9 -131z
M450 159v96h-163q-96 0 -127.5 -23t-31.5 -73q0 -37 9.5 -55.5t44.5 -30t105 -11.5q73 0 109 11.5t45 30t9 55.5zM841 321q-5 101 -33 131t-123 30q-53 0 -81 -5.5t-45.5 -25.5t-22.5 -47.5t-7 -82.5h312zM594 796l-75 -175h-63l51 175h87z" />
    <glyph glyph-name="Oslashacute" unicode="&#x1fe;" horiz-adv-x="738" 
d="M137 -31l-49 35l36 52q-42 41 -58 112.5t-16 190.5q0 108 12 173t46.5 112t97 66t163.5 19q130 0 197 -33l31 45l49 -34l-31 -45q41 -41 57 -113t16 -190q0 -86 -7.5 -143t-27 -103.5t-56 -72t-91.5 -38.5t-137 -13q-128 0 -196 32zM135 359q0 -98 7 -151.5t28 -84.5
l352 509q-49 21 -153 21q-55 0 -90.5 -4t-63 -18t-42.5 -32.5t-24 -55t-11.5 -77.5t-2.5 -107zM604 359q0 96 -7.5 150t-28.5 85l-351 -509q46 -21 152 -21q55 0 91 4.5t63.5 18t42.5 32.5t24 55.5t11.5 77.5t2.5 107zM473 968l-75 -175h-63l51 175h87z" />
    <glyph glyph-name="oslashacute" unicode="&#x1ff;" horiz-adv-x="630" 
d="M141 -35l-49 35l29 42q-32 31 -44 85t-12 144q0 82 9.5 131t36.5 85.5t76 51t128 14.5q92 0 145 -22l27 39l49 -34l-26 -38q55 -56 55 -227q0 -82 -9.5 -131t-36.5 -85.5t-76 -51t-128 -14.5q-89 0 -143 20zM142 271q0 -130 23 -166l253 365q-34 11 -103 11
q-41 0 -67.5 -3t-47 -12.5t-31 -22.5t-17.5 -39t-8.5 -55t-1.5 -78zM488 271q0 125 -22 163l-252 -364q32 -9 101 -9q41 0 67.5 2.5t47 12.5t31 22.5t17.5 39t8.5 55.5t1.5 78zM423 796l-75 -175h-63l51 175h87z" />
    <glyph glyph-name="Scommaaccent" unicode="&#x218;" horiz-adv-x="668" 
d="M385 -104q0 -143 -101 -143v39q11 0 26.5 12.5t15.5 36.5v5q-28 0 -39 10.5t-11 39.5t10.5 38.5t43.5 9.5t44 -9.5t11 -38.5zM618 194q0 -45 -12.5 -80t-44 -66.5t-92.5 -48.5t-149 -17q-145 0 -205 77q-2 -17 -6.5 -31t-8.5 -21t-6 -7h-54v241h63q7 -98 51.5 -139
t165.5 -41q68 0 111 8t63.5 27t27.5 40.5t7 57.5q0 65 -46 95t-163 30q-145 0 -205 54t-60 155q0 97 67 149t198 52q70 0 118 -22t71 -54q2 17 6.5 31t8.5 20.5t6 6.5h54v-231h-60q-11 99 -57.5 134.5t-146.5 35.5q-184 0 -184 -122q0 -65 38.5 -97.5t145.5 -32.5
q298 0 298 -204z" />
    <glyph glyph-name="scommaaccent" unicode="&#x219;" horiz-adv-x="610" 
d="M375 -104q0 -143 -101 -143v39q11 0 26.5 12.5t15.5 36.5v5q-28 0 -39 10.5t-11 39.5t10.5 38.5t43.5 9.5t44 -9.5t11 -38.5zM545 151q0 -74 -50.5 -118t-186.5 -44q-128 0 -175 53q-7 -32 -15 -42h-48v185h55q3 -70 42 -97.5t141 -27.5q96 0 128.5 21.5t32.5 69.5
q0 47 -32.5 68t-128.5 21q-70 0 -118.5 12.5t-72 36t-33 48.5t-9.5 58t9.5 59t33.5 49.5t72 36.5t118 13q101 0 148 -50q7 28 12 36h50v-182h-55q-3 51 -12.5 74.5t-42.5 37t-100 13.5q-51 0 -83.5 -5.5t-48 -18.5t-20.5 -27t-5 -36q0 -45 29.5 -65t127.5 -20
q71 0 120 -12.5t73.5 -36t34 -49.5t9.5 -61z" />
    <glyph glyph-name="uni021A" unicode="&#x21a;" horiz-adv-x="642" 
d="M375 -104q0 -143 -101 -143v39q11 0 26.5 12.5t15.5 36.5v5q-28 0 -39 10.5t-11 39.5t10.5 38.5t43.5 9.5t44 -9.5t11 -38.5zM612 457l-48 1q-4 0 -10 15.5t-12.5 59.5t-6.5 105h-173v-569q33 0 60 -5t38 -10t11 -8v-46h-300v46q0 3 11 8t38 10t60 5v569h-173
q0 -61 -6 -105t-12.5 -59.5t-10.5 -14.5h-48v252h582v-254z" />
    <glyph glyph-name="uni021B" unicode="&#x21b;" horiz-adv-x="376" 
d="M267 -104q0 -143 -101 -143v39q11 0 26.5 12.5t15.5 36.5v5q-28 0 -39 10.5t-11 39.5t10.5 38.5t43.5 9.5t44 -9.5t11 -38.5zM341 122q0 -66 -27.5 -99.5t-93.5 -33.5q-68 0 -94.5 33.5t-26.5 99.5v353h-79v44q0 2 8.5 6t28 9t42.5 7v142h78v-144h158v-64h-158v-355
q0 -36 9 -48t38 -12t38 12t9 48v127h46q3 0 8 -13.5t10.5 -44.5t5.5 -67z" />
    <glyph glyph-name="uni0237" unicode="&#x237;" horiz-adv-x="292" 
d="M190 -30q0 -49 -12.5 -84t-28 -52.5t-42.5 -26.5t-44 -10.5t-43 -1.5v50q47 7 69.5 33t22.5 92v503h-86v46q0 3 13.5 8.5t44.5 10.5t67 5h39v-573z" />
    <glyph glyph-name="uni0259" unicode="&#x259;" horiz-adv-x="612" 
d="M64 226l2 61h407q0 65 -6 100t-26 57.5t-52.5 29t-92.5 6.5q-53 0 -87 -6.5t-51.5 -20.5t-24.5 -28.5t-11 -38.5h-50q0 27 2 44.5t14.5 43t34.5 41t66.5 27t106.5 11.5q80 0 129 -14.5t76 -51t36.5 -85.5t9.5 -131q0 -81 -9.5 -131t-36 -86t-74 -50.5t-124.5 -14.5
q-138 0 -188.5 58t-50.5 179zM470 221h-332q0 -96 34 -128.5t131 -32.5q101 0 132 30t35 131z" />
    <glyph glyph-name="circumflex" unicode="&#x2c6;" horiz-adv-x="620" 
d="M366 621l-56 117l-56 -117h-62l64 175h108l64 -175h-62z" />
    <glyph glyph-name="caron" unicode="&#x2c7;" horiz-adv-x="620" 
d="M310 679l56 117h62l-64 -175h-108l-64 175h62z" />
    <glyph glyph-name="breve" unicode="&#x2d8;" horiz-adv-x="620" 
d="M310 625q-73 0 -110.5 24.5t-37.5 81.5q0 27 6 51h57q0 -26 1.5 -38.5t9.5 -26t26 -18.5t48 -5q57 0 71 19.5t14 68.5h57q6 -30 6 -51q0 -57 -37.5 -81.5t-110.5 -24.5z" />
    <glyph glyph-name="dotaccent" unicode="&#x2d9;" horiz-adv-x="620" 
d="M365 695q0 -32 -9 -40.5t-44 -8.5t-44 8.5t-9 40.5t9 41t44 9t44 -9t9 -41z" />
    <glyph glyph-name="ring" unicode="&#x2da;" horiz-adv-x="620" 
d="M417 703q0 -56 -21 -77.5t-86 -21.5q-66 0 -86.5 21t-20.5 78q0 58 20.5 79.5t86.5 21.5q65 0 86 -22t21 -79zM349 703q0 26 -6.5 32t-32.5 6q-27 0 -34 -6.5t-7 -31.5q0 -24 7 -30.5t34 -6.5q26 0 32.5 6.5t6.5 30.5z" />
    <glyph glyph-name="ogonek" unicode="&#x2db;" horiz-adv-x="620" 
d="M401 -190v-50q-35 -11 -64 -11q-100 0 -100 95q0 68 63 161h59q-51 -104 -51 -149q0 -26 12.5 -38t41.5 -12q17 0 39 4z" />
    <glyph glyph-name="tilde" unicode="&#x2dc;" horiz-adv-x="620" 
d="M246 758q28 0 71 -19t60 -19q35 0 42 37h66q-9 -50 -38 -81.5t-69 -31.5q-29 0 -78 19t-64 19q-12 0 -23.5 -10.5t-16.5 -26.5h-61q17 113 111 113z" />
    <glyph glyph-name="hungarumlaut" unicode="&#x2dd;" horiz-adv-x="620" 
d="M322 796l-75 -175h-63l51 175h87zM478 796l-75 -175h-63l51 175h87z" />
    <glyph glyph-name="uni03BC" unicode="&#x3bc;" 
d="M124 -129l-1 602h-86v46q0 3 13.5 8.5t44.5 10.5t67 5h38v-272q0 -58 3 -90.5t12 -59t29 -37.5t48.5 -16.5t76.5 -5.5q99 0 124.5 36.5t25.5 169.5v205h-90v46q0 3 13.5 8.5t44 10.5t66.5 5h44v-476h85v-46q0 -3 -13.5 -8t-44 -10.5t-66.5 -5.5h-15l-4 100
q-17 -57 -57.5 -82.5t-112.5 -25.5q-120 0 -166 62v-180q22 0 43 -5t32 -10t11 -8v-46h-251v46q0 3 11 8t32 10t43 5z" />
    <glyph glyph-name="pi" unicode="&#x3c0;" 
d="M301 0h-163v46q0 3 11 8t32 10t43 5v400h-137v71h561v-71h-136v-469h-77v469h-134v-469z" />
    <glyph glyph-name="Wgrave" unicode="&#x1e80;" horiz-adv-x="1022" 
d="M1022 666q0 -3 -9.5 -8t-29 -9.5t-41.5 -5.5l-171 -643h-139l-114 480l-128 -480h-141l-169 643q-22 1 -41.5 5.5t-29 9.5t-9.5 8v46h260v-46q0 -3 -10.5 -8t-32.5 -10t-47 -5l141 -570h18l147 546l-6 24q-22 0 -42.5 5t-30.5 10t-10 8v46h251v-46q0 -3 -10 -8t-30.5 -10
t-43.5 -5l139 -570h18l140 570q-24 0 -46 5t-32.5 10t-10.5 8v46h260v-46zM488 793l-75 175h85l51 -175h-61z" />
    <glyph glyph-name="wgrave" unicode="&#x1e81;" horiz-adv-x="873" 
d="M878 492q0 -2 -9 -6.5t-26 -9.5t-34 -6l-141 -470h-125l-107 379l-107 -379h-124l-141 471q-17 1 -34 5.5t-26 9.5t-9 7v46h222v-46q0 -3 -8 -8t-25.5 -9.5t-37.5 -5.5l115 -404h16l132 474h53l134 -475h17l113 405q-20 0 -37 5t-25 10t-8 7v46h222v-46zM409 621l-75 175
h85l51 -175h-61z" />
    <glyph glyph-name="Wacute" unicode="&#x1e82;" horiz-adv-x="1022" 
d="M1022 666q0 -3 -9.5 -8t-29 -9.5t-41.5 -5.5l-171 -643h-139l-114 480l-128 -480h-141l-169 643q-22 1 -41.5 5.5t-29 9.5t-9.5 8v46h260v-46q0 -3 -10.5 -8t-32.5 -10t-47 -5l141 -570h18l147 546l-6 24q-22 0 -42.5 5t-30.5 10t-10 8v46h251v-46q0 -3 -10 -8t-30.5 -10
t-43.5 -5l139 -570h18l140 570q-24 0 -46 5t-32.5 10t-10.5 8v46h260v-46zM625 968l-75 -175h-63l51 175h87z" />
    <glyph glyph-name="wacute" unicode="&#x1e83;" horiz-adv-x="873" 
d="M878 492q0 -2 -9 -6.5t-26 -9.5t-34 -6l-141 -470h-125l-107 379l-107 -379h-124l-141 471q-17 1 -34 5.5t-26 9.5t-9 7v46h222v-46q0 -3 -8 -8t-25.5 -9.5t-37.5 -5.5l115 -404h16l132 474h53l134 -475h17l113 405q-20 0 -37 5t-25 10t-8 7v46h222v-46zM540 796
l-75 -175h-63l51 175h87z" />
    <glyph glyph-name="Wdieresis" unicode="&#x1e84;" horiz-adv-x="1022" 
d="M1022 666q0 -3 -9.5 -8t-29 -9.5t-41.5 -5.5l-171 -643h-139l-114 480l-128 -480h-141l-169 643q-22 1 -41.5 5.5t-29 9.5t-9.5 8v46h260v-46q0 -3 -10.5 -8t-32.5 -10t-47 -5l141 -570h18l147 546l-6 24q-22 0 -42.5 5t-30.5 10t-10 8v46h251v-46q0 -3 -10 -8t-30.5 -10
t-43.5 -5l139 -570h18l140 570q-24 0 -46 5t-32.5 10t-10.5 8v46h260v-46zM650 863q0 -32 -9 -40.5t-44 -8.5t-44 8.5t-9 40.5t9 41t44 9t44 -9t9 -41zM478 863q0 -32 -9 -40.5t-44 -8.5t-44 8.5t-9 40.5t9 41t44 9t44 -9t9 -41z" />
    <glyph glyph-name="wdieresis" unicode="&#x1e85;" horiz-adv-x="873" 
d="M878 492q0 -2 -9 -6.5t-26 -9.5t-34 -6l-141 -470h-125l-107 379l-107 -379h-124l-141 471q-17 1 -34 5.5t-26 9.5t-9 7v46h222v-46q0 -3 -8 -8t-25.5 -9.5t-37.5 -5.5l115 -404h16l132 474h53l134 -475h17l113 405q-20 0 -37 5t-25 10t-8 7v46h222v-46zM575 691
q0 -32 -9 -40.5t-44 -8.5t-44 8.5t-9 40.5t9 41t44 9t44 -9t9 -41zM403 691q0 -32 -9 -40.5t-44 -8.5t-44 8.5t-9 40.5t9 41t44 9t44 -9t9 -41z" />
    <glyph glyph-name="Ygrave" unicode="&#x1ef2;" horiz-adv-x="717" 
d="M722 666q0 -3 -11 -8t-33 -10t-46 -5l-233 -397v-177q33 0 60 -5t38 -10t11 -8v-46h-300v46q0 3 11 8t38 10t60 5v181l-233 393q-24 0 -46 5t-32.5 10t-10.5 8v46h261v-46q0 -3 -9 -7.5t-27 -9t-38 -5.5l178 -310l177 309q-21 1 -39.5 6t-27.5 9.5t-9 7.5v46h261v-46z
M330 793l-75 175h85l51 -175h-61z" />
    <glyph glyph-name="ygrave" unicode="&#x1ef3;" horiz-adv-x="578" 
d="M583 493q0 -3 -9 -7.5t-26 -9.5t-35 -6l-206 -586q-7 -19 -12.5 -30t-19 -28.5t-37.5 -26.5t-57 -9q-64 0 -91.5 32t-27.5 92v11h50q6 -40 18.5 -53.5t44.5 -13.5t45 12t25 45l31 85h-48l-163 470q-18 1 -35 6t-26 9.5t-9 7.5v46h219v-46q0 -3 -8 -8t-24.5 -9.5
t-36.5 -5.5l136 -405h16l136 405q-20 1 -36.5 5.5t-24.5 9.5t-8 8v46h219v-46zM260 621l-75 175h85l51 -175h-61z" />
    <glyph glyph-name="endash" unicode="&#x2013;" horiz-adv-x="431" 
d="M411 286h-391v67h391v-67z" />
    <glyph glyph-name="emdash" unicode="&#x2014;" horiz-adv-x="499" 
d="M479 286h-459v67h459v-67z" />
    <glyph glyph-name="quoteleft" unicode="&#x2018;" horiz-adv-x="261" 
d="M70 557q0 159 112 159v-44q-13 0 -29.5 -14.5t-16.5 -45.5q32 0 43.5 -11t11.5 -44q0 -32 -11.5 -43t-48.5 -11q-36 0 -48.5 11t-12.5 43z" />
    <glyph glyph-name="quoteright" unicode="&#x2019;" horiz-adv-x="261" 
d="M191 658q0 -159 -112 -159v44q13 0 29.5 14.5t16.5 45.5q-32 0 -43.5 11t-11.5 44q0 32 11.5 43t48.5 11q36 0 48.5 -11t12.5 -43z" />
    <glyph glyph-name="quotesinglbase" unicode="&#x201a;" horiz-adv-x="261" 
d="M191 54q0 -159 -112 -159v44q13 0 29.5 14.5t16.5 45.5q-32 0 -43.5 11t-11.5 44q0 32 11.5 43t48.5 11q36 0 48.5 -11t12.5 -43z" />
    <glyph glyph-name="quotedblleft" unicode="&#x201c;" horiz-adv-x="417" 
d="M226 557q0 159 112 159v-44q-13 0 -29.5 -14.5t-16.5 -45.5q32 0 43.5 -11t11.5 -44q0 -32 -11.5 -43t-48.5 -11q-36 0 -48.5 11t-12.5 43zM70 557q0 159 112 159v-44q-13 0 -29.5 -14.5t-16.5 -45.5q32 0 43.5 -11t11.5 -44q0 -32 -11.5 -43t-48.5 -11q-36 0 -48.5 11
t-12.5 43z" />
    <glyph glyph-name="quotedblright" unicode="&#x201d;" horiz-adv-x="417" 
d="M191 658q0 -159 -112 -159v44q13 0 29.5 14.5t16.5 45.5q-32 0 -43.5 11t-11.5 44q0 32 11.5 43t48.5 11q36 0 48.5 -11t12.5 -43zM347 658q0 -159 -112 -159v44q13 0 29.5 14.5t16.5 45.5q-32 0 -43.5 11t-11.5 44q0 32 11.5 43t48.5 11q36 0 48.5 -11t12.5 -43z" />
    <glyph glyph-name="quotedblbase" unicode="&#x201e;" horiz-adv-x="417" 
d="M191 54q0 -159 -112 -159v44q13 0 29.5 14.5t16.5 45.5q-32 0 -43.5 11t-11.5 44q0 32 11.5 43t48.5 11q36 0 48.5 -11t12.5 -43zM347 54q0 -159 -112 -159v44q13 0 29.5 14.5t16.5 45.5q-32 0 -43.5 11t-11.5 44q0 32 11.5 43t48.5 11q36 0 48.5 -11t12.5 -43z" />
    <glyph glyph-name="dagger" unicode="&#x2020;" 
d="M406 0h-82v410h-172v73h172v207h82v-207h172v-73h-172v-410z" />
    <glyph glyph-name="daggerdbl" unicode="&#x2021;" 
d="M406 0h-82v210h-172v73h172v127h-172v73h172v207h82v-207h172v-73h-172v-127h172v-73h-172v-210z" />
    <glyph glyph-name="bullet" unicode="&#x2022;" horiz-adv-x="522" 
d="M422 332q0 -92 -31.5 -123t-129.5 -31t-129.5 31t-31.5 123q0 90 31.5 120.5t129.5 30.5t129.5 -30.5t31.5 -120.5z" />
    <glyph glyph-name="ellipsis" unicode="&#x2026;" horiz-adv-x="798" 
d="M196 49q0 -36 -12.5 -48t-50.5 -12t-50.5 12t-12.5 48q0 35 12.5 47t50.5 12t50.5 -12t12.5 -47zM462 49q0 -36 -12.5 -48t-50.5 -12t-50.5 12t-12.5 48q0 35 12.5 47t50.5 12t50.5 -12t12.5 -47zM728 49q0 -36 -12.5 -48t-50.5 -12t-50.5 12t-12.5 48q0 35 12.5 47
t50.5 12t50.5 -12t12.5 -47z" />
    <glyph glyph-name="perthousand" unicode="&#x2030;" horiz-adv-x="1188" 
d="M342 496q0 -114 -29 -156t-122 -42t-122 42t-29 156t29 156.5t122 42.5t122 -42t29 -157zM288 496q0 97 -15 122.5t-82 25.5t-82 -26t-15 -122t15 -121.5t82 -25.5t82 25.5t15 121.5zM787 191q0 -114 -29 -156t-122 -42t-122 42t-29 156t29 156.5t122 42.5t122 -42
t29 -157zM733 191q0 97 -15 122.5t-82 25.5t-82 -26t-15 -122t15 -121.5t82 -25.5t82 25.5t15 121.5zM1148 191q0 -114 -29 -156t-122 -42t-122 42t-29 156t29 156.5t122 42.5t122 -42t29 -157zM1094 191q0 97 -15 122.5t-82 25.5t-82 -26t-15 -122t15 -121.5t82 -25.5
t82 25.5t15 121.5zM270 0h-59l347 689h62z" />
    <glyph glyph-name="guilsinglleft" unicode="&#x2039;" horiz-adv-x="258" 
d="M228 415l-124 -131l124 -129v-77l-208 184v45l208 184v-76z" />
    <glyph glyph-name="guilsinglright" unicode="&#x203a;" horiz-adv-x="258" 
d="M154 284l-124 131v76l208 -184v-45l-208 -184v77z" />
    <glyph glyph-name="fraction" unicode="&#x2044;" horiz-adv-x="429" 
d="M69 0h-59l347 689h62z" />
    <glyph glyph-name="Euro" unicode="&#x20ac;" 
d="M51 376v71h74q10 144 68.5 203.5t198.5 59.5q129 0 176 -61q2 13 6.5 24t7.5 16t5 5h49v-229h-60q-7 101 -44 134t-140 33q-106 0 -143 -36.5t-43 -148.5h224v-71h-226v-52h226v-71h-224q5 -114 41.5 -150t144.5 -36q57 0 95 10t57 29.5t27 39t12 47.5h56q1 -6 1 -20
q0 -183 -248 -183q-145 0 -201.5 58.5t-65.5 204.5h-74v71h71v52h-71z" />
    <glyph glyph-name="trademark" unicode="&#x2122;" horiz-adv-x="844" 
d="M804 358h-139v27q0 2 5.5 5.5t15.5 6.5t22 4v270l-91 -313h-51l-91 311v-268q12 0 22.5 -3.5t15.5 -7t5 -5.5v-27h-137v27q0 2 5.5 5.5t15.5 6.5t22 4v268q-12 0 -22.5 3.5t-15.5 7t-5 5.5v27h134l77 -274l75 274h137v-27q0 -2 -5.5 -5t-16.5 -6.5t-22 -4.5v-268
q12 0 23 -3.5t16 -7t5 -5.5v-27zM349 579l-29 1q-3 0 -7 8t-8.5 29t-4.5 50h-72v-266q16 0 28.5 -3.5t18.5 -7t6 -5.5v-27h-157v27q0 2 5.5 5.5t18 7t28.5 3.5v266h-72q0 -26 -4.5 -47t-8.5 -29.5t-7 -10.5h-29v132h294v-133z" />
    <glyph glyph-name="partialdiff" unicode="&#x2202;" 
d="M282 682v55q5 2 19 2q161 0 228 -97t67 -315q0 -98 -10 -158t-38.5 -102.5t-78.5 -59.5t-132 -17q-141 0 -191.5 52t-50.5 155q0 50 10.5 87t36.5 67.5t75 46.5t120 16q79 0 123.5 -20t70.5 -68q0 356 -249 356zM337 61q103 0 140 31t37 106q0 82 -36 115t-141 33
q-104 0 -136 -30.5t-32 -113.5q0 -81 32 -111t136 -30z" />
    <glyph glyph-name="minus" unicode="&#x2212;" horiz-adv-x="402" 
d="M362 285h-322v67h322v-67z" />
    <glyph glyph-name="approxequal" unicode="&#x2248;" horiz-adv-x="402" 
d="M373 381q-41 -43 -96 -43q-37 0 -82 22.5t-70 22.5q-34 0 -69 -31l-28 61q44 38 94 38q36 0 80 -22t71 -22q36 0 70 34zM373 231q-41 -43 -96 -43q-37 0 -82 22.5t-70 22.5q-34 0 -69 -31l-28 61q44 38 94 38q36 0 80 -22t71 -22q36 0 70 34z" />
    <glyph glyph-name="notequal" unicode="&#x2260;" horiz-adv-x="402" 
d="M125 120h-59l45 90h-71v67h104l43 85h-147v67h181l44 87h62l-45 -87h80v-67h-114l-43 -85h157v-67h-191z" />
    <glyph glyph-name="lessequal" unicode="&#x2264;" horiz-adv-x="402" 
d="M278 111l-225 205l225 202l51 -54l-173 -149l173 -152zM362 0h-322v67h322v-67z" />
    <glyph glyph-name="greaterequal" unicode="&#x2265;" horiz-adv-x="402" 
d="M349 316l-225 -205l-51 52l173 152l-173 149l51 54zM40 0h322v67h-322v-67z" />
    <glyph glyph-name="fi" unicode="&#xfb01;" horiz-adv-x="636" 
d="M116 573q0 42 7.5 73t22.5 49.5t30 30t37.5 16t36 5.5t35.5 1v-50q-47 -6 -69.5 -32t-22.5 -93v-34h124v-64h-124v-406q22 0 43 -5t32 -10t11 -8v-46h-249v46q0 3 11 8t32 10t43 5v406h-86v44q0 2 9 6.5t30 9.5t47 7v31zM542 674q0 -32 -9 -40.5t-44 -8.5t-44 8.5
t-9 40.5t9 41t44 9t44 -9t9 -41zM616 0h-249v46q0 3 11 8t32 10t43 5v404h-86v46q0 3 13.5 8.5t44.5 10.5t67 5h38v-474q22 0 43 -5t32 -10t11 -8v-46z" />
    <glyph glyph-name="fl" unicode="&#xfb02;" horiz-adv-x="631" 
d="M116 573q0 42 7.5 73t22.5 49.5t30 30t37.5 16t36 5.5t35.5 1v-50q-47 -6 -69.5 -32t-22.5 -93v-34h124v-64h-124v-406q22 0 43 -5t32 -10t11 -8v-46h-249v46q0 3 11 8t32 10t43 5v406h-86v44q0 2 9 6.5t30 9.5t47 7v31zM611 0h-249v46q0 3 11 8t32 10t43 5v599h-86v46
q0 3 13.5 8t44.5 10.5t67 5.5h38v-669q22 0 43 -5t32 -10t11 -8v-46z" />
    <glyph glyph-name="CR" horiz-adv-x="200" 
 />
    <glyph glyph-name="i.latn_TRK" horiz-adv-x="299" 
d="M205 674q0 -32 -9 -40.5t-44 -8.5t-44 8.5t-9 40.5t9 41t44 9t44 -9t9 -41zM279 0h-249v46q0 3 11 8t32 10t43 5v404h-86v46q0 3 13.5 8.5t44.5 10.5t67 5h38v-474q22 0 43 -5t32 -10t11 -8v-46z" />
    </font>
</defs>
</svg>
